<?xml version="1.0" standalone="no"?>
<!DOCTYPE svg PUBLIC "-//W3C//DTD SVG 1.1//EN" "http://www.w3.org/Graphics/SVG/1.1/DTD/svg11.dtd" >
<svg xmlns="http://www.w3.org/2000/svg" xmlns:xlink="http://www.w3.org/1999/xlink" version="1.1">
<metadata>
Created by FontForge 20170731 at Mon Jan 18 11:29:35 2016
 By Aleksey,,,
Created by gluk (gluksza@wp.pl | www.glukfonts.pl) with FontForge.
This Font is licensed unter SIL Open Font License v.1.1.
</metadata>
<defs>
<font id="FogtwoNo5" horiz-adv-x="833" >
  <font-face 
    font-family="FogtwoNo5"
    font-weight="400"
    font-stretch="normal"
    units-per-em="1000"
    panose-1="0 0 6 0 0 0 0 0 0 0"
    ascent="773"
    descent="-227"
    x-height="491"
    cap-height="599"
    bbox="-129 -229 2190 775"
    underline-thickness="14"
    underline-position="-131"
    unicode-range="U+0020-FB03"
  />
<missing-glyph horiz-adv-x="268" 
d="M49 24h147v444h-147v-444zM24 0v492h197v-492h-197z" />
    <glyph glyph-name="f_c" unicode="fc" horiz-adv-x="826" 
d="M329 248q0 104 78 177t188 73q31 0 76 -8t63 -8q10 0 33 5l6 -204h-15l-2 67q-2 57 -53 95t-115 38q-83 0 -134.5 -61t-51.5 -161q0 -115 61.5 -179.5t145.5 -64.5q55 0 101.5 26t72.5 79l14 -5q-24 -60 -78 -92t-123 -32q-120 0 -193.5 70.5t-73.5 184.5zM15 0v8h35
q23 0 30.5 9.5t7.5 34.5v408h-73v22h73q-18 54 -18 107q0 50 48.5 79.5t123.5 29.5q45 0 83 -11.5t48 -11.5v-133h-15v8q0 132 -116 132q-53 0 -87.5 -26t-34.5 -67q0 -50 32 -107h116v-22h-115v-429q0 -16 -6 -22v-1h70v-8h-202z" />
    <glyph glyph-name="f_e" unicode="fe" horiz-adv-x="811" 
d="M329 248q0 103 74.5 176.5t179.5 73.5q88 0 141 -45.5t53 -121.5q0 -16 -7.5 -25.5t-20.5 -9.5h-346q-3 -25 -3 -52q0 -98 54.5 -162.5t143.5 -64.5q115 0 173 79l12 -9q-70 -94 -203 -94q-112 0 -181.5 70.5t-69.5 184.5zM406 311l288 6q14 0 14 15q0 69 -35.5 109.5
t-93.5 40.5q-67 0 -113 -46t-60 -125zM15 0v8h35q23 0 30.5 9.5t7.5 34.5v408h-73v22h73q-18 54 -18 107q0 50 48.5 79.5t123.5 29.5q45 0 83 -11.5t48 -11.5v-133h-15v8q0 132 -116 132q-53 0 -87.5 -26t-34.5 -67q0 -50 32 -107h116v-22h-115v-429q0 -16 -6 -22v-1h70v-8
h-202z" />
    <glyph glyph-name="g_j" unicode="gj" horiz-adv-x="763" 
d="M661 658q17 0 27 -9.5t10 -26.5t-10 -27.5t-27 -10.5t-27.5 10.5t-10.5 27.5q0 16 10.5 26t27.5 10zM628 453q0 14 -7.5 22t-19.5 8h-31v8h113q10 0 10 -10v-529q0 -63 -37 -102t-94 -39q-20 0 -34 6l5 14q11 -5 29 -5q66 0 66 87v540zM107 352q0 -67 42.5 -115
t102.5 -48q68 0 110 39.5t42 102.5t-45 107.5t-107 44.5q-65 0 -105 -36t-40 -95zM44 341q0 65 61.5 111t146.5 46q63 0 111.5 -19t75.5 -54q0 35 16 66.5t42 46.5l14 8q9 -13 9 -25q0 -22 -17 -31q-50 -29 -50 -72q0 -15 5 -27q9 -24 9 -50q0 -71 -61 -119t-154 -48
q-26 0 -50 3v-19q0 -46 26 -60.5t78 -14.5h22q76 0 130.5 -30t54.5 -101q0 -57 -68 -99t-159 -42q-105 0 -174.5 39.5t-69.5 97.5q0 47 49 83t123 43q-29 32 -29 84v22q-68 14 -104.5 56t-36.5 105zM228 60q-69 -4 -116.5 -36t-47.5 -76q0 -35 62 -58t160 -23q86 0 149 24.5
t63 60.5q0 29 -33.5 49.5t-84.5 20.5q-103 0 -152 38z" />
    <glyph glyph-name="t_o" unicode="to" horiz-adv-x="971" 
d="M172 463v-355q0 -41 19 -66t50 -25q41 0 64 26.5t23 71.5v25h15v-25q0 -55 -29.5 -88.5t-77.5 -33.5q-58 0 -93 35.5t-35 93.5v341h-100v21h48q34 0 59 27t33.5 53t8.5 42v93h15v-172q0 -31 -10 -35v-1h207l-5 -28h-192zM669 -7q-121 0 -194.5 69.5t-73.5 183.5
q0 104 79 178t189 74q120 0 194 -69.5t74 -182.5q0 -104 -78.5 -178.5t-189.5 -74.5zM671 8q87 0 141 62t54 162q0 103 -59 176.5t-142 73.5q-87 0 -140 -61t-53 -162q0 -104 58 -177.5t141 -73.5z" />
    <glyph glyph-name="t_a" unicode="ta" horiz-adv-x="834" 
d="M172 463v-355q0 -41 19 -66t50 -25q41 0 64 26.5t23 71.5v25h15v-25q0 -55 -29.5 -88.5t-77.5 -33.5q-58 0 -93 35.5t-35 93.5v341h-100v21h48q34 0 59 27t33.5 53t8.5 42v93h15v-172q0 -31 -10 -35v-1h207l-5 -28h-192zM407 97q0 68 55 104t160 36h70v136q0 109 -99 109
q-59 0 -92 -31.5t-36 -82.5l-4 -50h-15l9 173q12 -3 24 -3q11 0 48.5 5t64.5 5q81 0 124 -35t43 -101v-315q0 -28 23 -28q24 0 24 29v13h8v-13q0 -22 -15.5 -37t-37.5 -15q-19 0 -32.5 14t-14.5 35l-5 83h-8q-15 -71 -57 -103t-93 -32q-67 0 -105.5 28.5t-38.5 75.5zM474 97
q0 -37 25 -59t62 -22q52 0 91.5 44t39.5 128v34h-66q-74 0 -113 -32t-39 -93z" />
    <glyph glyph-name="t_w" unicode="tw" horiz-adv-x="1091" 
d="M108 122v341h-100v21h48q34 0 59 27t33.5 53t8.5 42v93h15v-172q0 -31 -10 -35v-1h152l-5 -28h-137v-355q0 -41 19 -66t50 -25q41 0 64 26.5t23 71.5v25h15v-25q0 -55 -29.5 -88.5t-77.5 -33.5q-58 0 -93 35.5t-35 93.5zM570 -4l-165 436q-12 32 -20 41.5t-28 9.5h-12v8
h120v-12q0 -23 5 -36l127 -321q5 -13 5 -34h9q0 6 7 30l89 294l-6 20q-9 31 -18 41t-31 10h-19v8h191v-8h-42q-19 0 -19 -23q0 -8 3 -17l98 -325q5 -18 5 -30h9q0 5 10 32l94 246l16 67q3 12 3 20q0 30 -44 30h-15v8h143v-8h-5q-18 0 -28 -11.5t-22 -39.5l-31 -71l-139 -364
l-28 -1l-115 384l-116 -384h-31z" />
    <glyph glyph-name="t_y" unicode="ty" horiz-adv-x="827" 
d="M108 122v341h-100v21h48q34 0 59 27t33.5 53t8.5 42v93h15v-172q0 -31 -10 -35v-1h152l-5 -28h-137v-355q0 -41 19 -66t50 -25q41 0 64 26.5t23 71.5v25h15v-25q0 -55 -29.5 -88.5t-77.5 -33.5q-58 0 -93 35.5t-35 93.5zM578 -5q5 12 5 24t-5 23l-169 390
q-13 31 -21.5 41t-28.5 10h-13v8h161v-8h-59v-1q11 -4 27 -40l134 -306q6 -14 6 -35v-2h3l104 265l20 68q4 14 4 24q0 27 -41 27h-28v8h145v-7q-17 0 -27 -11.5t-23 -41.5l-32 -72l-177 -449q-17 -44 -46.5 -71.5t-64.5 -27.5q-26 0 -44.5 23t-18.5 55q41 -19 70 -19
q69 0 94 62z" />
    <glyph glyph-name="w_w_w" unicode="www" horiz-adv-x="2196" 
d="M1675 -4l-165 436q-14 37 -27 50l-6 5v4h92v-12q0 -21 6 -36l127 -321q5 -13 5 -34h9q0 6 7 30l89 294l-6 20q-9 31 -18 41t-31 10h-19v8h191v-8h-42q-19 0 -19 -23q0 -8 3 -17l98 -325q5 -17 5 -30h9q0 5 10 32l94 246l16 67q3 12 3 20q0 30 -44 30h-15v8h143v-8h-5
q-18 0 -28 -11.5t-22 -39.5l-31 -71l-139 -364l-28 -1l-115 384l-116 -384h-31zM955 -4l-165 436q-14 37 -27 50l-6 5v4h92v-12q0 -21 6 -36l127 -321q5 -13 5 -34h9q0 6 7 30l89 294l-6 20q-9 31 -18 41t-31 10h-19v8h191v-8h-42q-19 0 -19 -23q0 -8 3 -17l98 -325
q5 -17 5 -30h9q0 5 10 32l94 246l16 67q3 12 3 20q0 30 -44 30h-15v8h143v-8h-5q-18 0 -28 -11.5t-22 -39.5l-31 -71l-139 -364l-28 -1l-115 384l-116 -384h-31zM233 -4l-165 436q-12 32 -20 41.5t-28 9.5h-12v8h120v-12q0 -23 5 -36l127 -321q5 -13 5 -34h9q0 6 7 30
l89 294l-6 20q-9 31 -18 41t-31 10h-19v8h191v-8h-42q-19 0 -19 -23q0 -8 3 -17l98 -325q5 -18 5 -30h9q0 5 10 32l94 246l16 67q3 12 3 20q0 30 -44 30h-15v8h143v-8h-5q-18 0 -28 -11.5t-22 -39.5l-31 -71l-139 -364l-28 -1l-115 384l-116 -384h-31z" />
    <glyph glyph-name="r_y" unicode="ry" 
d="M584 42l-169 390q-16 37 -29 50l-5 5v4h132v-8h-59v-1q12 -5 27 -40l134 -306q6 -14 6 -35v-2h3l104 265l20 68q4 14 4 23q0 28 -42 28h-27v8h145v-7q-17 0 -27 -11.5t-23 -41.5l-32 -72l-177 -449q-18 -44 -47 -71.5t-64 -27.5q-26 0 -44.5 23t-18.5 55q41 -19 70 -19
q68 0 94 62l26 63q4 12 4 22q0 13 -5 25zM15 0v8h29q30 0 37 20.5t7 106.5v318q0 14 -7.5 22t-19.5 8h-31v8h101q15 0 15 -15v-62q0 -55 -7 -76v-2h7q16 77 56.5 119.5t94.5 42.5q71 0 71 -47q0 -18 -12 -31t-29 -13q-18 0 -30.5 12.5t-12.5 30.5q0 16 10 26v1
q-63 0 -102 -64.5t-39 -169.5v-109q0 -86 7.5 -106.5t37.5 -20.5h53v-7h-236z" />
    <glyph glyph-name="f_h" unicode="fh" horiz-adv-x="851" 
d="M336 0v8h29q30 0 37 20.5t7 106.5v433q0 73 -4 90.5t-21 17.5h-39v7h48q30 0 52 11t22 34v3h7v-188q0 -96 -15 -216h6q4 28 13 54q18 53 59.5 85t93.5 32q67 0 103.5 -34t36.5 -92v-237q0 -86 7 -106.5t37 -20.5h30v-8h-212v8h29q30 0 37 20.5t7 106.5v214q0 126 -82 126
q-65 0 -107.5 -54t-42.5 -141v-145q0 -86 7.5 -106.5t37.5 -20.5h29v-8h-212zM15 0v8h35q23 0 30.5 9.5t7.5 34.5v408h-73v22h73q-18 54 -18 107q0 50 40 79.5t102 29.5q24 0 52.5 -8.5t37.5 -8.5q7 0 13 2v-141h-15v8q0 132 -88 132q-40 0 -66 -25.5t-26 -67.5
q0 -50 32 -107h150v-22h-149v-429q0 -16 -6 -22v-1h70v-8h-202z" />
    <glyph glyph-name="f_k" unicode="fk" horiz-adv-x="831" 
d="M409 134v517q0 25 -25 25h-39v7h48q68 0 78 40l2 8h6l-5 -143v-320q45 0 55 12l95 108l31 41q14 19 14 32q0 22 -40 22h-4v8h184v-8h-7q-61 0 -120 -59l-47 -46l-90 -103v-3q46 -10 76 -27t45 -40t21 -42.5t10 -48.5q7 -54 21.5 -78.5t49.5 -24.5q21 0 41 16l11 9l4 -6
l-10 -8q-39 -31 -68 -31q-56 0 -82 33.5t-38 103.5q-5 32 -10.5 49.5t-20 40t-42 33t-68.5 10.5h-11v-127q0 -85 7.5 -105.5t37.5 -20.5h29v-8h-212v8h29q30 0 37 20t7 106zM15 0v8h35q23 0 30.5 9.5t7.5 34.5v408h-73v22h73q-18 54 -18 107q0 50 40 79.5t102 29.5
q24 0 52.5 -8.5t37.5 -8.5q7 0 13 2v-141h-15v8q0 132 -88 132q-40 0 -66 -25.5t-26 -67.5q0 -50 32 -107h150v-22h-149v-429q0 -16 -6 -22v-1h70v-8h-202z" />
    <glyph glyph-name="t_e" unicode="te" horiz-adv-x="883" 
d="M401 248q0 103 74.5 176.5t179.5 73.5q88 0 141 -45.5t53 -121.5q0 -16 -7.5 -25.5t-20.5 -9.5h-346q-3 -25 -3 -52q0 -98 54.5 -162.5t143.5 -64.5q115 0 173 79l12 -9q-70 -94 -203 -94q-112 0 -181.5 70.5t-69.5 184.5zM478 311l288 6q14 0 14 15q0 69 -35.5 109.5
t-93.5 40.5q-67 0 -113 -46t-60 -125zM172 463v-355q0 -41 19 -66t50 -25q41 0 64 26.5t23 71.5v25h15v-25q0 -55 -29.5 -88.5t-77.5 -33.5q-58 0 -93 35.5t-35 93.5v341h-100v21h48q34 0 59 27t33.5 53t8.5 42v93h15v-172q0 -31 -10 -35v-1h207l-5 -28h-192z" />
    <glyph glyph-name="f_o" unicode="fo" horiz-adv-x="899" 
d="M597 -7q-121 0 -194.5 69.5t-73.5 183.5q0 104 79 178t189 74q120 0 194 -69.5t74 -182.5q0 -104 -78.5 -178.5t-189.5 -74.5zM599 8q87 0 141 62t54 162q0 103 -59 176.5t-142 73.5q-87 0 -140 -61t-53 -162q0 -104 58 -177.5t141 -73.5zM15 0v8h35q23 0 30.5 9.5
t7.5 34.5v408h-73v22h73q-18 54 -18 107q0 50 48.5 79.5t123.5 29.5q45 0 83 -11.5t48 -11.5v-133h-15v8q0 132 -116 132q-53 0 -87.5 -26t-34.5 -67q0 -50 32 -107h116v-22h-115v-429q0 -16 -6 -22v-1h70v-8h-202z" />
    <glyph glyph-name="w_w" unicode="ww" horiz-adv-x="1475" 
d="M233 -4l-165 436q-12 32 -20 41.5t-28 9.5h-12v8h120v-12q0 -23 5 -36l127 -321q5 -13 5 -34h9q0 6 7 30l89 294l-6 20q-9 31 -18 41t-31 10h-19v8h191v-8h-42q-19 0 -19 -23q0 -8 3 -17l98 -325q5 -18 5 -30h9q0 5 10 32l94 246l16 67q3 12 3 20q0 30 -44 30h-15v8h143
v-8h-5q-18 0 -28 -11.5t-22 -39.5l-31 -71l-139 -364l-28 -1l-115 384l-116 -384h-31zM954 -4l-165 436q-14 37 -27 50l-6 5v4h92v-12q0 -21 6 -36l127 -321q5 -13 5 -34h9q0 6 7 30l89 294l-6 20q-9 31 -18 41t-31 10h-19v8h191v-8h-42q-19 0 -19 -23q0 -8 3 -17l98 -325
q5 -17 5 -30h9q0 5 10 32l94 246l16 67q3 12 3 20q0 30 -44 30h-15v8h143v-8h-5q-18 0 -28 -11.5t-22 -39.5l-31 -71l-139 -364l-28 -1l-115 384l-116 -384h-31z" />
    <glyph glyph-name="r_p" unicode="rp" horiz-adv-x="919" 
d="M411 496h12v-55q0 -80 28 -80q6 0 12.5 10t19.5 31t31 38q56 58 143 58q73 0 126 -37.5t77.5 -94t24.5 -121.5q0 -102 -60 -177t-168 -75q-60 0 -108 30.5t-68 86.5l-5 16v-174q0 -86 7.5 -107t37.5 -21h30v-7h-213v7h29q30 0 37 20.5t7 107.5v544zM476 211
q0 -93 49 -144t116 -51q83 0 128 61t45 153q0 96 -46 170.5t-127 74.5q-67 0 -116 -51t-49 -144v-69zM15 0v8h29q30 0 37 20.5t7 106.5v318q0 14 -7.5 22t-19.5 8h-31v8h101q15 0 15 -15v-62q0 -55 -7 -76v-2h7q16 77 56.5 119.5t94.5 42.5q71 0 71 -47q0 -18 -12 -31
t-29 -13q-18 0 -30.5 12.5t-12.5 30.5q0 16 10 26v1q-63 0 -102 -64.5t-39 -169.5v-109q0 -86 7.5 -106.5t37.5 -20.5h53v-7h-236z" />
    <glyph glyph-name="f_f" unicode="ff" horiz-adv-x="671" 
d="M340 0v8h35q23 0 30.5 9.5t7.5 34.5v408h-73v22h73q-18 54 -18 107q0 50 43.5 79.5t111.5 29.5q39 0 72 -11.5t43 -11.5v-133h-15v8q0 132 -100 132q-46 0 -75.5 -26t-29.5 -67q0 -50 32 -107h132v-22h-131v-429q0 -16 -6 -22v-1h70v-8h-202zM15 0v8h35q23 0 30.5 9.5
t7.5 34.5v408h-73v22h73q-18 54 -18 107q0 50 40 79.5t102 29.5q24 0 52.5 -8.5t37.5 -8.5q7 0 13 2v-141h-15v8q0 132 -88 132q-40 0 -66 -25.5t-26 -67.5q0 -50 32 -107h150v-22h-149v-429q0 -16 -6 -22v-1h70v-8h-202z" />
    <glyph glyph-name="f_l" unicode="fl" horiz-adv-x="566" 
d="M15 0v8h35q23 0 30.5 9.5t7.5 34.5v408h-73v22h73q-18 54 -18 107q0 50 40 79.5t102 29.5q24 0 52.5 -8.5t37.5 -8.5q7 0 13 2v-141h-15v8q0 132 -88 132q-40 0 -66 -25.5t-26 -67.5q0 -50 32 -107h150v-22h-149v-429q0 -16 -6 -22v-1h70v-8h-202zM339 0v8h29
q30 0 37.5 20.5t7.5 105.5v517q0 25 -25 25h-39v7h48q30 0 52.5 11t22.5 34v3h6v-597q0 -85 7.5 -105.5t37.5 -20.5h30v-8h-214z" />
    <glyph glyph-name="uniFB03" unicode="ffi" horiz-adv-x="913" 
d="M793 658q17 0 27 -9.5t10 -26.5t-10 -27.5t-27 -10.5t-27.5 10.5t-10.5 27.5q0 16 10.5 26t27.5 10zM760 134v319q0 14 -7.5 22t-19.5 8h-31v8h113q10 0 10 -10v-347q0 -85 7.5 -105.5t37.5 -20.5h30v-8h-213v8h29q30 0 37 20t7 106zM15 0v8h35q23 0 30.5 9.5t7.5 34.5
v408h-73v22h73q-18 54 -18 107q0 50 40 79.5t102 29.5q24 0 52.5 -8.5t37.5 -8.5q7 0 13 2v-141h-15v8q0 132 -88 132q-40 0 -66 -25.5t-26 -67.5q0 -50 32 -107h150v-22h-149v-429q0 -16 -6 -22v-1h70v-8h-202zM340 0v8h35q23 0 30.5 9.5t7.5 34.5v408h-73v22h73
q-18 54 -18 107q0 50 43.5 79.5t111.5 29.5q39 0 72 -11.5t43 -11.5v-133h-15v8q0 132 -100 132q-46 0 -75.5 -26t-29.5 -67q0 -50 32 -107h132v-22h-131v-429q0 -16 -6 -22v-1h70v-8h-202z" />
    <glyph glyph-name=".notdef" horiz-adv-x="268" 
d="M49 24h147v444h-147v-444zM24 0v492h197v-492h-197z" />
    <glyph glyph-name=".null" horiz-adv-x="0" 
 />
    <glyph glyph-name="nonmarkingreturn" horiz-adv-x="245" 
 />
    <glyph glyph-name="space" unicode=" " horiz-adv-x="221" 
 />
    <glyph glyph-name="exclam" unicode="!" horiz-adv-x="192" 
d="M59 671q0 2 5 5t14 5t18 2q14 0 25.5 -3.5t11.5 -7.5q0 -81 -14.5 -245t-14.5 -245h-15q0 81 -15 244.5t-15 244.5zM96 67q17 0 27 -10.5t10 -27.5t-10 -27t-27 -10t-27 10t-10 27t10 27.5t27 10.5z" />
    <glyph glyph-name="quotedbl" unicode="&#x22;" horiz-adv-x="191" 
d="M118 541l11 133q42 -2 42 -27q0 -11 -12 -39l-29 -69zM27 541l11 133q42 -2 42 -27q0 -11 -12 -39l-29 -69z" />
    <glyph glyph-name="numbersign" unicode="#" horiz-adv-x="384" 
d="M112 46l-16 2l14 138h-88v16h90l13 124h-88v16h89l14 135l16 -2l-14 -133h110l14 135l16 -2l-14 -133h94v-16h-96l-13 -124h95v-16h-96l-14 -140l-16 2l14 138h-110zM140 326l-12 -124h110l13 124h-111z" />
    <glyph glyph-name="dollar" unicode="$" horiz-adv-x="407" 
d="M26 237l15 1l3 -47q5 -71 46.5 -110t102.5 -39v246q-30 12 -44.5 18.5t-38.5 21t-36 28t-21.5 35t-9.5 47.5q0 58 41 94t109 40v96h15v-96q23 0 56.5 -4t48.5 -4q18 0 29 2l9 -174h-15l-2 34q-2 54 -35.5 92t-90.5 39v-210q1 -1 28.5 -12t32 -13.5t27 -14t28.5 -17.5
t21 -19t20 -25t10 -29t5 -36q0 -71 -45.5 -111t-126.5 -43v-96h-15v96q-25 0 -70 7t-59 7q-15 0 -29 -4zM193 353v204q-92 -8 -92 -101q0 -37 23.5 -60t68.5 -43zM208 282v-239q52 4 80.5 36.5t28.5 88.5q0 42 -28 66.5t-81 47.5z" />
    <glyph glyph-name="percent" unicode="%" horiz-adv-x="539" 
d="M383 18q32 0 52 26t20 69q0 45 -21.5 77t-52.5 32q-32 0 -51.5 -26t-19.5 -69q0 -45 21.5 -77t51.5 -32zM382 5q-54 0 -87 31.5t-33 83.5q0 47 35 81t85 34q54 0 87.5 -32t33.5 -83q0 -47 -35.5 -81t-85.5 -34zM465 519l11 -10l-396 -435l-11 11zM158 377q32 0 52 26
t20 69q0 45 -21.5 77t-52.5 32q-32 0 -51.5 -26t-19.5 -69q0 -45 21.5 -77t51.5 -32zM157 364q-54 0 -87 31.5t-33 83.5q0 47 35 81t85 34q54 0 87.5 -32t33.5 -83q0 -47 -35.5 -81t-85.5 -34z" />
    <glyph glyph-name="ampersand" unicode="&#x26;" horiz-adv-x="512" 
d="M223 568q39 0 83 -12q17 -4 32 -4l3 -140h-15l-2 35q-1 18 -6.5 35t-16 34t-31 27t-48.5 10q-30 0 -53 -13t-35.5 -36.5t-12.5 -54.5q0 -45 28.5 -82.5t67.5 -37.5h13v-15h-18q-57 0 -88.5 -41t-31.5 -117q0 -64 43 -103.5t114 -39.5q75 0 121 36t46 94q0 42 -26 74
t-68 32q-14 0 -26.5 -4.5t-21 -12t-13 -18.5t-4.5 -24q0 -19 14 -32.5t34 -13.5v-12q-18 0 -33.5 9.5t-24.5 25t-9 33.5q0 23 13 43t43 35t73 18q30 2 47 4.5t38.5 9.5t31.5 21t10 36v10h11q2 -17 2 -37q0 -55 -29.5 -72.5t-86.5 -17.5h-17q27 -16 42.5 -46t15.5 -63
q0 -67 -55 -107.5t-145 -40.5q-93 0 -149.5 45t-56.5 118q0 66 39 113t100 55v1q-34 6 -62.5 43t-28.5 76q0 51 43.5 87.5t105.5 36.5z" />
    <glyph glyph-name="quotesingle" unicode="'" horiz-adv-x="104" 
d="M27 541l11 133q42 -2 42 -27q0 -11 -12 -39l-29 -69z" />
    <glyph glyph-name="parenleft" unicode="(" horiz-adv-x="226" 
d="M28 246q0 125 47 246.5t128 202.5l11 -11q-54 -54 -84.5 -177.5t-30.5 -260.5t30.5 -260.5t84.5 -177.5l-11 -11q-81 81 -128 202.5t-47 246.5z" />
    <glyph glyph-name="parenright" unicode=")" horiz-adv-x="226" 
d="M198 246q0 -125 -47 -246.5t-128 -202.5l-11 11q54 54 84.5 177.5t30.5 260.5t-30.5 260.5t-84.5 177.5l11 11q81 -81 128 -202.5t47 -246.5z" />
    <glyph glyph-name="asterisk" unicode="*" horiz-adv-x="221" 
d="M123 581l70 -33l1 -3l-9 -16h-3l-64 43l-1 2l-2 -1l2 -2l5 -77l-1 -3h-19l-2 3l5 77l2 2l-2 1l-1 -2l-64 -43h-3l-9 16l1 3l69 33h2v3l-2 -1l-69 34l-1 3l9 16h3l64 -43l1 -2l2 1l-2 2l-5 77l2 3h19l1 -3l-5 -77l-2 -2l2 -1l1 2l64 43h3l9 -16l-1 -3l-70 -34l-1 1v-3h1z
" />
    <glyph glyph-name="plus" unicode="+" horiz-adv-x="361" 
d="M195 275h145l-2 -23h-143v-146l-23 2v144h-150l1 23h149v150l23 -1v-149z" />
    <glyph glyph-name="comma" unicode="," horiz-adv-x="162" 
d="M50 -68q16 0 30.5 14t17.5 32t3 19l-3 1q-4 -6 -16 -6q-38 0 -38 37q0 38 38 38q16 0 26 -10.5t10 -27.5q0 -47 -18.5 -75.5t-49.5 -28.5v7z" />
    <glyph glyph-name="hyphen" unicode="-" horiz-adv-x="310" 
d="M292 252h-277l3 23h278z" />
    <glyph glyph-name="period" unicode="." horiz-adv-x="162" 
d="M82 67q16 0 26 -10.5t10 -27.5t-9.5 -27t-26.5 -10t-27.5 10t-10.5 27t10.5 27.5t27.5 10.5z" />
    <glyph glyph-name="slash" unicode="/" horiz-adv-x="468" 
d="M15 -188l415 880l22 -11l-416 -880z" />
    <glyph glyph-name="zero" unicode="0" horiz-adv-x="484" 
d="M238 591q-61 0 -98 -72t-37 -190q0 -133 41.5 -227t99.5 -94q56 0 96 77t40 185q0 144 -39 232.5t-103 88.5zM241 606q94 0 151.5 -84t57.5 -222q0 -127 -61.5 -217t-147.5 -90q-93 0 -150 84.5t-57 222.5q0 127 60.5 216.5t146.5 89.5z" />
    <glyph glyph-name="one" unicode="1" horiz-adv-x="270" 
d="M262 0h-254v8h54q30 0 37.5 21.5t7.5 112.5v307q0 37 2 49l-3 1q-7 -12 -21 -26l-55 -63l-6 4l32 41q94 120 102 141q3 6 3 10h11v-464q0 -91 7 -112.5t37 -21.5h46v-8z" />
    <glyph glyph-name="two" unicode="2" horiz-adv-x="388" 
d="M358 0h-329v52q9 1 31 16.5t40 38.5q89 116 137 203t48 155q0 59 -27.5 92.5t-76.5 33.5q-50 0 -78.5 -32.5t-35.5 -79.5v-28h-15v110q7 0 9 2q48 43 120 43q76 0 122.5 -41.5t46.5 -109.5q0 -34 -15 -72.5t-37.5 -74t-58 -77t-68 -75t-75.5 -74.5l-35 -30l3 -4
q24 4 48 4h120q26 0 42.5 1.5t33 6t25.5 13.5t15.5 24t7.5 38l2 24l10 -1z" />
    <glyph glyph-name="three" unicode="3" horiz-adv-x="397" 
d="M29 52v106h15v-26q4 -48 37.5 -86t88.5 -38q58 0 94 42.5t36 111.5q0 77 -34 126t-90 49h-76v15h63q50 0 80 37t30 93q0 45 -29.5 77t-72.5 32q-53 0 -80 -34t-31 -81v-28h-14v121q6 0 28 12q39 23 96 25q72 0 116.5 -34t44.5 -89q0 -47 -30.5 -88t-70.5 -48v-1
q60 -8 99 -62t39 -122q0 -70 -58 -119.5t-140 -49.5q-81 0 -141 59z" />
    <glyph glyph-name="four" unicode="4" horiz-adv-x="413" 
d="M38 148h232v200h60v-200h55v-30h-55v-9q0 -55 11.5 -78t40.5 -23h16v-8h-219v8h38q29 0 41 23t12 78v9h-255v19q79 163 119 284t40 170v8q49 0 71 5.5t34 27.5l5 -1z" />
    <glyph glyph-name="five" unicode="5" horiz-adv-x="405" 
d="M29 55v103h15v-26q2 -45 37 -84.5t89 -39.5q58 0 94 50.5t36 133.5q0 76 -38 130t-92 54q-67 0 -115 -38h-14l15 233q2 28 4 28h222q31 0 38.5 6t11.5 34l1 5l8 -1l-6 -95h-214q-37 0 -44.5 -6.5t-9.5 -41.5l-10 -142q50 33 113 33q90 0 144.5 -55t54.5 -144
q0 -82 -58.5 -140.5t-140.5 -58.5q-85 2 -141 62z" />
    <glyph glyph-name="six" unicode="6" horiz-adv-x="432" 
d="M222 -7q-82 0 -133 77.5t-51 203.5q0 148 54.5 240t140.5 92q29 0 57.5 -6t46.5 -12t22 -6v-121h-8v11q-9 48 -37 83.5t-81 35.5q-60 0 -94.5 -88t-34.5 -221h4q19 46 53.5 71t74.5 25q75 0 121.5 -54t46.5 -142q0 -78 -53.5 -133.5t-128.5 -55.5zM222 8q47 0 80 51
t33 123q0 75 -30.5 127.5t-73.5 52.5q-46 0 -84 -50t-39 -125q7 -84 37 -131.5t77 -47.5z" />
    <glyph glyph-name="seven" unicode="7" horiz-adv-x="376" 
d="M191 0h-69v40q0 122 65.5 273.5t114.5 210.5q18 20 23 22l-1 5q-11 -3 -62 -3h-184q-32 0 -40 -6t-9 -34l-3 -47h-8l9 138h335v-41q-13 -4 -40 -42t-57 -97.5t-52 -149t-22 -179.5v-90z" />
    <glyph glyph-name="eight" unicode="8" horiz-adv-x="450" 
d="M225 8q59 0 94.5 45t35.5 118q0 75 -35.5 120.5t-94.5 45.5q-58 0 -94 -45.5t-36 -120.5q0 -67 38 -115t92 -48zM225 352q43 0 69.5 33t26.5 88q0 49 -28 83.5t-68 34.5q-43 0 -69 -32.5t-26 -85.5q0 -55 26 -88t69 -33zM225 -7q-89 0 -144 49.5t-55 128.5
q0 66 42.5 116.5t104.5 58.5v1q-41 8 -70.5 45t-29.5 83q0 54 44.5 92.5t107.5 38.5q69 0 111 -36t42 -95q0 -46 -30 -83t-71 -45v-1q62 -8 104.5 -58.5t42.5 -116.5q0 -73 -58.5 -125.5t-140.5 -52.5z" />
    <glyph glyph-name="nine" unicode="9" horiz-adv-x="432" 
d="M210 606q82 0 133 -77.5t51 -203.5q0 -148 -54.5 -240t-140.5 -92q-29 0 -57.5 6t-46.5 12t-22 6v121h8v-11q9 -48 37 -83.5t81 -35.5q60 0 94.5 88t34.5 221h-4q-19 -46 -53.5 -71t-74.5 -25q-75 0 -121.5 54t-46.5 142q0 78 53.5 133.5t128.5 55.5zM210 591
q-47 0 -80 -51t-33 -123q0 -75 30.5 -127.5t73.5 -52.5q46 0 84 50t39 125q-7 84 -37 131.5t-77 47.5z" />
    <glyph glyph-name="colon" unicode=":" horiz-adv-x="162" 
d="M82 67q16 0 26 -10.5t10 -27.5t-9.5 -27t-26.5 -10t-27.5 10t-10.5 27t10.5 27.5t27.5 10.5zM82 359q17 0 26.5 -10t9.5 -27t-9.5 -27t-26.5 -10t-27.5 10t-10.5 27t10.5 27t27.5 10z" />
    <glyph glyph-name="semicolon" unicode=";" horiz-adv-x="162" 
d="M82 359q17 0 26.5 -10t9.5 -27t-9.5 -27t-26.5 -10t-27.5 10t-10.5 27t10.5 27t27.5 10zM118 29q0 -47 -18.5 -75.5t-49.5 -28.5v15q15 0 27 13.5t15 28.5q1 8 6 15l-3 1q-4 -6 -13 -6q-38 0 -38 37q0 38 38 38q16 0 26 -10.5t10 -27.5z" />
    <glyph glyph-name="less" unicode="&#x3c;" horiz-adv-x="310" 
d="M255 461l29 -30l-187 -125q-7 -5 -25.5 -17.5t-28.5 -18t-15 -6.5v-3q9 -2 69 -42l187 -125l-29 -30l-243 194v10z" />
    <glyph glyph-name="equal" unicode="=" horiz-adv-x="384" 
d="M352 310h-323l3 22h322zM352 192h-323l3 22h322z" />
    <glyph glyph-name="greater" unicode="&#x3e;" horiz-adv-x="310" 
d="M55 461l243 -193v-10l-243 -194l-29 30l187 127q8 5 20 13t19 13t14.5 9t11.5 5v3q-5 1 -14 6.5t-25.5 17t-25.5 16.5l-187 127z" />
    <glyph glyph-name="question" unicode="?" horiz-adv-x="335" 
d="M309 549q0 -27 -13 -55.5t-33 -52t-43 -50t-43 -49t-33 -48.5t-13 -49q0 -14 4.5 -24.5t11.5 -15t14 -4.5q10 0 16.5 7.5t6.5 21.5v13h8v-13q0 -22 -11.5 -35t-28.5 -13q-12 0 -22.5 7t-18 22.5t-7.5 37.5t10.5 49t26.5 51.5t34 52t34 51.5t26.5 50t10.5 46
q0 55 -26 85.5t-75 30.5q-50 0 -76.5 -28t-26.5 -81v-39h-15v158q13 -2 21 -2q13 0 50 5t46 5q74 0 119.5 -37t45.5 -97zM151 67q17 0 27 -10.5t10 -27.5q0 -5 -1 -10t-3.5 -9t-5.5 -7.5t-7 -6t-9 -3.5t-11 -1q-17 0 -27 10t-10 27q0 16 10.5 27t26.5 11z" />
    <glyph glyph-name="at" unicode="@" horiz-adv-x="715" 
d="M520 530l-4 -29h1l-30 -273q-3 -27 -3 -29q0 -70 43 -70q60 0 102 65.5t42 157.5q0 110 -86 188.5t-207 78.5q-138 0 -235.5 -93t-97.5 -224q0 -133 87 -227t209 -94q52 0 103 18t80 49l11 -10q-32 -33 -85.5 -52.5t-108.5 -19.5q-129 0 -220 98.5t-91 237.5
q0 138 102 235t246 97q127 0 217.5 -83t90.5 -199q0 -99 -47.5 -168.5t-114.5 -69.5q-62 0 -83 98h-6q-18 -41 -50 -70t-76 -29q-56 0 -95 45.5t-39 124.5q0 88 51.5 151.5t148.5 63.5q51 0 97 -24q18 0 25.5 7.5t11.5 27.5l2 22zM453 466q-34 16 -74 16q-71 0 -107.5 -63.5
t-36.5 -146.5q0 -64 22.5 -103t58.5 -39q34 0 68.5 38t47.5 99z" />
    <glyph glyph-name="A" unicode="A" horiz-adv-x="590" 
d="M7 0v8q29 0 54 51l37 75l184 424q14 32 15 45h17l213 -544q13 -32 21 -41.5t28 -9.5h6v-8h-163v8h19q28 0 28 23q0 7 -4 17l-51 131h-179l-96 -2l-21 -49l-23 -69q-4 -11 -4 -21q0 -30 40 -30h28v-8h-149zM144 197l92 -3h169l-109 279q-8 23 -8 49h-5z" />
    <glyph glyph-name="B" unicode="B" horiz-adv-x="508" 
d="M156 55q0 -40 23 -40h58q77 0 125 43.5t48 114.5q0 75 -50.5 123.5t-127.5 48.5h-44v15h33q55 0 91 31.5t36 80.5q0 51 -38 81.5t-100 30.5h-68v-1q14 -14 14 -43v-485zM15 0v8h29q30 0 37 20.5t7 106.5v329q0 86 -7 106.5t-37 20.5h-29v8h206q89 0 143.5 -34.5
t54.5 -91.5q0 -39 -33 -74t-87 -42v-4q78 -6 130.5 -60t52.5 -120q0 -77 -66 -125t-164 -48h-237z" />
    <glyph glyph-name="C" unicode="C" horiz-adv-x="543" 
d="M29 302q0 126 85 215t206 89q26 0 71.5 -7.5t63.5 -7.5q21 0 37 4l6 -213h-15l-2 72q-2 60 -53 99t-115 39q-94 0 -152 -76t-58 -201q0 -141 66.5 -219.5t156.5 -78.5q62 0 110.5 27t71.5 78l14 -5q-24 -60 -78 -92t-123 -32q-131 0 -211.5 85t-80.5 224z" />
    <glyph glyph-name="D" unicode="D" horiz-adv-x="597" 
d="M179 15h43q135 0 206 73t71 212q0 118 -79 201t-191 83h-87v-1q14 -14 14 -39v-489q0 -40 23 -40zM15 0v8h29q30 0 37 20.5t7 106.5v329q0 86 -7 106.5t-37 20.5h-29v8h230q147 0 236.5 -82t89.5 -217t-89.5 -217.5t-236.5 -82.5h-230z" />
    <glyph glyph-name="E" unicode="E" horiz-adv-x="463" 
d="M291 172h-11v46q0 54 -23.5 71.5t-66.5 17.5h-34v-252q0 -40 23 -40h121q59 0 88.5 27.5t34.5 85.5l6 66h13l-11 -186q-8 -8 -31 -8h-385v8h29q30 0 37 20.5t7 106.5v329q0 86 -7 106.5t-37 20.5h-29v8h344q24 0 31 -7l12 -187h-15l-4 58q-4 65 -35.5 93t-92.5 28h-117
v-1q18 -18 18 -43v-218h34q43 0 66.5 17t23.5 71v29h11v-267z" />
    <glyph glyph-name="F" unicode="F" horiz-adv-x="424" 
d="M15 0v8h29q30 0 37 20.5t7 106.5v329q0 86 -7 106.5t-37 20.5h-29v8h359q15 0 22 -7l12 -187h-15l-4 58q-4 62 -45 91.5t-105 29.5h-101v-1q18 -18 18 -43v-248h30q21 0 36.5 3t32.5 11t26 27t9 47v50h11v-276h-11v34q0 43 -27 66t-77 23h-30v-142q0 -86 7.5 -106.5
t37.5 -20.5h54v-8h-240z" />
    <glyph glyph-name="G" unicode="G" horiz-adv-x="584" 
d="M515 -33h-7v58q-1 16 -11 28.5t-23 12.5q-12 0 -24 -12q-58 -61 -148 -61q-123 0 -198.5 85t-75.5 224q0 126 83.5 215t201.5 89q29 0 71.5 -7.5t61.5 -7.5q12 0 36 4l11 -213h-15l-3 56q-4 70 -53.5 111.5t-116.5 41.5q-92 0 -148.5 -76t-56.5 -200q0 -127 60 -217
t145 -90q92 2 142 69v67q0 81 -12.5 100t-64.5 19h-95v15h248q-8 -26 -8 -83v-228z" />
    <glyph glyph-name="H" unicode="H" horiz-adv-x="542" 
d="M15 0v8h29q30 0 37 20.5t7 105.5v330q0 86 -7 106.5t-37 20.5h-29v8h208v-8h-22q-30 0 -37.5 -20.5t-7.5 -106.5v-141h229v138q0 88 -7.5 109t-37.5 21h-22v8h209v-8h-30q-30 0 -37 -21t-7 -109v-326q0 -86 7 -106.5t37 -20.5h30v-8h-209v8h23q30 0 37 20.5t7 106.5v173
h-229v-174q0 -85 7.5 -105.5t37.5 -20.5h22v-8h-208z" />
    <glyph glyph-name="I" unicode="I" horiz-adv-x="244" 
d="M15 0v8h29q30 0 37 20.5t7 106.5v331q0 84 -7 104.5t-37 20.5h-29v8h214v-10h-29q-30 0 -37 -20.5t-7 -104.5v-329q0 -86 7 -106.5t37 -20.5h29v-8h-214z" />
    <glyph glyph-name="J" unicode="J" horiz-adv-x="344" 
d="M42 599h291v-8h-21q-30 0 -37.5 -20.5t-7.5 -106.5v-333q0 -62 -38.5 -101t-97.5 -39q-48 0 -77.5 29t-29.5 76h8q0 -41 25 -62.5t71 -21.5q31 0 51 21.5t20 67.5v466q0 15 7 22v2h-25q-121 0 -132 -118l-5 -56h-13z" />
    <glyph glyph-name="K" unicode="K" horiz-adv-x="506" 
d="M15 0v8h29q30 0 37 21.5t7 112.5v322q0 86 -7 106.5t-37 20.5h-29v8h194v-8h-7q-31 0 -38.5 -20.5t-7.5 -106.5v-104q45 0 55 12l99 125l28 41q14 19 14 32q0 21 -39 21h-6v8h184v-8h-3q-61 0 -120 -59l-47 -46l-95 -119l1 -4q38 -8 66 -27t44 -39t27 -53t14.5 -55
t8.5 -60q3 -25 5 -38t7 -31t11 -27t16.5 -15.5t24.5 -6.5q20 0 40 16l11 9l4 -6l-10 -8q-39 -31 -68 -31q-24 0 -42 9.5t-28.5 22.5t-19 38t-12.5 43t-9 50q-6 37 -10.5 59t-16 52t-26 46.5t-39.5 28.5t-58 12h-11v-210q0 -91 7.5 -112.5t38.5 -21.5h29v-8h-216z" />
    <glyph glyph-name="L" unicode="L" horiz-adv-x="432" 
d="M15 0v8h29q30 0 37 21.5t7 111.5v324q0 86 -7 106t-37 20h-29v8h216v-8h-30q-30 0 -37.5 -20.5t-7.5 -105.5v-406q0 -25 -18 -43v-1h113q66 0 100.5 20t39.5 76l6 83h17l-13 -186q-8 -8 -23 -8h-363z" />
    <glyph glyph-name="M" unicode="M" horiz-adv-x="724" 
d="M8 0v8h8q36 0 46 24t10 118v398q0 26 -7.5 34.5t-33.5 8.5h-23v8h116l220 -452q13 -26 13 -36h5q0 11 12 36l215 452h128v-8h-25q-30 0 -38 -12.5t-8 -46.5v-382q0 -96 8.5 -119t44.5 -23h18v-8h-220v8h30q35 0 43 21.5t8 112.5v351q0 28 1 37h-6q0 -1 -2 -5.5
t-5.5 -12.5t-6.5 -16l-223 -470l-2 -6h-2l-2 6l-228 469q-11 22 -11 35h-3q1 -8 1 -28v-360q0 -89 10 -111.5t45 -22.5h26v-8h-162z" />
    <glyph glyph-name="N" unicode="N" horiz-adv-x="490" 
d="M15 0v8h17q26 0 37.5 26t11.5 101v413q0 30 -7.5 36.5t-37.5 6.5h-21v8h129l233 -420q15 -27 15 -31h5q-1 9 -1 35v266q0 78 -11 110t-38 32h-42v8h175v-8h-17q-28 0 -39 -27.5t-11 -114.5v-461h-9q0 6 -24 48l-262 469q-17 28 -17 33h-4q1 -9 1 -36v-367q0 -70 11 -98.5
t38 -28.5h17v-8h-149z" />
    <glyph glyph-name="O" unicode="O" horiz-adv-x="644" 
d="M322 -7q-133 0 -214.5 84.5t-81.5 222.5q0 127 86.5 216.5t209.5 89.5q133 0 214.5 -84t81.5 -222q0 -127 -87 -217t-209 -90zM325 8q99 0 159.5 76t60.5 200q0 127 -66 217t-160 90q-99 0 -160 -76t-61 -200q0 -127 66.5 -217t160.5 -90z" />
    <glyph glyph-name="P" unicode="P" horiz-adv-x="483" 
d="M156 248h75q73 0 117 46.5t44 121.5q0 69 -47 118t-114 49h-89v-4q14 -18 14 -51v-280zM15 0v8h29q30 0 37 20.5t7 106.5v329q0 86 -7 106.5t-37 20.5h-29v8h238q94 0 151.5 -50t57.5 -133q0 -76 -61.5 -129.5t-147.5 -53.5h-97v-98q0 -86 7.5 -106.5t37.5 -20.5h21v-8
h-207z" />
    <glyph glyph-name="Q" unicode="Q" horiz-adv-x="653" 
d="M930 -68q-110 -121 -264 -121q-111 0 -285 70q-109 45 -211 45v13q38 0 118 36q264 123 264 346q0 111 -67 190.5t-161 79.5q-100 0 -161 -74t-61 -196q0 -96 48 -174t144 -120l-16 -9q-120 41 -184.5 122.5t-64.5 180.5q0 118 88 201.5t211 83.5q133 0 214.5 -78.5
t81.5 -206.5q0 -115 -91 -204.5t-231 -151.5l-60 -27q26 -1 105 -20t178.5 -37.5t176.5 -18.5q155 0 223 75z" />
    <glyph glyph-name="R" unicode="R" horiz-adv-x="521" 
d="M15 0v8h29q30 0 37 20.5t7 106.5v329q0 86 -7 106.5t-37 20.5h-29v8h216q102 0 164 -48.5t62 -128.5q0 -68 -55 -113.5t-132 -55.5l-21 -3v-5q28 -3 51 -15.5t42 -36t29 -40.5t27 -48q46 -86 80 -86q14 0 25 10l19 16l4 -6l-18 -16q-38 -32 -69 -32q-48 0 -98 84
q-67 112 -92.5 141.5t-60.5 29.5h-8v14h38q69 0 118 48t49 115t-47 114t-113 47h-83v-1q14 -14 14 -43v-405q0 -86 7.5 -106.5t37.5 -20.5h49v-8h-235z" />
    <glyph glyph-name="S" unicode="S" horiz-adv-x="398" 
d="M25 204l15 1l3 -47q5 -71 45.5 -110t101.5 -39q56 0 90.5 33t34.5 88q0 34 -20 63.5t-43 47t-64 41.5q-35 21 -55 35t-45.5 38t-37.5 52.5t-12 63.5q0 61 45.5 98t119.5 37q23 0 57 -4.5t49 -4.5q18 0 29 2l9 -173l-15 -1l-2 35q-2 54 -35.5 92.5t-91.5 38.5
q-51 0 -79 -26.5t-28 -75.5q0 -25 9.5 -45.5t31.5 -39.5t38.5 -30.5t48.5 -30.5q35 -21 56.5 -36t47 -40t38 -56t12.5 -68q0 -67 -51.5 -108t-134.5 -41q-25 0 -70 7t-59 7q-15 0 -29 -4z" />
    <glyph glyph-name="T" unicode="T" horiz-adv-x="448" 
d="M82 0v8h64q30 0 37 20.5t7 106.5v449h-27q-61 0 -95 -20t-38 -76l-3 -34l-15 1l10 144h405l9 -144l-15 -1l-3 34q-4 56 -38 76t-95 20h-27v-449q0 -86 7 -106.5t37 -20.5h61v-8h-281z" />
    <glyph glyph-name="U" unicode="U" horiz-adv-x="487" 
d="M82 137v327q0 86 -7.5 106.5t-37.5 20.5h-22v8h216v-8h-37q-30 0 -37 -20.5t-7 -106.5v-349q0 -99 101 -99q67 0 101.5 31t34.5 90v312q0 78 -10.5 110t-36.5 32h-30v8h163v-8h-21q-26 0 -37 -32t-11 -110v-312q0 -70 -39.5 -107t-113.5 -37q-75 0 -122 40t-47 104z" />
    <glyph glyph-name="V" unicode="V" horiz-adv-x="553" 
d="M265 -3l-197 543q-12 32 -20 41.5t-28 9.5h-12v8h120v-11q0 -22 5 -36l165 -441q4 -8 4 -30h6q0 11 8 32l126 357l18 71q3 11 3 19q0 31 -45 31h-12v8h141v-8h-3q-30 0 -51 -51l-32 -75l-167 -468h-29z" />
    <glyph glyph-name="W" unicode="W" horiz-adv-x="844" 
d="M386 540q-7 21 -12 31t-13.5 15t-23.5 5h-7v8h191v-8h-54q-18 0 -18 -25q0 -7 2 -14l131 -440q6 -20 6 -30h9q0 12 8 33l126 355l17 71q3 11 3 19q0 31 -45 31h-12v8h144v-8h-4q-29 0 -50 -51l-32 -75l-170 -468h-34l-124 416l-123 -416h-36l-197 543q-9 24 -13 32
t-12 13.5t-23 5.5h-12v8h120v-11q0 -22 5 -36l164 -440q4 -8 4 -30h7q0 2 9 33l97 330z" />
    <glyph glyph-name="X" unicode="X" horiz-adv-x="478" 
d="M143 129l-27 -62q-11 -26 -11 -36q0 -24 36 -24h19v-7h-145v7q40 0 78 65l36 62l82 161l-108 232q-18 38 -32.5 51t-32.5 13h-9v8h143v-8h-45v-2q9 -3 22 -16.5t20 -28.5l92 -197l67 124l27 61q11 23 11 36q0 23 -36 23h-19v8h139v-8h-3q-19 0 -32.5 -13t-36.5 -51
l-36 -62l-73 -135l120 -258q19 -40 30 -52t31 -12h14v-8h-193v8h17q45 0 45 20q0 5 -16 41l-98 209z" />
    <glyph glyph-name="Y" unicode="Y" horiz-adv-x="479" 
d="M96 0v8h71q30 0 37 20.5t7 106.5v149l-130 250q-17 32 -27.5 44.5t-27.5 12.5h-18v8h158v-8h-52v-2q13 -5 34 -45l108 -205q9 -19 11 -27h5q2 8 11 27l69 133l27 60q11 24 11 37q0 22 -36 22h-44v8h161v-8h-4q-16 0 -29.5 -13t-32.5 -45l-40 -68l-86 -168v-162
q0 -86 7 -106.5t37 -20.5h60v-8h-287z" />
    <glyph glyph-name="Z" unicode="Z" horiz-adv-x="437" 
d="M4 0v8q11 0 28 16t32 48l218 459q8 19 25.5 33t32.5 18v2h-128q-148 0 -158 -96l-2 -17l-9 1l6 118q8 9 24 9h337v-7q-9 0 -26 -16.5t-32 -48.5l-218 -457q-18 -37 -40 -52v-3h149q64 0 107.5 22.5t47.5 68.5l3 30h11l-7 -127q-9 -9 -22 -9h-379z" />
    <glyph glyph-name="bracketleft" unicode="[" horiz-adv-x="182" 
d="M26 -194v4q3 26 3 69v805h147v-15h-96v-1q14 -14 14 -43v-759q0 -29 -14 -43v-2h96v-15h-150z" />
    <glyph glyph-name="backslash" unicode="\" horiz-adv-x="468" 
d="M452 -189l-22 -11l-415 880l22 11z" />
    <glyph glyph-name="bracketright" unicode="]" horiz-adv-x="182" 
d="M6 -194v15h96v2q-14 14 -14 43v759q0 29 14 43v1h-96v15h147v-805q0 -43 3 -69v-4h-150z" />
    <glyph glyph-name="asciicircum" unicode="^" horiz-adv-x="310" 
d="M24 540l130 127h2l130 -127l-27 -28l-67 77q-32 37 -36 64h-2q-4 -27 -36 -64l-67 -77z" />
    <glyph glyph-name="underscore" unicode="_" horiz-adv-x="340" 
d="M340 -118h-340v22h340v-22z" />
    <glyph glyph-name="grave" unicode="`" horiz-adv-x="147" 
d="M130 539l-102 84l-20 25l19 16q4 3 9 3q4 0 8 -4l95 -115z" />
    <glyph glyph-name="a" unicode="a" horiz-adv-x="459" 
d="M31 97q0 68 55 104t160 36h70v136q0 109 -99 109q-59 0 -92 -31.5t-36 -82.5l-4 -50h-15l9 173q12 -3 24 -3q11 0 48.5 5t64.5 5q81 0 124 -35t43 -101v-315q0 -28 23 -28q24 0 24 29v13h8v-13q0 -22 -15.5 -37t-37.5 -15q-19 0 -32.5 14t-14.5 35l-5 83h-8
q-15 -71 -57 -103t-93 -32q-67 0 -105.5 28.5t-38.5 75.5zM98 97q0 -37 25 -59t62 -22q52 0 91.5 44t39.5 128v34h-66q-74 0 -113 -32t-39 -93z" />
    <glyph glyph-name="b" unicode="b" horiz-adv-x="570" 
d="M127 212q0 -93 49 -144.5t116 -51.5q78 0 125.5 59t47.5 155q0 108 -46.5 174.5t-122.5 66.5q-53 0 -97.5 -28t-71.5 -84v-147zM62 651q0 25 -25 25h-39v7h47q14 0 26.5 2.5t23.5 7.5t18 14t7 21v3h7v-338q61 105 181 105q102 0 165 -69.5t63 -183.5q0 -104 -67 -178
t-161 -74q-60 0 -109 30.5t-69 86.5q-10 27 -25 27q-8 0 -15 -10.5t-12.5 -37t-7.5 -66.5l-1 -25l-11 -3l4 103v553z" />
    <glyph glyph-name="c" unicode="c" horiz-adv-x="531" 
d="M34 248q0 104 78 177t188 73q31 0 76 -8t63 -8q11 0 33 5l6 -204h-15l-2 67q-2 57 -53 95t-115 38q-83 0 -134.5 -61t-51.5 -161q0 -115 61.5 -179.5t145.5 -64.5q55 0 101.5 26t72.5 79l14 -5q-24 -60 -78 -92t-123 -32q-120 0 -193.5 70.5t-73.5 184.5z" />
    <glyph glyph-name="d" unicode="d" horiz-adv-x="580" 
d="M105 261q0 -108 46.5 -174.5t122.5 -66.5q53 0 97.5 29.5t71.5 88.5v142q0 93 -48.5 144t-115.5 51q-78 0 -126 -59t-48 -155zM34 246q0 104 67 178t161 74q61 0 110 -30.5t68 -86.5l3 -9v279q0 25 -24 25h-40v7h48q30 0 52 11t22 34v3h7v-684q0 -28 23 -28q10 0 17 7.5
t7 21.5v13h8v-13q0 -22 -15 -37t-37 -15q-19 0 -32.5 14t-14.5 35l-4 84h-2q-59 -136 -196 -136q-102 0 -165 69.5t-63 183.5z" />
    <glyph glyph-name="e" unicode="e" horiz-adv-x="516" 
d="M34 248q0 51 20 97t54 79.5t81 53.5t99 20q88 0 141 -45.5t53 -121.5q0 -16 -7.5 -25.5t-20.5 -9.5h-346q-3 -25 -3 -52q0 -98 54.5 -162.5t143.5 -64.5q115 0 173 79l12 -9q-70 -94 -203 -94q-112 0 -181.5 70.5t-69.5 184.5zM111 311l288 6q14 0 14 15
q0 69 -35.5 109.5t-93.5 40.5q-67 0 -113 -46t-60 -125z" />
    <glyph glyph-name="f" unicode="f" horiz-adv-x="346" 
d="M15 0v8h35q23 0 30.5 9.5t7.5 34.5v408h-73v22h73q-18 54 -18 107q0 50 43.5 79.5t111.5 29.5q39 0 72 -11.5t43 -11.5v-133h-15v8q0 132 -100 132q-46 0 -75.5 -26t-29.5 -67q0 -50 32 -107h132v-22h-131v-429q0 -16 -6 -22v-1h70v-8h-202z" />
    <glyph glyph-name="g" unicode="g" horiz-adv-x="540" 
d="M107 352q0 -67 42.5 -115t102.5 -48q68 0 110 39.5t42 102.5t-45 107.5t-107 44.5q-65 0 -105 -36t-40 -95zM44 341q0 42 28 78.5t76 57.5t104 21q63 0 111.5 -19t75.5 -54q0 35 16 66.5t42 46.5l14 8q9 -13 9 -25q0 -22 -17 -31q-50 -29 -50 -72q0 -15 5 -27
q9 -24 9 -50q0 -71 -61 -119t-154 -48q-26 0 -50 3v-19q0 -46 26 -60.5t78 -14.5h22q35 0 65 -6t58.5 -20t45 -41t16.5 -64t-31.5 -70t-84 -52t-111.5 -19q-105 0 -174.5 39.5t-69.5 97.5q0 47 49 83t123 43q-29 32 -29 84v22q-68 14 -104.5 56t-36.5 105zM228 60
q-69 -4 -116.5 -36t-47.5 -76q0 -35 62 -58t160 -23q42 0 81 6.5t67.5 18t46 27t17.5 33.5q0 29 -33.5 49.5t-84.5 20.5q-103 0 -152 38z" />
    <glyph glyph-name="h" unicode="h" horiz-adv-x="526" 
d="M11 0v8h29q30 0 37 20.5t7 106.5v433q0 73 -4 90.5t-21 17.5h-39v7h48q30 0 52 11t22 34v3h7v-188q0 -96 -15 -216h6q4 28 13 54q18 53 59.5 85t93.5 32q67 0 103.5 -34t36.5 -92v-237q0 -86 7 -106.5t37 -20.5h30v-8h-212v8h29q30 0 37 20.5t7 106.5v214q0 126 -82 126
q-65 0 -107.5 -54t-42.5 -141v-145q0 -86 7.5 -106.5t37.5 -20.5h29v-8h-212z" />
    <glyph glyph-name="i" unicode="i" horiz-adv-x="241" 
d="M121 658q17 0 27 -9.5t10 -26.5t-10 -27.5t-27 -10.5t-27.5 10.5t-10.5 27.5q0 16 10.5 26t27.5 10zM88 134v319q0 14 -7.5 22t-19.5 8h-31v8h113q10 0 10 -10v-347q0 -85 7.5 -105.5t37.5 -20.5h30v-8h-213v8h29q30 0 37 20t7 106z" />
    <glyph glyph-name="j" unicode="j" horiz-adv-x="223" 
d="M121 658q17 0 27 -9.5t10 -26.5t-10 -27.5t-27 -10.5t-27.5 10.5t-10.5 27.5q0 16 10.5 26t27.5 10zM88 453q0 14 -7.5 22t-19.5 8h-31v8h113q10 0 10 -10v-529q0 -63 -37 -102t-94 -39q-48 0 -77.5 28.5t-29.5 75.5h7q0 -40 27.5 -64.5t72.5 -24.5q66 0 66 88v539z" />
    <glyph glyph-name="k" unicode="k" horiz-adv-x="506" 
d="M84 134v517q0 25 -25 25h-39v7h48q68 0 78 40l2 8h6l-5 -143v-320q45 0 55 12l95 108l31 41q14 19 14 32q0 22 -40 22h-4v8h184v-8h-7q-61 0 -120 -59l-47 -46l-90 -103v-3q46 -10 76 -27t45 -40t21 -42.5t10 -48.5q7 -54 21.5 -78.5t49.5 -24.5q21 0 41 16l11 9l4 -6
l-10 -8q-39 -31 -68 -31q-56 0 -82 33.5t-38 103.5q-5 32 -10.5 49.5t-20 40t-42 33t-68.5 10.5h-11v-127q0 -85 7.5 -105.5t37.5 -20.5h29v-8h-212v8h29q30 0 37 20t7 106z" />
    <glyph glyph-name="l" unicode="l" horiz-adv-x="241" 
d="M14 0v8h29q30 0 37.5 20.5t7.5 105.5v517q0 25 -25 25h-39v7h48q30 0 52.5 11t22.5 34v3h6v-597q0 -85 7.5 -105.5t37.5 -20.5h30v-8h-214z" />
    <glyph glyph-name="m" unicode="m" horiz-adv-x="743" 
d="M15 0v8h29q21 0 29.5 8.5t11.5 33t3 85.5v307q0 15 -6.5 22.5t-16.5 7.5t-17 -8t-7 -22v-31h-8v31q0 25 16.5 38.5t39.5 13.5q21 0 34.5 -11.5t13.5 -32.5v-36q0 -60 -2 -76h7q3 28 14 57q40 103 132 103q110 0 110 -110v-50h4q1 19 8.5 44.5t11.5 32.5q44 83 124 83
q56 0 90 -29t34 -82v-252q0 -86 7.5 -106.5t37.5 -20.5h22v-8h-185v8h8q30 0 37.5 20.5t7.5 106.5v236q0 49 -18.5 76.5t-48.5 27.5q-57 0 -91.5 -51t-34.5 -133v-156q0 -86 7.5 -106.5t37.5 -20.5h21v-8h-184v8h8q30 0 37.5 20.5t7.5 106.5v236q0 49 -18.5 76.5t-48.5 27.5
q-57 0 -92 -51.5t-35 -132.5v-156q0 -86 7.5 -106.5t37.5 -20.5h30v-8h-213z" />
    <glyph glyph-name="n" unicode="n" horiz-adv-x="522" 
d="M15 0v8h29q21 0 29.5 8.5t11.5 33t3 85.5v307q0 15 -6.5 22.5t-16.5 7.5t-17 -8t-7 -22v-31h-8v31q0 25 16.5 38.5t39.5 13.5q21 0 36 -11.5t15 -32.5v-36q0 -71 -2 -87h6q3 24 14 54q18 53 59 85t93 32q67 0 103.5 -34t36.5 -92v-237q0 -86 7 -106.5t37 -20.5h22v-8
h-204v8h29q30 0 37 20.5t7 106.5v214q0 126 -82 126q-65 0 -107.5 -54t-42.5 -141v-145q0 -86 7.5 -106.5t37.5 -20.5h30v-8h-213z" />
    <glyph glyph-name="o" unicode="o" horiz-adv-x="604" 
d="M302 -7q-121 0 -194.5 69.5t-73.5 183.5q0 104 79 178t189 74q120 0 194 -69.5t74 -182.5q0 -104 -78.5 -178.5t-189.5 -74.5zM304 8q87 0 141 62t54 162q0 103 -59 176.5t-142 73.5q-87 0 -140 -61t-53 -162q0 -104 58 -177.5t141 -73.5z" />
    <glyph glyph-name="p" unicode="p" horiz-adv-x="596" 
d="M88 442q0 15 -6.5 22.5t-16.5 7.5t-17 -8t-7 -22v-31h-8v31q0 25 16.5 38.5t39.5 13.5q21 0 36 -11.5t15 -32.5v-36q0 -71 -2 -87h6q3 24 14 54q19 56 67.5 86.5t108.5 30.5q73 0 126 -37.5t77.5 -94t24.5 -121.5q0 -102 -60 -177t-168 -75q-60 0 -108 30.5t-68 86.5
l-5 16v-174q0 -86 7.5 -107t37.5 -21h30v-7h-213v7h29q30 0 37 20.5t7 107.5v490zM153 211q0 -93 49 -144t116 -51q83 0 128 61t45 153q0 60 -18.5 114.5t-59 92.5t-95.5 38q-67 0 -116 -51t-49 -144v-69z" />
    <glyph glyph-name="q" unicode="q" horiz-adv-x="572" 
d="M34 246q0 104 67 178t161 74q87 0 144 -58q17 -17 30 -38t19.5 -31t12.5 -10q13 0 21 19.5t8 60.5v55h12v-635q0 -28 23 -28q10 0 17 7.5t7 21.5v60h8v-60q0 -24 -18.5 -37.5t-43.5 -13.5h-45q-6 0 -10 4.5t-4 10.5v272q-61 -105 -181 -105q-102 0 -165 69.5t-63 183.5z
M105 261q0 -108 46.5 -174.5t122.5 -66.5q53 0 97.5 28t71.5 84v146q0 93 -48.5 145t-115.5 52q-78 0 -126 -59t-48 -155z" />
    <glyph glyph-name="r" unicode="r" horiz-adv-x="371" 
d="M15 0v8h29q30 0 37 20.5t7 106.5v318q0 14 -7.5 22t-19.5 8h-31v8h101q15 0 15 -15v-62q0 -55 -7 -76v-2h7q16 77 56.5 119.5t94.5 42.5q71 0 71 -47q0 -18 -12 -31t-29 -13q-18 0 -30.5 12.5t-12.5 30.5q0 16 10 26v1q-63 0 -102 -64.5t-39 -169.5v-109
q0 -86 7.5 -106.5t37.5 -20.5h53v-7h-236z" />
    <glyph glyph-name="s" unicode="s" horiz-adv-x="423" 
d="M203 -7q-32 0 -73 8.5t-54 8.5q-12 0 -29 -5l-10 203h15l3 -58q3 -67 45 -104.5t103 -37.5q55 0 89.5 31.5t34.5 82.5q0 25 -19.5 46t-41.5 32.5t-62 27.5q-36 15 -56.5 25t-47 27.5t-39 40t-12.5 50.5q0 59 46.5 93t121.5 34q34 0 67 -5.5t39 -5.5q13 0 28 4l8 -173h-15
l-2 34q-3 52 -35.5 91t-89.5 39q-110 0 -110 -93q0 -14 7.5 -26.5t17 -21.5t28.5 -19t32 -15.5t37 -15.5q36 -15 58.5 -26t49.5 -30t40 -43.5t13 -55.5q0 -64 -51.5 -103.5t-135.5 -39.5z" />
    <glyph glyph-name="t" unicode="t" horiz-adv-x="382" 
d="M108 122v341h-100v21h48q34 0 59 27t33.5 53t8.5 42v93h15v-172q0 -31 -10 -35v-1h197l-5 -28h-182v-355q0 -41 19 -66t50 -25q41 0 64 26.5t23 71.5v25h15v-25q0 -55 -29.5 -88.5t-77.5 -33.5q-58 0 -93 35.5t-35 93.5z" />
    <glyph glyph-name="u" unicode="u" horiz-adv-x="514" 
d="M75 119v334q0 14 -7.5 22t-19.5 8h-31v8h108q15 0 15 -15v-349q0 -57 22.5 -88t59.5 -31q67 0 108 58.5t41 154.5v218q0 30 -7.5 37t-37.5 7h-15v8l131 3v-6q-4 -30 -4 -45v-396q0 -28 23 -28q24 0 24 29v13h8v-13q0 -23 -17 -37.5t-39 -14.5q-20 0 -34.5 13t-14.5 36
v118h-7q-13 -86 -58 -128t-108 -42t-101.5 33t-38.5 93z" />
    <glyph glyph-name="v" unicode="v" horiz-adv-x="509" 
d="M245 -4l-176 436q-12 31 -20.5 41t-28.5 10h-12v8h164v-8h-64v-1q11 -4 26 -39l138 -330q6 -18 6 -30h11q0 11 9 33l99 247l18 70q3 11 3 19q0 31 -45 31h-39v8h168v-8h-3q-29 0 -51 -51l-32 -74l-146 -362h-25z" />
    <glyph glyph-name="w" unicode="w" horiz-adv-x="755" 
d="M233 -4l-165 436q-12 32 -20 41.5t-28 9.5h-12v8h120v-12q0 -23 5 -36l127 -321q5 -13 5 -34h9q0 6 7 30l89 294l-6 20q-9 31 -18 41t-31 10h-19v8h191v-8h-42q-19 0 -19 -23q0 -8 3 -17l98 -325q5 -18 5 -30h9q0 5 10 32l94 245l16 68q3 12 3 20q0 30 -44 30h-15v8h143
v-8h-5q-18 0 -28 -11.5t-22 -39.5l-31 -71l-139 -364l-28 -1l-115 384l-116 -384h-31z" />
    <glyph glyph-name="x" unicode="x" horiz-adv-x="453" 
d="M6 0v8h5q43 0 85 64l40 62l63 109l-95 175q-20 37 -35.5 51t-33.5 14h-12v8h148v-8h-44v-1q9 -3 21.5 -17t20.5 -29l79 -148l46 75l33 60q11 19 11 37q0 23 -36 23h-16v8h147v-8h-10q-18 0 -32.5 -13.5t-40.5 -51.5l-42 -61l-51 -85l107 -200q20 -38 34 -51t35 -13h14v-8
h-200v8h17q44 0 44 20q0 5 -16 41l-85 158l-57 -99l-32 -60q-10 -19 -10 -37q0 -23 35 -23h20v-8h-157z" />
    <glyph glyph-name="y" unicode="y" horiz-adv-x="492" 
d="M241 -5q5 12 5 24t-5 23l-169 390q-13 31 -21.5 41t-28.5 10h-13v8h161v-8h-59v-1q11 -4 27 -40l134 -306q6 -14 6 -35v-2h3l104 265l20 68q4 14 4 24q0 27 -41 27h-28v8h145v-7q-17 0 -27 -11.5t-23 -41.5l-32 -72l-177 -449q-17 -44 -46.5 -71.5t-64.5 -27.5
q-26 0 -44.5 23t-18.5 55q41 -19 70 -19q69 0 94 62z" />
    <glyph glyph-name="z" unicode="z" horiz-adv-x="416" 
d="M0 0v8q23 0 60 64l200 350q24 43 56 51v3h-124q-63 0 -95.5 -22t-38.5 -75l-2 -16h-11l6 120q6 8 22 8h316v-8q-7 0 -23.5 -18t-33.5 -47l-200 -348q-24 -41 -40 -52v-3h147q131 0 139 91l2 30h12l-8 -128q-2 -8 -20 -8h-364z" />
    <glyph glyph-name="braceleft" unicode="{" horiz-adv-x="229" 
d="M31 244l7 -2q21 -12 41.5 -27t43 -40.5t22.5 -45.5q0 -16 -19 -113.5t-19 -123.5q0 -32 18.5 -51.5t52.5 -19.5h44v-15h-74q-41 0 -67.5 32.5t-26.5 85.5q0 24 17 111t17 108q0 30 -20 51.5t-64 49.5v2q44 28 64 49.5t20 51.5q0 21 -17 108t-17 111q0 53 26.5 85.5
t67.5 32.5h74v-15h-44q-34 0 -52.5 -19.5t-18.5 -51.5q0 -26 19 -123.5t19 -113.5q0 -29 -35 -60t-72 -53l-7 -2v-2z" />
    <glyph glyph-name="bar" unicode="|" horiz-adv-x="125" 
d="M44 651h38v-843h-38v843z" />
    <glyph glyph-name="braceright" unicode="}" horiz-adv-x="229" 
d="M198 244v2l-7 2q-21 12 -41.5 27t-43 40.5t-22.5 45.5q0 16 19 113.5t19 123.5q0 32 -18.5 51.5t-52.5 19.5h-44v15h74q41 0 67.5 -32.5t26.5 -85.5q0 -24 -17 -111t-17 -108q0 -30 20 -51.5t64 -49.5v-2q-44 -28 -64 -49.5t-20 -51.5q0 -21 17 -108t17 -111
q0 -53 -26.5 -85.5t-67.5 -32.5h-74v15h44q34 0 52.5 19.5t18.5 51.5q0 26 -19 123.5t-19 113.5q0 29 35 60t72 53z" />
    <glyph glyph-name="asciitilde" unicode="~" horiz-adv-x="384" 
d="M364 340l-10 -43q-14 -61 -65 -61q-36 0 -113.5 36t-100.5 36t-30 -29l-10 -44l-15 3l10 44q13 56 62 56q34 0 112.5 -35.5t102.5 -35.5q26 0 33 33l10 43z" />
    <glyph glyph-name="uni00A0" unicode="&#xa0;" horiz-adv-x="221" 
 />
    <glyph glyph-name="exclamdown" unicode="&#xa1;" horiz-adv-x="191" 
d="M133 -113q0 -2 -5 -5t-14 -5t-18 -2q-14 0 -25.5 3.5t-11.5 7.5q0 81 14.5 245t14.5 245h15q0 -81 15 -244.5t15 -244.5zM96 491q-17 0 -27 10.5t-10 27.5t10 27t27 10t27 -10t10 -27t-10 -27.5t-27 -10.5z" />
    <glyph glyph-name="cent" unicode="&#xa2;" horiz-adv-x="415" 
d="M239 -69h-15v154q-88 5 -141.5 63t-53.5 150q0 97 53.5 156.5t141.5 61.5v152h15v-152q32 -2 65 -14t36 -12q7 0 16 2l7 -139l-14 -1l-2 37q-3 48 -35 78t-73 33v-398q50 0 82 22t57 63l13 -8q-18 -29 -36.5 -48t-48.5 -32.5t-67 -13.5v-154zM224 501q-43 -2 -72 -24
t-44 -64.5t-15 -103.5q0 -64 15 -109t44 -69.5t72 -27.5v398z" />
    <glyph glyph-name="sterling" unicode="&#xa3;" horiz-adv-x="454" 
d="M200 312h126v-23h-138v-1q12 -5 12 -27q0 -116 -19 -179q23 -6 70 -19t75.5 -20t40.5 -7q37 0 46 42l16 82l9 -2l-21 -113q-12 -61 -65 -61q-18 0 -46 11t-74 33.5t-60 29.5q-31 -73 -82 -73q-21 0 -35.5 15.5t-14.5 39.5q0 23 16 38t50 15q16 0 25 -1q10 61 10 181v16
h-83v23h83v143q0 45 16 79t46 53t70 19q22 0 58 -7.5t47 -7.5q9 0 15 2l4 -172h-16l-2 53q-4 109 -106 109q-73 0 -73 -118v-153zM128 74q-16 4 -32 4t-28.5 -12t-12.5 -26q0 -15 8.5 -24.5t22.5 -9.5q27 0 42 68z" />
    <glyph glyph-name="currency" unicode="&#xa4;" horiz-adv-x="280" 
d="M82 319q-22 -22 -22 -57q0 -33 22 -55q25 -25 57 -25t57 25q23 23 23 55q0 34 -23 57t-57 23t-57 -23zM78 344q29 21 61 21q37 0 65 -23l35 35l15 -17l-34 -34q22 -28 22 -64q0 -32 -21 -61l32 -33l-16 -14l-31 31q-27 -24 -67 -24q-35 0 -62 21l-34 -32l-14 17l31 31
q-22 26 -22 64q0 40 24 67l-35 35l16 14z" />
    <glyph glyph-name="yen" unicode="&#xa5;" horiz-adv-x="479" 
d="M96 0v8h71q30 0 37 20.5t7 106.5v25h-109l4 14h105v69h-109l4 15h105v26l-130 250q-17 32 -27.5 44.5t-27.5 12.5h-18v8h158v-8h-52v-2q13 -5 34 -45l108 -205q9 -19 11 -27h5q2 8 11 27l69 133l27 60q11 24 11 37q0 22 -36 22h-44v8h161v-8h-4q-16 0 -29.5 -13
t-32.5 -45l-40 -68l-86 -168v-39h108l-2 -15h-106v-69h108l-2 -14h-106v-25q0 -86 7 -106.5t37 -20.5h60v-8h-287z" />
    <glyph glyph-name="brokenbar" unicode="&#xa6;" horiz-adv-x="125" 
d="M44 311v340h38v-340h-38zM82 148v-340h-38v340h38z" />
    <glyph glyph-name="section" unicode="&#xa7;" horiz-adv-x="473" 
d="M223 -156q125 0 125 118q0 14 -4 26.5t-14 23.5t-17.5 18t-25 17t-26 14t-31 14t-29.5 13q-81 36 -109 60q-63 50 -63 132q0 36 21 74t46 55q-22 32 -22 71q0 60 46 97t121 37q34 0 67 -5.5t39 -5.5q13 0 28 4l8 -173h-15l-2 34q-3 53 -35.5 91.5t-89.5 38.5
q-56 0 -85.5 -27.5t-29.5 -80.5q0 -14 3.5 -26.5t14 -23.5t17 -18t26 -17.5l26 -14t31 -14.5t29.5 -13q80 -36 107 -58q64 -50 64 -133q0 -36 -20.5 -74.5t-45.5 -55.5q22 -32 22 -71q0 -64 -48.5 -103.5t-128.5 -39.5q-34 0 -67 5.5t-39 5.5q-13 0 -28 -4l-8 173h15l2 -34
q3 -52 35.5 -91t89.5 -39zM109 392q-35 -36 -35 -105q0 -19 4.5 -35t15 -29t19.5 -22.5t27 -19t27 -14t30.5 -13.5t27.5 -12q107 -47 140 -83q34 35 34 105q0 19 -4.5 35t-15 29.5t-19 22.5t-26.5 18.5t-27 14t-30.5 13.5t-27.5 12q-107 47 -140 83z" />
    <glyph glyph-name="dieresis" unicode="&#xa8;" horiz-adv-x="302" 
d="M69 644q17 0 27.5 -10t10.5 -27t-10.5 -27t-27.5 -10t-26.5 10t-9.5 27t9.5 27t26.5 10zM233 644q17 0 26.5 -10t9.5 -27t-9.5 -27t-26.5 -10t-27.5 10t-10.5 27t10.5 27t27.5 10z" />
    <glyph glyph-name="copyright" unicode="&#xa9;" horiz-adv-x="446" 
d="M224 229q-83 0 -142.5 55t-59.5 134q0 76 57.5 132t144.5 56q82 0 141.5 -53.5t59.5 -134.5q0 -82 -60 -135.5t-141 -53.5zM224 244q82 0 134.5 52.5t52.5 121.5q0 74 -55.5 123.5t-131.5 49.5q-78 0 -132.5 -50.5t-54.5 -122.5q0 -69 52 -121.5t135 -52.5zM311 361
q-25 -46 -78 -46q-44 0 -72 28.5t-28 74.5t26.5 75t68.5 29q14 0 31.5 -2.5t23.5 -2.5q5 0 11 1l5 -66h-10l-1 8q-3 25 -20 38t-40 13q-62 0 -62 -89q0 -96 70 -96q43 0 65 39z" />
    <glyph glyph-name="ordfeminine" unicode="&#xaa;" horiz-adv-x="378" 
d="M25 383q0 50 47.5 80t130.5 30h59v28q0 93 -75 93q-51 0 -79.5 -25t-30.5 -68h-14l6 102q10 -2 20 -2q9 0 25 2t35 4t37 2q63 0 96 -30.5t33 -88.5v-166q0 -28 23 -28q9 0 15.5 8t6.5 19v13h8v-13q0 -21 -14.5 -35.5t-35.5 -14.5q-18 0 -28.5 10.5t-10.5 28.5l-4 83h-5
q-15 -63 -51.5 -92.5t-81.5 -29.5q-54 0 -83 24t-29 66zM84 383q0 -70 62 -70q44 0 80 40.5t36 114.5v10h-54q-64 0 -94 -23t-30 -72z" />
    <glyph glyph-name="guillemotleft" unicode="&#xab;" horiz-adv-x="376" 
d="M167 244v2l150 154l29 -30l-94 -84q-42 -37 -59 -40v-2q18 -3 59 -40l94 -84l-29 -30zM30 244v2l150 154l29 -30l-94 -84q-42 -37 -59 -40v-2q18 -3 59 -40l94 -84l-29 -30z" />
    <glyph glyph-name="logicalnot" unicode="&#xac;" horiz-adv-x="310" 
d="M288 273v-167l-21 2v144h-245l1 21h265z" />
    <glyph glyph-name="uni00AD" unicode="&#xad;" horiz-adv-x="237" 
d="M218 252h-203l3 23h204z" />
    <glyph glyph-name="registered" unicode="&#xae;" horiz-adv-x="446" 
d="M183 526v-1q7 -7 7 -19v-91h27q60 0 60 56q0 55 -60 55h-34zM135 535h78q42 0 68 -17.5t26 -46.5q0 -24 -18 -42t-51 -22v-2q26 -5 52 -55q14 -27 25 -27q6 0 15 2l1 -6q-21 -7 -33 -7q-19 0 -35 30q-19 36 -33 50t-31 14h-9v-40q0 -30 3.5 -37t16.5 -7h3v-6h-81v6h11
q13 0 16.5 7t3.5 37v118q0 30 -3.5 37t-16.5 7h-8v7zM224 591q-51 0 -94 -23t-68 -63t-25 -87q0 -69 52.5 -121.5t134.5 -52.5q80 0 133.5 52t53.5 122q0 72 -55 122.5t-132 50.5zM224 606q82 0 141.5 -53.5t59.5 -134.5q0 -82 -60 -135.5t-141 -53.5q-83 0 -142.5 55
t-59.5 134q0 76 57.5 132t144.5 56z" />
    <glyph glyph-name="macron" unicode="&#xaf;" horiz-adv-x="302" 
d="M264 597h-227l2 21h227z" />
    <glyph glyph-name="degree" unicode="&#xb0;" horiz-adv-x="191" 
d="M88 622q-36 0 -36 -60q0 -59 36 -59q38 0 38 59q0 60 -38 60zM88 636q26 0 51 -23q23 -22 23 -51t-23 -51q-25 -23 -51 -23q-24 0 -50 24q-23 22 -23 50q0 29 23 51q25 23 50 23z" />
    <glyph glyph-name="plusminus" unicode="&#xb1;" horiz-adv-x="376" 
d="M201 348h148l-1 -22h-147v-146l-22 2v144h-150l2 22h148v151l22 -1v-150zM342 96h-310l3 22h311z" />
    <glyph glyph-name="two.sups" unicode="&#xb2;" horiz-adv-x="314" 
d="M60 597h-15v86q4 0 8 2q39 31 95 31q59 0 94.5 -27.5t35.5 -72.5q0 -25 -22.5 -61.5t-57.5 -66.5l-111 -98q-9 -7 -24 -12l2 -6q10 2 37 2h137q43 0 47 44l3 41l9 -1l-10 -123h-259v36q24 3 53 35l90 97q61 65 61 119q0 38 -21.5 59t-61.5 21t-62 -21.5t-28 -52.5v-31z
" />
    <glyph glyph-name="three.sups" unicode="&#xb3;" horiz-adv-x="315" 
d="M138 324q-66 2 -112 42v83h14v-31q8 -34 32.5 -57t65.5 -23q48 0 73.5 26t25.5 74q0 50 -23.5 78t-67.5 28h-49v12h39q38 0 59 20.5t21 55.5q0 33 -20 51.5t-57 18.5q-29 0 -46.5 -12t-23 -25.5t-10.5 -36.5v-18h-14v83q3 -1 5 -1q7 0 18 6q34 18 70 18q54 0 87 -23
t33 -60q0 -30 -22.5 -52.5t-54.5 -28.5v-1q47 -6 76 -37.5t29 -75.5q0 -51 -41 -82.5t-107 -31.5z" />
    <glyph glyph-name="acute" unicode="&#xb4;" horiz-adv-x="147" 
d="M17 539l-9 9l95 115q4 4 8 4q5 0 9 -3l19 -16l-20 -25z" />
    <glyph glyph-name="uni00B5" unicode="&#xb5;" horiz-adv-x="514" 
d="M75 453q0 14 -7.5 22t-19.5 8h-31v8h108q15 0 15 -15v-349q0 -57 22.5 -88t59.5 -31q67 0 108 58.5t41 154.5v218q0 30 -7.5 37t-37.5 7h-15v8l131 3v-6q-4 -30 -4 -45v-396q0 -28 23 -28q24 0 24 29v13h8v-13q0 -23 -17 -37.5t-39 -14.5q-20 0 -34.5 13t-14.5 36v118h-7
q-13 -86 -58 -128t-108 -42q-91 0 -125 62l-3 -2q2 -4 2 -19v-111q0 -24 23 -24q15 0 25.5 -11t10.5 -26t-11 -25.5t-26 -10.5t-25.5 10.5t-10.5 25.5v591z" />
    <glyph glyph-name="paragraph" unicode="&#xb6;" horiz-adv-x="428" 
d="M296 -158v640q0 67 -7 83.5t-37 16.5t-37 -16.5t-7 -83.5v-640h-120v7q41 0 50.5 16.5t9.5 84.5v418h-18q-47 0 -81 33.5t-34 80.5q0 48 34 82t81 34h284v-7q-40 0 -49.5 -16.5t-9.5 -83.5v-541q0 -68 9.5 -84.5t49.5 -16.5v-7h-118zM148 583h-18q-41 0 -70.5 -29.5
t-29.5 -71.5q0 -41 29.5 -70.5t70.5 -29.5h18v201z" />
    <glyph glyph-name="periodcentered" unicode="&#xb7;" horiz-adv-x="162" 
d="M82 229q16 0 26 -10.5t10 -27.5t-9.5 -27t-26.5 -10t-27.5 10t-10.5 27t10.5 27.5t27.5 10.5z" />
    <glyph glyph-name="cedilla" unicode="&#xb8;" horiz-adv-x="310" 
d="M136 1l-11 -53q16 6 28 6q34 0 54 -18t20 -44q0 -35 -39 -58t-95 -23l3 15q37 0 63 21t26 52q0 17 -9 29t-24 12q-23 0 -34 -10l-11 2l14 70z" />
    <glyph glyph-name="one.sups" unicode="&#xb9;" horiz-adv-x="174" 
d="M15 335v8h17q24 0 30 6t6 29v240q0 24 2 32l-3 1q-5 -7 -16 -17l-26 -24l-6 5q25 25 45 50t28.5 38t8.5 16h11v-341q0 -23 6 -29t30 -6h12v-8h-145z" />
    <glyph glyph-name="ordmasculine" unicode="&#xba;" horiz-adv-x="359" 
d="M282 439q0 175 -104 175q-48 0 -74 -32.5t-26 -94.5q0 -85 27 -130t77 -45q49 0 74.5 32.5t25.5 94.5zM330 463q0 -75 -41 -120t-109 -45t-109.5 45t-41.5 120t41.5 120.5t109.5 45.5t109 -45.5t41 -120.5z" />
    <glyph glyph-name="guillemotright" unicode="&#xbb;" horiz-adv-x="376" 
d="M209 244l-150 -154l-29 30l94 84q41 37 59 40v2q-17 3 -59 40l-94 84l29 30l150 -154v-2zM346 244l-150 -154l-29 30l94 84q41 37 59 40v2q-17 3 -59 40l-94 84l29 30l150 -154v-2z" />
    <glyph glyph-name="questiondown" unicode="&#xbf;" horiz-adv-x="335" 
d="M27 9q0 38 28 81.5t61 76t61 73t28 73.5q0 21 -9 32.5t-21 11.5q-10 0 -16.5 -7.5t-6.5 -21.5v-13h-8v13q0 22 11.5 35t28.5 13q19 0 33.5 -17.5t14.5 -49.5q0 -39 -35.5 -96t-71 -112.5t-35.5 -91.5q0 -55 26 -85.5t75 -30.5q50 0 76.5 28t26.5 81v39h15v-158
q-13 2 -21 2q-13 0 -50 -5t-46 -5q-74 0 -119.5 37t-45.5 97zM185 491q-17 0 -27 10.5t-10 27.5t10 27t27 10t27 -10t10 -27q0 -16 -10.5 -27t-26.5 -11z" />
    <glyph glyph-name="Agrave" unicode="&#xc0;" horiz-adv-x="590" 
d="M333 631l-102 84l-20 25l19 16q4 3 9 3q4 0 8 -4l95 -115zM7 0v8q29 0 54 51l37 75l184 424q14 32 15 45h17l213 -544q13 -32 21 -41.5t28 -9.5h6v-8h-163v8h19q28 0 28 22q0 8 -4 18l-51 131h-179l-96 -2l-21 -49l-23 -69q-4 -11 -4 -21q0 -30 40 -30h28v-8h-149z
M144 197l92 -3h169l-109 279q-8 23 -8 49h-5z" />
    <glyph glyph-name="Aacute" unicode="&#xc1;" horiz-adv-x="590" 
d="M261 631l-9 9l95 115q4 4 8 4q5 0 9 -3l19 -16l-20 -25zM7 0v8q29 0 54 51l37 75l184 424q14 32 15 45h17l213 -544q13 -32 21 -41.5t28 -9.5h6v-8h-163v8h19q28 0 28 22q0 8 -4 18l-51 131h-179l-96 -2l-21 -49l-23 -69q-4 -11 -4 -21q0 -30 40 -30h28v-8h-149zM144 197
l92 -3h169l-109 279q-8 23 -8 49h-5z" />
    <glyph glyph-name="Acircumflex" unicode="&#xc2;" horiz-adv-x="590" 
d="M309 758l88 -81l-16 -18l-41 42q-41 42 -41 48h-4q0 -6 -41 -48l-41 -42l-16 18l88 81h24zM7 0v8q29 0 54 51l37 75l184 424q14 32 15 45h17l213 -544q13 -32 21 -41.5t28 -9.5h6v-8h-163v8h19q28 0 28 22q0 8 -4 18l-51 131h-179l-96 -2l-21 -49l-23 -69q-4 -11 -4 -21
q0 -30 40 -30h28v-8h-149zM144 197l92 -3h169l-109 279q-8 23 -8 49h-5z" />
    <glyph glyph-name="Atilde" unicode="&#xc3;" horiz-adv-x="590" 
d="M408 718q-8 -33 -21.5 -45.5t-32.5 -12.5q-23 0 -69 30.5t-61 30.5q-19 0 -26 -28l-7 -26l-13 3l7 26q9 31 20.5 42.5t29.5 11.5q23 0 68.5 -30.5t61.5 -30.5q22 0 30 32l6 25l14 -3zM7 0v8q29 0 54 51l37 75l184 424q14 32 15 45h17l213 -544q13 -32 21 -41.5t28 -9.5h6
v-8h-163v8h19q28 0 28 22q0 8 -4 18l-51 131h-179l-96 -2l-21 -49l-23 -69q-4 -11 -4 -21q0 -30 40 -30h28v-8h-149zM144 197l92 -3h169l-109 279q-8 23 -8 49h-5z" />
    <glyph glyph-name="Adieresis" unicode="&#xc4;" horiz-adv-x="590" 
d="M215 736q17 0 27.5 -10t10.5 -27t-10.5 -27t-27.5 -10t-26.5 10t-9.5 27t9.5 27t26.5 10zM379 736q17 0 26.5 -10t9.5 -27t-9.5 -27t-26.5 -10t-27.5 10t-10.5 27t10.5 27t27.5 10zM7 0v8q29 0 54 51l37 75l184 424q14 32 15 45h17l213 -544q13 -32 21 -41.5t28 -9.5h6
v-8h-163v8h19q28 0 28 22q0 8 -4 18l-51 131h-179l-96 -2l-21 -49l-23 -69q-4 -11 -4 -21q0 -30 40 -30h28v-8h-149zM144 197l92 -3h169l-109 279q-8 23 -8 49h-5z" />
    <glyph glyph-name="Aring" unicode="&#xc5;" horiz-adv-x="590" 
d="M305 702q-19 0 -35.5 -15.5t-16.5 -35.5q0 -19 17 -35.5t35 -16.5q19 0 35.5 16t16.5 36t-16.5 35.5t-35.5 15.5zM7 0v8q29 0 54 51l37 75l193 445q-24 5 -41.5 26.5t-17.5 45.5q0 29 22.5 51.5t50.5 22.5t51 -22.5t23 -51.5q0 -24 -16.5 -44t-39.5 -27l204 -521
q13 -32 21 -41.5t28 -9.5h6v-8h-163v8h19q28 0 28 23q0 7 -4 17l-51 131h-179l-96 -2l-21 -49l-23 -69q-4 -11 -4 -21q0 -30 40 -30h28v-8h-149zM144 197l92 -3h169l-109 279q-8 23 -8 49h-5z" />
    <glyph glyph-name="AE" unicode="&#xc6;" horiz-adv-x="755" 
d="M273 555q6 14 6 22q0 12 -13 12v10h385q24 0 31 -7l12 -187h-15l-4 58q-4 65 -35.5 93t-92.5 28h-113v-1q18 -18 18 -43v-246h30q43 0 66.5 17t23.5 71v37h11v-267h-11v38q0 54 -23.5 71.5t-66.5 17.5h-30v-224q0 -40 23 -40h117q59 0 88.5 27.5t34.5 85.5l6 66h13
l-11 -186q-8 -8 -31 -8h-381v8h29q30 0 37 20.5t7 106.5v144h-136l-72 -1l-61 -150l-23 -69q-4 -11 -4 -21q0 -30 40 -30h28v-8h-149v8q29 0 54 51l37 75zM384 584h-62q-22 0 -33 -28l-106 -260l69 -2h132v290z" />
    <glyph glyph-name="Ccedilla" unicode="&#xc7;" horiz-adv-x="543" 
d="M29 302q0 126 85 215t206 89q26 0 71.5 -7.5t63.5 -7.5q21 0 37 4l6 -213h-15l-2 72q-2 60 -53 99t-115 39q-94 0 -152 -76t-58 -201q0 -42 6.5 -79.5t18.5 -67t28 -54.5t35.5 -42.5t41.5 -30t45.5 -18.5t47.5 -6q62 0 110.5 27t71.5 78l14 -5q-24 -60 -78 -92t-123 -32
h-9l-10 -45q16 6 28 6q18 0 32 -5t23 -13.5t14 -19.5t5 -24q0 -34 -38.5 -57.5t-95.5 -23.5l4 15q37 0 62.5 21t25.5 52q0 17 -9 29t-23 12q-23 0 -34 -10l-12 2l13 62q-122 8 -195 92t-73 216z" />
    <glyph glyph-name="Egrave" unicode="&#xc8;" horiz-adv-x="463" 
d="M291 172h-11v46q0 54 -23.5 71.5t-66.5 17.5h-34v-252q0 -40 23 -40h121q59 0 88.5 27.5t34.5 85.5l6 66h13l-11 -186q-8 -8 -31 -8h-385v8h29q30 0 37 20.5t7 106.5v329q0 86 -7 106.5t-37 20.5h-29v8h344q24 0 31 -7l12 -187h-15l-4 58q-4 65 -35.5 93t-92.5 28h-117
v-1q18 -18 18 -43v-218h34q43 0 66.5 17t23.5 71v29h11v-267zM269 631l-102 84l-20 25l19 16q4 3 9 3q4 0 8 -4l95 -115z" />
    <glyph glyph-name="Eacute" unicode="&#xc9;" horiz-adv-x="463" 
d="M291 172h-11v46q0 54 -23.5 71.5t-66.5 17.5h-34v-252q0 -40 23 -40h121q59 0 88.5 27.5t34.5 85.5l6 66h13l-11 -186q-8 -8 -31 -8h-385v8h29q30 0 37 20.5t7 106.5v329q0 86 -7 106.5t-37 20.5h-29v8h344q24 0 31 -7l12 -187h-15l-4 58q-4 65 -35.5 93t-92.5 28h-117
v-1q18 -18 18 -43v-218h34q43 0 66.5 17t23.5 71v29h11v-267zM197 631l-9 9l95 115q4 4 8 4q5 0 9 -3l19 -16l-20 -25z" />
    <glyph glyph-name="Ecircumflex" unicode="&#xca;" horiz-adv-x="463" 
d="M291 172h-11v46q0 54 -23.5 71.5t-66.5 17.5h-34v-252q0 -40 23 -40h121q59 0 88.5 27.5t34.5 85.5l6 66h13l-11 -186q-8 -8 -31 -8h-385v8h29q30 0 37 20.5t7 106.5v329q0 86 -7 106.5t-37 20.5h-29v8h344q24 0 31 -7l12 -187h-15l-4 58q-4 65 -35.5 93t-92.5 28h-117
v-1q18 -18 18 -43v-218h34q43 0 66.5 17t23.5 71v29h11v-267zM245 758l88 -81l-16 -18l-41 42q-41 42 -41 48h-4q0 -6 -41 -48l-41 -42l-16 18l88 81h24z" />
    <glyph glyph-name="Edieresis" unicode="&#xcb;" horiz-adv-x="463" 
d="M291 172h-11v46q0 54 -23.5 71.5t-66.5 17.5h-34v-252q0 -40 23 -40h121q59 0 88.5 27.5t34.5 85.5l6 66h13l-11 -186q-8 -8 -31 -8h-385v8h29q30 0 37 20.5t7 106.5v329q0 86 -7 106.5t-37 20.5h-29v8h344q24 0 31 -7l12 -187h-15l-4 58q-4 65 -35.5 93t-92.5 28h-117
v-1q18 -18 18 -43v-218h34q43 0 66.5 17t23.5 71v29h11v-267zM151 736q17 0 27.5 -10t10.5 -27t-10.5 -27t-27.5 -10t-26.5 10t-9.5 27t9.5 27t26.5 10zM315 736q17 0 26.5 -10t9.5 -27t-9.5 -27t-26.5 -10t-27.5 10t-10.5 27t10.5 27t27.5 10z" />
    <glyph glyph-name="Igrave" unicode="&#xcc;" horiz-adv-x="244" 
d="M158 630l-102 84l-20 25l19 16q4 3 9 3q4 0 8 -4l95 -115zM15 0v8h29q30 0 37 20.5t7 106.5v331q0 84 -7 104.5t-37 20.5h-29v8h214v-10h-29q-30 0 -37 -20.5t-7 -104.5v-329q0 -86 7 -106.5t37 -20.5h29v-8h-214z" />
    <glyph glyph-name="Iacute" unicode="&#xcd;" horiz-adv-x="244" 
d="M85 631l-9 9l95 115q4 4 8 4q5 0 9 -3l19 -16l-20 -25zM15 0v8h29q30 0 37 20.5t7 106.5v331q0 84 -7 104.5t-37 20.5h-29v8h214v-10h-29q-30 0 -37 -20.5t-7 -104.5v-329q0 -86 7 -106.5t37 -20.5h29v-8h-214z" />
    <glyph glyph-name="Icircumflex" unicode="&#xce;" horiz-adv-x="244" 
d="M133 758l88 -81l-16 -18l-41 42q-41 42 -41 48h-4q0 -6 -41 -48l-41 -42l-16 18l88 81h24zM15 0v8h29q30 0 37 20.5t7 106.5v331q0 84 -7 104.5t-37 20.5h-29v8h214v-10h-29q-30 0 -37 -20.5t-7 -104.5v-329q0 -86 7 -106.5t37 -20.5h29v-8h-214z" />
    <glyph glyph-name="Idieresis" unicode="&#xcf;" horiz-adv-x="244" 
d="M39 736q17 0 27.5 -10t10.5 -27t-10.5 -27t-27.5 -10t-26.5 10t-9.5 27t9.5 27t26.5 10zM203 736q17 0 26.5 -10t9.5 -27t-9.5 -27t-26.5 -10t-27.5 10t-10.5 27t10.5 27t27.5 10zM15 0v8h29q30 0 37 20.5t7 106.5v331q0 84 -7 104.5t-37 20.5h-29v8h214v-10h-29
q-30 0 -37 -20.5t-7 -104.5v-329q0 -86 7 -106.5t37 -20.5h29v-8h-214z" />
    <glyph glyph-name="Eth" unicode="&#xd0;" horiz-adv-x="602" 
d="M20 0v8h29q30 0 37 20.5t7 106.5v156h-64l4 25h60v148q0 86 -7 106.5t-37 20.5h-29v8h230q147 0 236.5 -82t89.5 -217t-89.5 -217.5t-236.5 -82.5h-230zM184 15h43q135 0 206 73t71 212q0 118 -79 201t-191 83h-87v-1q14 -14 14 -39v-228h141l-4 -25h-137v-236
q0 -40 23 -40z" />
    <glyph glyph-name="Ntilde" unicode="&#xd1;" horiz-adv-x="490" 
d="M349 719q-8 -33 -21.5 -45.5t-32.5 -12.5q-23 0 -69 30.5t-61 30.5q-19 0 -26 -28l-7 -26l-13 3l7 26q9 31 20.5 42.5t29.5 11.5q23 0 68.5 -30.5t61.5 -30.5q22 0 30 32l6 25l14 -3zM15 0v8h17q26 0 37.5 26t11.5 101v413q0 30 -7.5 36.5t-37.5 6.5h-21v8h129l233 -420
q15 -27 15 -31h5q-1 9 -1 35v266q0 78 -11 110t-38 32h-42v8h175v-8h-17q-28 0 -39 -27.5t-11 -114.5v-461h-9q0 6 -24 48l-262 469q-17 28 -17 33h-4q1 -9 1 -36v-367q0 -70 11 -98.5t38 -28.5h17v-8h-149z" />
    <glyph glyph-name="Ograve" unicode="&#xd2;" horiz-adv-x="644" 
d="M371 632l-102 84l-20 25l19 16q4 3 9 3q4 0 8 -4l95 -115zM322 -7q-133 0 -214.5 84.5t-81.5 222.5q0 127 86.5 216.5t209.5 89.5q133 0 214.5 -84t81.5 -222q0 -127 -87 -217t-209 -90zM325 8q99 0 159.5 76t60.5 200q0 127 -66 217t-160 90q-99 0 -160 -76t-61 -200
q0 -127 66.5 -217t160.5 -90z" />
    <glyph glyph-name="Oacute" unicode="&#xd3;" horiz-adv-x="644" 
d="M299 632l-9 9l95 115q4 4 8 4q5 0 9 -3l19 -16l-20 -25zM322 -7q-133 0 -214.5 84.5t-81.5 222.5q0 127 86.5 216.5t209.5 89.5q133 0 214.5 -84t81.5 -222q0 -127 -87 -217t-209 -90zM325 8q99 0 159.5 76t60.5 200q0 127 -66 217t-160 90q-99 0 -160 -76t-61 -200
q0 -127 66.5 -217t160.5 -90z" />
    <glyph glyph-name="Ocircumflex" unicode="&#xd4;" horiz-adv-x="644" 
d="M347 759l88 -81l-16 -18l-41 42q-41 42 -41 48h-4q0 -6 -41 -48l-41 -42l-16 18l88 81h24zM322 -7q-133 0 -214.5 84.5t-81.5 222.5q0 127 86.5 216.5t209.5 89.5q133 0 214.5 -84t81.5 -222q0 -127 -87 -217t-209 -90zM325 8q99 0 159.5 76t60.5 200q0 127 -66 217
t-160 90q-99 0 -160 -76t-61 -200q0 -127 66.5 -217t160.5 -90z" />
    <glyph glyph-name="Otilde" unicode="&#xd5;" horiz-adv-x="644" 
d="M446 719q-8 -33 -21.5 -45.5t-32.5 -12.5q-23 0 -69 30.5t-61 30.5q-19 0 -26 -28l-7 -26l-13 3l7 26q9 31 20.5 42.5t29.5 11.5q23 0 68.5 -30.5t61.5 -30.5q22 0 30 32l6 25l14 -3zM322 -7q-133 0 -214.5 84.5t-81.5 222.5q0 127 86.5 216.5t209.5 89.5
q133 0 214.5 -84t81.5 -222q0 -127 -87 -217t-209 -90zM325 8q99 0 159.5 76t60.5 200q0 127 -66 217t-160 90q-99 0 -160 -76t-61 -200q0 -127 66.5 -217t160.5 -90z" />
    <glyph glyph-name="Odieresis" unicode="&#xd6;" horiz-adv-x="644" 
d="M253 737q17 0 27.5 -10t10.5 -27t-10.5 -27t-27.5 -10t-26.5 10t-9.5 27t9.5 27t26.5 10zM417 737q17 0 26.5 -10t9.5 -27t-9.5 -27t-26.5 -10t-27.5 10t-10.5 27t10.5 27t27.5 10zM322 -7q-133 0 -214.5 84.5t-81.5 222.5q0 127 86.5 216.5t209.5 89.5q133 0 214.5 -84
t81.5 -222q0 -127 -87 -217t-209 -90zM325 8q99 0 159.5 76t60.5 200q0 127 -66 217t-160 90q-99 0 -160 -76t-61 -200q0 -127 66.5 -217t160.5 -90z" />
    <glyph glyph-name="multiply" unicode="&#xd7;" horiz-adv-x="312" 
d="M175 244l107 -104l-22 -20l-104 105l-103 -105l-20 22l104 102l-108 106l23 20l104 -107l107 109l20 -21z" />
    <glyph glyph-name="Oslash" unicode="&#xd8;" horiz-adv-x="644" 
d="M92 -40l-18 13l58 82q-51 40 -78.5 103t-27.5 142q0 127 86.5 216.5t209.5 89.5q99 0 171 -48l59 82l18 -13l-59 -82q51 -41 79 -103.5t28 -141.5q0 -127 -87 -217t-209 -90q-99 0 -172 48zM325 8q65 0 115 34t77.5 97t27.5 145q0 126 -66 216l-300 -419q63 -73 146 -73z
M164 99l301 419q-63 73 -146 73q-99 0 -160 -76t-61 -200q0 -126 66 -216z" />
    <glyph glyph-name="Ugrave" unicode="&#xd9;" horiz-adv-x="487" 
d="M299 631l-102 84l-20 25l19 16q4 3 9 3q4 0 8 -4l95 -115zM82 137v327q0 86 -7.5 106.5t-37.5 20.5h-22v8h216v-8h-37q-30 0 -37 -20.5t-7 -106.5v-349q0 -99 101 -99q67 0 101.5 31t34.5 90v312q0 78 -10.5 110t-36.5 32h-30v8h163v-8h-21q-26 0 -37 -32t-11 -110v-312
q0 -70 -39.5 -107t-113.5 -37q-75 0 -122 40t-47 104z" />
    <glyph glyph-name="Uacute" unicode="&#xda;" horiz-adv-x="487" 
d="M227 631l-9 9l95 115q4 4 8 4q5 0 9 -3l19 -16l-20 -25zM82 137v327q0 86 -7.5 106.5t-37.5 20.5h-22v8h216v-8h-37q-30 0 -37 -20.5t-7 -106.5v-349q0 -99 101 -99q67 0 101.5 31t34.5 90v312q0 78 -10.5 110t-36.5 32h-30v8h163v-8h-21q-26 0 -37 -32t-11 -110v-312
q0 -70 -39.5 -107t-113.5 -37q-75 0 -122 40t-47 104z" />
    <glyph glyph-name="Ucircumflex" unicode="&#xdb;" horiz-adv-x="487" 
d="M275 758l88 -81l-16 -18l-41 42q-41 42 -41 48h-4q0 -6 -41 -48l-41 -42l-16 18l88 81h24zM82 137v327q0 86 -7.5 106.5t-37.5 20.5h-22v8h216v-8h-37q-30 0 -37 -20.5t-7 -106.5v-349q0 -99 101 -99q67 0 101.5 31t34.5 90v312q0 78 -10.5 110t-36.5 32h-30v8h163v-8
h-21q-26 0 -37 -32t-11 -110v-312q0 -70 -39.5 -107t-113.5 -37q-75 0 -122 40t-47 104z" />
    <glyph glyph-name="Udieresis" unicode="&#xdc;" horiz-adv-x="487" 
d="M181 736q17 0 27.5 -10t10.5 -27t-10.5 -27t-27.5 -10t-26.5 10t-9.5 27t9.5 27t26.5 10zM345 736q17 0 26.5 -10t9.5 -27t-9.5 -27t-26.5 -10t-27.5 10t-10.5 27t10.5 27t27.5 10zM82 137v327q0 86 -7.5 106.5t-37.5 20.5h-22v8h216v-8h-37q-30 0 -37 -20.5t-7 -106.5
v-349q0 -99 101 -99q67 0 101.5 31t34.5 90v312q0 78 -10.5 110t-36.5 32h-30v8h163v-8h-21q-26 0 -37 -32t-11 -110v-312q0 -70 -39.5 -107t-113.5 -37q-75 0 -122 40t-47 104z" />
    <glyph glyph-name="Yacute" unicode="&#xdd;" horiz-adv-x="479" 
d="M214 632l-9 9l95 115q4 4 8 4q5 0 9 -3l19 -16l-20 -25zM96 0v8h71q30 0 37 20.5t7 106.5v149l-130 250q-17 32 -27.5 44.5t-27.5 12.5h-18v8h158v-8h-52v-2q13 -5 34 -45l108 -205q9 -19 11 -27h5q2 8 11 27l69 133l27 60q11 24 11 37q0 22 -36 22h-44v8h161v-8h-4
q-16 0 -29.5 -13t-32.5 -45l-40 -68l-86 -168v-162q0 -86 7 -106.5t37 -20.5h60v-8h-287z" />
    <glyph glyph-name="Thorn" unicode="&#xde;" horiz-adv-x="455" 
d="M15 0v8h29q30 0 37 20.5t7 106.5v331q0 84 -7 104.5t-37 20.5h-29v8h214v-10h-29q-13 0 -20 -2t-12 -9t-7.5 -19.5t-3.5 -34.5h68q94 0 151.5 -48t57.5 -127q0 -78 -57.5 -126t-151.5 -48h-69v-40q0 -86 7 -106.5t37 -20.5h29v-8h-214zM156 190h44q52 0 88.5 18.5t55 54
t18.5 86.5q0 38 -10.5 68t-31 50t-51 30.5t-69.5 10.5h-44v-44v-274z" />
    <glyph glyph-name="germandbls" unicode="&#xdf;" horiz-adv-x="496" 
d="M232 191h16v-75q0 -45 27.5 -76.5t72.5 -31.5q30 0 49 18.5t19 47.5t-17 61t-41 61t-48 58.5t-41 64.5t-17 68q0 36 45.5 91.5t45.5 92.5q0 46 -29.5 78.5t-71.5 32.5q-40 0 -64.5 -27.5t-24.5 -73.5v-534q0 -28 4 -50l-142 3v8h18q38 0 46.5 7.5t8.5 40.5v404h-73v22h73
v73q0 59 45.5 101t109.5 42t103 -35t39 -92q0 -27 -18.5 -54t-40 -45.5t-40 -42.5t-18.5 -46q0 -27 33 -62.5t72 -66.5t72 -74.5t33 -83.5q0 -50 -33.5 -76.5t-96.5 -26.5q-19 0 -47 5t-41 5q-14 0 -28 -4v192z" />
    <glyph glyph-name="agrave" unicode="&#xe0;" horiz-adv-x="459" 
d="M31 97q0 68 55 104t160 36h70v136q0 109 -99 109q-59 0 -92 -31.5t-36 -82.5l-4 -50h-15l9 173q12 -3 24 -3q11 0 48.5 5t64.5 5q81 0 124 -35t43 -101v-315q0 -28 23 -28q24 0 24 29v13h8v-13q0 -22 -15.5 -37t-37.5 -15q-19 0 -32.5 14t-14.5 35l-5 83h-8
q-15 -71 -57 -103t-93 -32q-67 0 -105.5 28.5t-38.5 75.5zM98 97q0 -37 25 -59t62 -22q52 0 91.5 44t39.5 128v34h-66q-74 0 -113 -32t-39 -93zM246 539l-102 84l-20 25l19 16q4 3 9 3q4 0 8 -4l95 -115z" />
    <glyph glyph-name="aacute" unicode="&#xe1;" horiz-adv-x="459" 
d="M31 97q0 68 55 104t160 36h70v136q0 109 -99 109q-59 0 -92 -31.5t-36 -82.5l-4 -50h-15l9 173q12 -3 24 -3q11 0 48.5 5t64.5 5q81 0 124 -35t43 -101v-315q0 -28 23 -28q24 0 24 29v13h8v-13q0 -22 -15.5 -37t-37.5 -15q-19 0 -32.5 14t-14.5 35l-5 83h-8
q-15 -71 -57 -103t-93 -32q-67 0 -105.5 28.5t-38.5 75.5zM98 97q0 -37 25 -59t62 -22q52 0 91.5 44t39.5 128v34h-66q-74 0 -113 -32t-39 -93zM174 539l-9 9l95 115q4 4 8 4q5 0 9 -3l19 -16l-20 -25z" />
    <glyph glyph-name="acircumflex" unicode="&#xe2;" horiz-adv-x="459" 
d="M31 97q0 68 55 104t160 36h70v136q0 109 -99 109q-59 0 -92 -31.5t-36 -82.5l-4 -50h-15l9 173q12 -3 24 -3q11 0 48.5 5t64.5 5q81 0 124 -35t43 -101v-315q0 -28 23 -28q24 0 24 29v13h8v-13q0 -22 -15.5 -37t-37.5 -15q-19 0 -32.5 14t-14.5 35l-5 83h-8
q-15 -71 -57 -103t-93 -32q-67 0 -105.5 28.5t-38.5 75.5zM98 97q0 -37 25 -59t62 -22q52 0 91.5 44t39.5 128v34h-66q-74 0 -113 -32t-39 -93zM222 666l88 -81l-16 -18l-41 42q-41 42 -41 48h-4q0 -6 -41 -48l-41 -42l-16 18l88 81h24z" />
    <glyph glyph-name="atilde" unicode="&#xe3;" horiz-adv-x="459" 
d="M31 97q0 68 55 104t160 36h70v136q0 109 -99 109q-59 0 -92 -31.5t-36 -82.5l-4 -50h-15l9 173q12 -3 24 -3q11 0 48.5 5t64.5 5q81 0 124 -35t43 -101v-315q0 -28 23 -28q24 0 24 29v13h8v-13q0 -22 -15.5 -37t-37.5 -15q-19 0 -32.5 14t-14.5 35l-5 83h-8
q-15 -71 -57 -103t-93 -32q-67 0 -105.5 28.5t-38.5 75.5zM98 97q0 -37 25 -59t62 -22q52 0 91.5 44t39.5 128v34h-66q-74 0 -113 -32t-39 -93zM321 626q-8 -33 -21.5 -45.5t-32.5 -12.5q-23 0 -69 30.5t-61 30.5q-19 0 -26 -28l-7 -26l-13 3l7 26q9 31 20.5 42.5t29.5 11.5
q23 0 68.5 -30.5t61.5 -30.5q22 0 30 32l6 25l14 -3z" />
    <glyph glyph-name="adieresis" unicode="&#xe4;" horiz-adv-x="459" 
d="M31 97q0 68 55 104t160 36h70v136q0 109 -99 109q-59 0 -92 -31.5t-36 -82.5l-4 -50h-15l9 173q12 -3 24 -3q11 0 48.5 5t64.5 5q81 0 124 -35t43 -101v-315q0 -28 23 -28q24 0 24 29v13h8v-13q0 -22 -15.5 -37t-37.5 -15q-19 0 -32.5 14t-14.5 35l-5 83h-8
q-15 -71 -57 -103t-93 -32q-67 0 -105.5 28.5t-38.5 75.5zM98 97q0 -37 25 -59t62 -22q52 0 91.5 44t39.5 128v34h-66q-74 0 -113 -32t-39 -93zM128 644q17 0 27.5 -10t10.5 -27t-10.5 -27t-27.5 -10t-26.5 10t-9.5 27t9.5 27t26.5 10zM292 644q17 0 26.5 -10t9.5 -27
t-9.5 -27t-26.5 -10t-27.5 10t-10.5 27t10.5 27t27.5 10z" />
    <glyph glyph-name="aring" unicode="&#xe5;" horiz-adv-x="459" 
d="M31 97q0 68 55 104t160 36h70v136q0 109 -99 109q-59 0 -92 -31.5t-36 -82.5l-4 -50h-15l9 173q12 -3 24 -3q11 0 48.5 5t64.5 5q81 0 124 -35t43 -101v-315q0 -28 23 -28q24 0 24 29v13h8v-13q0 -22 -15.5 -37t-37.5 -15q-19 0 -32.5 14t-14.5 35l-5 83h-8
q-15 -71 -57 -103t-93 -32q-67 0 -105.5 28.5t-38.5 75.5zM98 97q0 -37 25 -59t62 -22q52 0 91.5 44t39.5 128v34h-66q-74 0 -113 -32t-39 -93zM210 658q-19 0 -35.5 -15.5t-16.5 -35.5q0 -19 17 -35.5t35 -16.5q19 0 35.5 16t16.5 36t-16.5 35.5t-35.5 15.5zM210 681
q28 0 51 -22.5t23 -51.5t-23 -51.5t-51 -22.5t-50.5 23t-22.5 51q0 29 22.5 51.5t50.5 22.5z" />
    <glyph glyph-name="ae" unicode="&#xe6;" horiz-adv-x="815" 
d="M318 271h-61q-72 0 -115.5 -42t-43.5 -111q0 -42 26.5 -72t63.5 -30q50 0 90 45t40 127v83zM387 286q54 1 160.5 3t160.5 3q6 0 6 7q0 82 -42.5 132.5t-112.5 50.5q-69 0 -115.5 -53.5t-56.5 -142.5zM332 187q0 -93 -47.5 -143.5t-106.5 -50.5q-67 0 -108 34.5t-41 90.5
q0 70 65.5 119t157.5 49h66v87q0 53 -25.5 81t-73.5 28q-59 0 -92 -31.5t-36 -82.5l-4 -50h-15l9 173q12 -3 24 -3q11 0 48.5 5t64.5 5q135 0 155 -99q21 30 49.5 52t64.5 34.5t76 12.5q99 0 160 -55t61 -144v-4q0 -6 -3.5 -11.5t-9.5 -9t-13 -3.5h-373q-1 -9 -1 -27
q0 -97 55.5 -162t135.5 -65q66 0 118.5 29.5t78.5 84.5l12 -8q-29 -61 -88 -95.5t-136 -34.5q-94 0 -153.5 52t-74.5 142z" />
    <glyph glyph-name="ccedilla" unicode="&#xe7;" horiz-adv-x="531" 
d="M34 248q0 104 78 177t188 73q20 0 40.5 -2.5t35.5 -5.5t32.5 -5.5t30.5 -2.5q11 0 33 5l6 -204h-15l-2 67q-2 57 -53 95t-115 38q-83 0 -134.5 -61t-51.5 -161q0 -59 17.5 -106.5t47.5 -77t66.5 -45t75.5 -15.5q55 0 101.5 26t72.5 79l14 -5q-24 -60 -78 -92t-123 -32
h-12l-9 -45q15 6 28 6q17 0 31 -5t23 -13.5t14.5 -19.5t5.5 -24q0 -34 -39 -57.5t-95 -23.5l2 15q38 0 64 21t26 52q0 17 -9.5 29t-24.5 12q-22 0 -34 -10l-10 2l12 62q-72 5 -126.5 38.5t-84 89t-29.5 126.5z" />
    <glyph glyph-name="egrave" unicode="&#xe8;" horiz-adv-x="516" 
d="M324 539l-102 84l-20 25l19 16q4 3 9 3q4 0 8 -4l95 -115zM34 248q0 103 74.5 176.5t179.5 73.5q88 0 141 -45.5t53 -121.5q0 -16 -7.5 -25.5t-20.5 -9.5h-346q-3 -25 -3 -52q0 -98 54.5 -162.5t143.5 -64.5q115 0 173 79l12 -9q-70 -94 -203 -94q-112 0 -181.5 70.5
t-69.5 184.5zM111 311l288 6q14 0 14 15q0 69 -35.5 109.5t-93.5 40.5q-67 0 -113 -46t-60 -125z" />
    <glyph glyph-name="eacute" unicode="&#xe9;" horiz-adv-x="516" 
d="M252 539l-9 9l95 115q4 4 8 4q5 0 9 -3l19 -16l-20 -25zM34 248q0 103 74.5 176.5t179.5 73.5q88 0 141 -45.5t53 -121.5q0 -16 -7.5 -25.5t-20.5 -9.5h-346q-3 -25 -3 -52q0 -98 54.5 -162.5t143.5 -64.5q115 0 173 79l12 -9q-70 -94 -203 -94q-112 0 -181.5 70.5
t-69.5 184.5zM111 311l288 6q14 0 14 15q0 69 -35.5 109.5t-93.5 40.5q-67 0 -113 -46t-60 -125z" />
    <glyph glyph-name="ecircumflex" unicode="&#xea;" horiz-adv-x="516" 
d="M300 666l88 -81l-16 -18l-41 42q-41 42 -41 48h-4q0 -6 -41 -48l-41 -42l-16 18l88 81h24zM34 248q0 103 74.5 176.5t179.5 73.5q88 0 141 -45.5t53 -121.5q0 -16 -7.5 -25.5t-20.5 -9.5h-346q-3 -25 -3 -52q0 -98 54.5 -162.5t143.5 -64.5q115 0 173 79l12 -9
q-70 -94 -203 -94q-112 0 -181.5 70.5t-69.5 184.5zM111 311l288 6q14 0 14 15q0 69 -35.5 109.5t-93.5 40.5q-67 0 -113 -46t-60 -125z" />
    <glyph glyph-name="edieresis" unicode="&#xeb;" horiz-adv-x="516" 
d="M206 644q17 0 27.5 -10t10.5 -27t-10.5 -27t-27.5 -10t-26.5 10t-9.5 27t9.5 27t26.5 10zM370 644q17 0 26.5 -10t9.5 -27t-9.5 -27t-26.5 -10t-27.5 10t-10.5 27t10.5 27t27.5 10zM34 248q0 103 74.5 176.5t179.5 73.5q88 0 141 -45.5t53 -121.5q0 -16 -7.5 -25.5
t-20.5 -9.5h-346q-3 -25 -3 -52q0 -98 54.5 -162.5t143.5 -64.5q115 0 173 79l12 -9q-70 -94 -203 -94q-112 0 -181.5 70.5t-69.5 184.5zM111 311l288 6q14 0 14 15q0 69 -35.5 109.5t-93.5 40.5q-67 0 -113 -46t-60 -125z" />
    <glyph glyph-name="igrave" unicode="&#xec;" horiz-adv-x="241" 
d="M157 539l-102 84l-20 25l19 16q4 3 9 3q4 0 8 -4l95 -115zM88 134v319q0 14 -7.5 22t-19.5 8h-31v8h113q10 0 10 -10v-347q0 -85 7.5 -105.5t37.5 -20.5h30v-8h-213v8h29q30 0 37 20t7 106z" />
    <glyph glyph-name="iacute" unicode="&#xed;" horiz-adv-x="241" 
d="M85 539l-9 9l95 115q4 4 8 4q5 0 9 -3l19 -16l-20 -25zM88 134v319q0 14 -7.5 22t-19.5 8h-31v8h113q10 0 10 -10v-347q0 -85 7.5 -105.5t37.5 -20.5h30v-8h-213v8h29q30 0 37 20t7 106z" />
    <glyph glyph-name="icircumflex" unicode="&#xee;" horiz-adv-x="241" 
d="M133 666l88 -81l-16 -18l-41 42q-41 42 -41 48h-4q0 -6 -41 -48l-41 -42l-16 18l88 81h24zM88 134v319q0 14 -7.5 22t-19.5 8h-31v8h113q10 0 10 -10v-347q0 -85 7.5 -105.5t37.5 -20.5h30v-8h-213v8h29q30 0 37 20t7 106z" />
    <glyph glyph-name="idieresis" unicode="&#xef;" horiz-adv-x="241" 
d="M39 644q17 0 27.5 -10t10.5 -27t-10.5 -27t-27.5 -10t-26.5 10t-9.5 27t9.5 27t26.5 10zM203 644q17 0 26.5 -10t9.5 -27t-9.5 -27t-26.5 -10t-27.5 10t-10.5 27t10.5 27t27.5 10zM88 134v319q0 14 -7.5 22t-19.5 8h-31v8h113q10 0 10 -10v-347q0 -85 7.5 -105.5
t37.5 -20.5h30v-8h-213v8h29q30 0 37 20t7 106z" />
    <glyph glyph-name="eth" unicode="&#xf0;" horiz-adv-x="563" 
d="M398 660l16 -21l-73 -54q86 -51 136 -135t50 -183q0 -74 -27 -135t-84.5 -100t-135.5 -39q-60 0 -109 18.5t-79.5 49.5t-46.5 69t-16 80t16.5 82t47 71.5t78.5 51t106 19.5q55 0 101.5 -24t73.5 -65q-32 143 -134 223l-82 -60l-17 21l76 56q-56 36 -122 45l3 12
q74 -10 139 -43zM464 239q0 78 -58.5 128.5t-133.5 50.5q-72 0 -123 -50t-51 -144q0 -54 21 -103t64.5 -81t99.5 -32q59 0 101.5 34t61 85t18.5 112z" />
    <glyph glyph-name="ntilde" unicode="&#xf1;" horiz-adv-x="522" 
d="M378 626q-8 -33 -21.5 -45.5t-32.5 -12.5q-23 0 -69 30.5t-61 30.5q-19 0 -26 -28l-7 -26l-13 3l7 26q9 31 20.5 42.5t29.5 11.5q23 0 68.5 -30.5t61.5 -30.5q22 0 30 32l6 25l14 -3zM15 0v8h29q30 0 37 20.5t7 106.5v307q0 15 -6.5 22.5t-16.5 7.5t-17 -8t-7 -22v-31h-8
v31q0 25 16.5 38.5t39.5 13.5q21 0 36 -11.5t15 -32.5v-36q0 -71 -2 -87h6q3 24 14 54q18 53 59 85t93 32q67 0 103.5 -34t36.5 -92v-237q0 -86 7 -106.5t37 -20.5h22v-8h-204v8h29q30 0 37 20.5t7 106.5v214q0 126 -82 126q-65 0 -107.5 -54t-42.5 -141v-145
q0 -86 7.5 -106.5t37.5 -20.5h30v-8h-213z" />
    <glyph glyph-name="ograve" unicode="&#xf2;" horiz-adv-x="604" 
d="M334 539l-102 84l-20 25l19 16q4 3 9 3q4 0 8 -4l95 -115zM302 -7q-121 0 -194.5 69.5t-73.5 183.5q0 104 79 178t189 74q120 0 194 -69.5t74 -182.5q0 -104 -78.5 -178.5t-189.5 -74.5zM304 8q87 0 141 62t54 162q0 103 -59 176.5t-142 73.5q-87 0 -140 -61t-53 -162
q0 -104 58 -177.5t141 -73.5z" />
    <glyph glyph-name="oacute" unicode="&#xf3;" horiz-adv-x="604" 
d="M262 539l-9 9l95 115q4 4 8 4q5 0 9 -3l19 -16l-20 -25zM302 -7q-121 0 -194.5 69.5t-73.5 183.5q0 104 79 178t189 74q120 0 194 -69.5t74 -182.5q0 -104 -78.5 -178.5t-189.5 -74.5zM304 8q87 0 141 62t54 162q0 103 -59 176.5t-142 73.5q-87 0 -140 -61t-53 -162
q0 -104 58 -177.5t141 -73.5z" />
    <glyph glyph-name="ocircumflex" unicode="&#xf4;" horiz-adv-x="604" 
d="M310 666l88 -81l-16 -18l-41 42q-41 42 -41 48h-4q0 -6 -41 -48l-41 -42l-16 18l88 81h24zM302 -7q-121 0 -194.5 69.5t-73.5 183.5q0 104 79 178t189 74q120 0 194 -69.5t74 -182.5q0 -104 -78.5 -178.5t-189.5 -74.5zM304 8q87 0 141 62t54 162q0 103 -59 176.5
t-142 73.5q-87 0 -140 -61t-53 -162q0 -104 58 -177.5t141 -73.5z" />
    <glyph glyph-name="otilde" unicode="&#xf5;" horiz-adv-x="604" 
d="M409 626q-8 -33 -21.5 -45.5t-32.5 -12.5q-23 0 -69 30.5t-61 30.5q-19 0 -26 -28l-7 -26l-13 3l7 26q9 31 20.5 42.5t29.5 11.5q23 0 68.5 -30.5t61.5 -30.5q22 0 30 32l6 25l14 -3zM302 -7q-121 0 -194.5 69.5t-73.5 183.5q0 104 79 178t189 74q120 0 194 -69.5
t74 -182.5q0 -104 -78.5 -178.5t-189.5 -74.5zM304 8q87 0 141 62t54 162q0 103 -59 176.5t-142 73.5q-87 0 -140 -61t-53 -162q0 -104 58 -177.5t141 -73.5z" />
    <glyph glyph-name="odieresis" unicode="&#xf6;" horiz-adv-x="604" 
d="M216 644q17 0 27.5 -10t10.5 -27t-10.5 -27t-27.5 -10t-26.5 10t-9.5 27t9.5 27t26.5 10zM380 644q17 0 26.5 -10t9.5 -27t-9.5 -27t-26.5 -10t-27.5 10t-10.5 27t10.5 27t27.5 10zM302 -7q-121 0 -194.5 69.5t-73.5 183.5q0 104 79 178t189 74q120 0 194 -69.5
t74 -182.5q0 -104 -78.5 -178.5t-189.5 -74.5zM304 8q87 0 141 62t54 162q0 103 -59 176.5t-142 73.5q-87 0 -140 -61t-53 -162q0 -104 58 -177.5t141 -73.5z" />
    <glyph glyph-name="divide" unicode="&#xf7;" horiz-adv-x="387" 
d="M196 403q17 0 27 -10t10 -27t-10 -27t-27 -10t-27 10t-10 27t10 27t27 10zM355 229h-326l4 30h325zM196 159q17 0 27 -10t10 -27t-10 -27t-27 -10t-27 10t-10 27t10 27t27 10z" />
    <glyph glyph-name="oslash" unicode="&#xf8;" horiz-adv-x="604" 
d="M304 8q87 0 141 62t54 162q0 105 -60 178l-263 -343q55 -59 128 -59zM94 -40l-18 13l54 71q-96 70 -96 202q0 104 79 178t189 74q85 0 148 -36l60 78l18 -13l-59 -77q48 -33 74.5 -85.5t26.5 -118.5q0 -104 -78.5 -178.5t-189.5 -74.5q-88 0 -153 39zM423 427
q-55 55 -125 55q-87 0 -140 -61t-53 -162t56 -175z" />
    <glyph glyph-name="ugrave" unicode="&#xf9;" horiz-adv-x="514" 
d="M75 119v334q0 14 -7.5 22t-19.5 8h-31v8h108q15 0 15 -15v-349q0 -57 22.5 -88t59.5 -31q67 0 108 58.5t41 154.5v218q0 30 -7.5 37t-37.5 7h-15v8l131 3v-6q-4 -30 -4 -45v-396q0 -28 23 -28q24 0 24 29v13h8v-13q0 -23 -17 -37.5t-39 -14.5q-20 0 -34.5 13t-14.5 36
v118h-7q-13 -86 -58 -128t-108 -42t-101.5 33t-38.5 93zM286 539l-102 84l-20 25l19 16q4 3 9 3q4 0 8 -4l95 -115z" />
    <glyph glyph-name="uacute" unicode="&#xfa;" horiz-adv-x="514" 
d="M75 119v334q0 14 -7.5 22t-19.5 8h-31v8h108q15 0 15 -15v-349q0 -57 22.5 -88t59.5 -31q67 0 108 58.5t41 154.5v218q0 30 -7.5 37t-37.5 7h-15v8l131 3v-6q-4 -30 -4 -45v-396q0 -28 23 -28q24 0 24 29v13h8v-13q0 -23 -17 -37.5t-39 -14.5q-20 0 -34.5 13t-14.5 36
v118h-7q-13 -86 -58 -128t-108 -42t-101.5 33t-38.5 93zM214 539l-9 9l95 115q4 4 8 4q5 0 9 -3l19 -16l-20 -25z" />
    <glyph glyph-name="ucircumflex" unicode="&#xfb;" horiz-adv-x="514" 
d="M75 119v334q0 14 -7.5 22t-19.5 8h-31v8h108q15 0 15 -15v-349q0 -57 22.5 -88t59.5 -31q67 0 108 58.5t41 154.5v218q0 30 -7.5 37t-37.5 7h-15v8l131 3v-6q-4 -30 -4 -45v-396q0 -28 23 -28q24 0 24 29v13h8v-13q0 -23 -17 -37.5t-39 -14.5q-20 0 -34.5 13t-14.5 36
v118h-7q-13 -86 -58 -128t-108 -42t-101.5 33t-38.5 93zM262 666l88 -81l-16 -18l-41 42q-41 42 -41 48h-4q0 -6 -41 -48l-41 -42l-16 18l88 81h24z" />
    <glyph glyph-name="udieresis" unicode="&#xfc;" horiz-adv-x="514" 
d="M75 119v334q0 14 -7.5 22t-19.5 8h-31v8h108q15 0 15 -15v-349q0 -57 22.5 -88t59.5 -31q67 0 108 58.5t41 154.5v218q0 30 -7.5 37t-37.5 7h-15v8l131 3v-6q-4 -30 -4 -45v-396q0 -28 23 -28q24 0 24 29v13h8v-13q0 -23 -17 -37.5t-39 -14.5q-20 0 -34.5 13t-14.5 36
v118h-7q-13 -86 -58 -128t-108 -42t-101.5 33t-38.5 93zM168 644q17 0 27.5 -10t10.5 -27t-10.5 -27t-27.5 -10t-26.5 10t-9.5 27t9.5 27t26.5 10zM332 644q17 0 26.5 -10t9.5 -27t-9.5 -27t-26.5 -10t-27.5 10t-10.5 27t10.5 27t27.5 10z" />
    <glyph glyph-name="yacute" unicode="&#xfd;" horiz-adv-x="492" 
d="M222 539l-9 9l95 115q4 4 8 4q5 0 9 -3l19 -16l-20 -25zM241 -5q5 12 5 24t-5 23l-169 390q-13 31 -21.5 41t-28.5 10h-13v8h161v-8h-59v-1q11 -4 27 -40l134 -306q6 -14 6 -35v-2h3l104 265l20 68q4 14 4 24q0 27 -41 27h-28v8h145v-7q-17 0 -27 -11.5t-23 -41.5
l-32 -72l-177 -449q-17 -44 -46.5 -71.5t-64.5 -27.5q-26 0 -44.5 23t-18.5 55q41 -19 70 -19q69 0 94 62z" />
    <glyph glyph-name="thorn" unicode="&#xfe;" horiz-adv-x="574" 
d="M74 651q0 25 -25 25h-43v7h52q74 0 74 44v3h7v-184q0 -34 -4.5 -87t-9 -89.5t-5.5 -42.5h10q3 24 14 54q19 56 67.5 86.5t108.5 30.5q73 0 126 -37.5t77.5 -94t24.5 -121.5q0 -102 -60 -177t-168 -75q-60 0 -108 30.5t-68 86.5q-2 7 -5 16v-174q0 -86 7.5 -107t37.5 -21
h30v-7h-213v7h29q30 0 37 20.5t7 107.5v699zM139 211q0 -93 49 -144t116 -51q83 0 128 61t45 153q0 96 -46 170.5t-127 74.5q-67 0 -116 -51t-49 -144v-69z" />
    <glyph glyph-name="ydieresis" unicode="&#xff;" horiz-adv-x="492" 
d="M176 644q17 0 27.5 -10t10.5 -27t-10.5 -27t-27.5 -10t-26.5 10t-9.5 27t9.5 27t26.5 10zM340 644q17 0 26.5 -10t9.5 -27t-9.5 -27t-26.5 -10t-27.5 10t-10.5 27t10.5 27t27.5 10zM241 -5q5 12 5 24t-5 23l-169 390q-13 31 -21.5 41t-28.5 10h-13v8h161v-8h-59v-1
q11 -4 27 -40l134 -306q6 -14 6 -35v-2h3l104 265l20 68q4 14 4 24q0 27 -41 27h-28v8h145v-7q-17 0 -27 -11.5t-23 -41.5l-32 -72l-177 -449q-17 -44 -46.5 -71.5t-64.5 -27.5q-26 0 -44.5 23t-18.5 55q41 -19 70 -19q69 0 94 62z" />
    <glyph glyph-name="Amacron" unicode="&#x100;" horiz-adv-x="590" 
d="M410 689h-227l2 21h227zM7 0v8q29 0 54 51l37 75l184 424q14 32 15 45h17l213 -544q13 -32 21 -41.5t28 -9.5h6v-8h-163v8h19q28 0 28 22q0 8 -4 18l-51 131h-179l-96 -2l-21 -49l-23 -69q-4 -11 -4 -21q0 -30 40 -30h28v-8h-149zM144 197l92 -3h169l-109 279
q-8 23 -8 49h-5z" />
    <glyph glyph-name="amacron" unicode="&#x101;" horiz-adv-x="459" 
d="M31 97q0 68 55 104t160 36h70v136q0 109 -99 109q-59 0 -92 -31.5t-36 -82.5l-4 -50h-15l9 173q12 -3 24 -3q11 0 48.5 5t64.5 5q81 0 124 -35t43 -101v-315q0 -28 23 -28q24 0 24 29v13h8v-13q0 -22 -15.5 -37t-37.5 -15q-19 0 -32.5 14t-14.5 35l-5 83h-8
q-15 -71 -57 -103t-93 -32q-67 0 -105.5 28.5t-38.5 75.5zM98 97q0 -37 25 -59t62 -22q52 0 91.5 44t39.5 128v34h-66q-74 0 -113 -32t-39 -93zM331 597h-227l2 21h227z" />
    <glyph glyph-name="Abreve" unicode="&#x102;" horiz-adv-x="590" 
d="M182 749l15 7q51 -74 100 -74q52 0 103 74l12 -7q-19 -43 -49.5 -70t-65.5 -27q-63 0 -115 97zM7 0v8q29 0 54 51l37 75l184 424q14 32 15 45h17l213 -544q13 -32 21 -41.5t28 -9.5h6v-8h-163v8h19q28 0 28 22q0 8 -4 18l-51 131h-179l-96 -2l-21 -49l-23 -69
q-4 -11 -4 -21q0 -30 40 -30h28v-8h-149zM144 197l92 -3h169l-109 279q-8 23 -8 49h-5z" />
    <glyph glyph-name="abreve" unicode="&#x103;" horiz-adv-x="459" 
d="M31 97q0 68 55 104t160 36h70v136q0 109 -99 109q-59 0 -92 -31.5t-36 -82.5l-4 -50h-15l9 173q12 -3 24 -3q11 0 48.5 5t64.5 5q81 0 124 -35t43 -101v-315q0 -28 23 -28q24 0 24 29v13h8v-13q0 -22 -15.5 -37t-37.5 -15q-19 0 -32.5 14t-14.5 35l-5 83h-8
q-15 -71 -57 -103t-93 -32q-67 0 -105.5 28.5t-38.5 75.5zM98 97q0 -37 25 -59t62 -22q52 0 91.5 44t39.5 128v34h-66q-74 0 -113 -32t-39 -93zM103 657l15 7q51 -74 100 -74q52 0 103 74l12 -7q-19 -43 -49.5 -70t-65.5 -27q-63 0 -115 97z" />
    <glyph glyph-name="Aogonek" unicode="&#x104;" horiz-adv-x="590" 
d="M7 0v8q29 0 54 51l37 75l184 424q14 32 15 45h17l213 -544q13 -33 21.5 -42t28.5 -9h6v-8h-17q-64 0 -95.5 -31t-31.5 -80q0 -28 17.5 -44.5t46.5 -16.5q18 0 48 9l28 10l5 -14l-28 -10q-36 -12 -60 -12q-42 0 -68.5 20.5t-26.5 54.5q0 41 28 70.5t72 45.5v10
q-29 10 -39 36l-51 131h-179l-96 -2l-21 -49l-23 -69q-4 -11 -4 -21q0 -30 40 -30h28v-8h-149zM144 197l92 -3h169l-109 279q-8 20 -8 49h-5z" />
    <glyph glyph-name="aogonek" unicode="&#x105;" horiz-adv-x="459" 
d="M31 97q0 68 55 104t160 36h70v136q0 54 -25.5 81.5t-73.5 27.5q-59 0 -92 -31.5t-36 -82.5l-4 -50h-15l9 173q9 -2 22 -2q11 0 49 4.5t66 4.5q54 0 91.5 -15.5t56.5 -46t19 -74.5v-315q0 -28 23 -28q10 0 17 7.5t7 21.5v13h8v-13q0 -17 -10.5 -31t-27.5 -19h-1
q-35 -10 -56 -39t-21 -70q0 -28 17.5 -44.5t46.5 -16.5t76 19l5 -14q-52 -22 -88 -22q-42 0 -68 20.5t-26 54.5q0 36 23.5 66t62.5 46q-9 3 -16.5 10t-11.5 16.5t-5 20.5l-5 83h-8q-15 -71 -57 -103t-93 -32q-67 0 -105.5 28.5t-38.5 75.5zM98 97q0 -37 25 -59t62 -22
q52 0 91.5 44t39.5 128v34h-66q-74 0 -113 -32t-39 -93z" />
    <glyph glyph-name="Cacute" unicode="&#x106;" horiz-adv-x="543" 
d="M289 631l-9 9l95 115q4 4 8 4q5 0 9 -3l19 -16l-20 -25zM29 302q0 126 85 215t206 89q26 0 71.5 -7.5t63.5 -7.5q21 0 37 4l6 -213h-15l-2 72q-2 60 -53 99t-115 39q-94 0 -152 -76t-58 -201q0 -141 66.5 -219.5t156.5 -78.5q62 0 110.5 27t71.5 78l14 -5
q-24 -60 -78 -92t-123 -32q-131 0 -211.5 85t-80.5 224z" />
    <glyph glyph-name="cacute" unicode="&#x107;" horiz-adv-x="531" 
d="M266 539l-9 9l95 115q4 4 8 4q5 0 9 -3l19 -16l-20 -25zM34 248q0 104 78 177t188 73q31 0 76 -8t63 -8q11 0 33 5l6 -204h-15l-2 67q-2 57 -53 95t-115 38q-83 0 -134.5 -61t-51.5 -161q0 -115 61.5 -179.5t145.5 -64.5q55 0 101.5 26t72.5 79l14 -5q-24 -60 -78 -92
t-123 -32q-120 0 -193.5 70.5t-73.5 184.5z" />
    <glyph glyph-name="Ccircumflex" unicode="&#x108;" horiz-adv-x="543" 
d="M337 759l88 -81l-16 -18l-41 42q-41 42 -41 48h-4q0 -6 -41 -48l-41 -42l-16 18l88 81h24zM29 302q0 126 85 215t206 89q26 0 71.5 -7.5t63.5 -7.5q21 0 37 4l6 -213h-15l-2 72q-2 60 -53 99t-115 39q-94 0 -152 -76t-58 -201q0 -141 66.5 -219.5t156.5 -78.5
q62 0 110.5 27t71.5 78l14 -5q-24 -60 -78 -92t-123 -32q-131 0 -211.5 85t-80.5 224z" />
    <glyph glyph-name="ccircumflex" unicode="&#x109;" horiz-adv-x="531" 
d="M314 666l88 -81l-16 -18l-41 42q-41 42 -41 48h-4q0 -6 -41 -48l-41 -42l-16 18l88 81h24zM34 248q0 104 78 177t188 73q31 0 76 -8t63 -8q11 0 33 5l6 -204h-15l-2 67q-2 57 -53 95t-115 38q-83 0 -134.5 -61t-51.5 -161q0 -115 61.5 -179.5t145.5 -64.5q55 0 101.5 26
t72.5 79l14 -5q-24 -60 -78 -92t-123 -32q-120 0 -193.5 70.5t-73.5 184.5z" />
    <glyph glyph-name="Cdotaccent" unicode="&#x10a;" horiz-adv-x="543" 
d="M362 751q17 0 27 -9.5t10 -26.5t-10 -27.5t-27 -10.5t-27.5 10.5t-10.5 27.5q0 16 10.5 26t27.5 10zM29 302q0 126 85 215t206 89q26 0 71.5 -7.5t63.5 -7.5q21 0 37 4l6 -213h-15l-2 72q-2 60 -53 99t-115 39q-94 0 -152 -76t-58 -201q0 -141 66.5 -219.5t156.5 -78.5
q62 0 110.5 27t71.5 78l14 -5q-24 -60 -78 -92t-123 -32q-131 0 -211.5 85t-80.5 224z" />
    <glyph glyph-name="cdotaccent" unicode="&#x10b;" horiz-adv-x="531" 
d="M302 658q17 0 27 -9.5t10 -26.5t-10 -27.5t-27 -10.5t-27.5 10.5t-10.5 27.5q0 16 10.5 26t27.5 10zM34 248q0 104 78 177t188 73q31 0 76 -8t63 -8q11 0 33 5l6 -204h-15l-2 67q-2 57 -53 95t-115 38q-83 0 -134.5 -61t-51.5 -161q0 -115 61.5 -179.5t145.5 -64.5
q55 0 101.5 26t72.5 79l14 -5q-24 -60 -78 -92t-123 -32q-120 0 -193.5 70.5t-73.5 184.5z" />
    <glyph glyph-name="Ccaron" unicode="&#x10c;" horiz-adv-x="543" 
d="M337 657h-24l-88 81l16 18l41 -42q41 -42 41 -48h4q0 6 41 48l41 42l16 -18zM29 302q0 126 85 215t206 89q26 0 71.5 -7.5t63.5 -7.5q21 0 37 4l6 -213h-15l-2 72q-2 60 -53 99t-115 39q-94 0 -152 -76t-58 -201q0 -141 66.5 -219.5t156.5 -78.5q62 0 110.5 27t71.5 78
l14 -5q-24 -60 -78 -92t-123 -32q-131 0 -211.5 85t-80.5 224z" />
    <glyph glyph-name="ccaron" unicode="&#x10d;" horiz-adv-x="531" 
d="M314 564h-24l-88 81l16 18l41 -42q41 -42 41 -48h4q0 6 41 48l41 42l16 -18zM34 248q0 104 78 177t188 73q31 0 76 -8t63 -8q11 0 33 5l6 -204h-15l-2 67q-2 57 -53 95t-115 38q-83 0 -134.5 -61t-51.5 -161q0 -115 61.5 -179.5t145.5 -64.5q55 0 101.5 26t72.5 79l14 -5
q-24 -60 -78 -92t-123 -32q-120 0 -193.5 70.5t-73.5 184.5z" />
    <glyph glyph-name="Dcaron" unicode="&#x10e;" horiz-adv-x="597" 
d="M179 15h43q135 0 206 73t71 212q0 118 -79 201t-191 83h-87v-1q14 -14 14 -39v-489q0 -40 23 -40zM15 0v8h29q30 0 37 20.5t7 106.5v329q0 86 -7 106.5t-37 20.5h-29v8h230q147 0 236.5 -82t89.5 -217t-89.5 -217.5t-236.5 -82.5h-230zM271 656h-24l-88 81l16 18l41 -42
q41 -42 41 -48h4q0 6 41 48l41 42l16 -18z" />
    <glyph glyph-name="dcaron" unicode="&#x10f;" horiz-adv-x="656" 
d="M583 545q16 0 30.5 14t17.5 32t3 19l-3 1q-4 -6 -16 -6q-38 0 -38 37q0 38 38 38q16 0 26 -10.5t10 -27.5q0 -47 -18.5 -75.5t-49.5 -28.5v7zM105 261q0 -108 46.5 -174.5t122.5 -66.5q53 0 97.5 29.5t71.5 88.5v142q0 93 -48.5 144t-115.5 51q-78 0 -126 -59t-48 -155z
M34 246q0 104 67 178t161 74q60 0 109 -30.5t69 -86.5l3 -9v279q0 25 -24 25h-40v7h48q30 0 52 11t22 34v3h7v-684q0 -28 23 -28q24 0 24 29v13h8v-13q0 -22 -15 -37t-37 -15q-19 0 -32.5 14t-14.5 35l-4 84h-2q-59 -136 -196 -136q-102 0 -165 69.5t-63 183.5z" />
    <glyph glyph-name="Dcroat" unicode="&#x110;" horiz-adv-x="602" 
d="M20 0v8h29q30 0 37 20.5t7 106.5v156h-64l4 25h60v148q0 86 -7 106.5t-37 20.5h-29v8h230q147 0 236.5 -82t89.5 -217t-89.5 -217.5t-236.5 -82.5h-230zM184 15h43q135 0 206 73t71 212q0 118 -79 201t-191 83h-87v-1q14 -14 14 -39v-228h141l-4 -25h-137v-236
q0 -40 23 -40z" />
    <glyph glyph-name="dcroat" unicode="&#x111;" horiz-adv-x="581" 
d="M34 246q0 51 18 98t49 80.5t73 53.5t88 20q61 0 110 -30.5t68 -86.5q2 -4 3 -9v176h-123l3 23h120v80q0 25 -24 25h-40v7h48q14 0 26.5 2.5t23.5 7.5t18 14t7 21v3h7v-160h51l-3 -23h-48v-501q0 -28 23 -28q10 0 17 7.5t7 21.5v13h8v-13q0 -22 -15.5 -37t-37.5 -15
q-19 0 -32.5 14t-14.5 35l-4 84h-2q-59 -136 -196 -136q-102 0 -165 69.5t-63 183.5zM105 261q0 -108 46.5 -174.5t122.5 -66.5q53 0 97.5 29.5t71.5 88.5v142q0 93 -48.5 144t-115.5 51q-78 0 -126 -59t-48 -155z" />
    <glyph glyph-name="Emacron" unicode="&#x112;" horiz-adv-x="463" 
d="M291 172h-11v46q0 54 -23.5 71.5t-66.5 17.5h-34v-252q0 -40 23 -40h121q59 0 88.5 27.5t34.5 85.5l6 66h13l-11 -186q-8 -8 -31 -8h-385v8h29q30 0 37 20.5t7 106.5v329q0 86 -7 106.5t-37 20.5h-29v8h344q24 0 31 -7l12 -187h-15l-4 58q-4 65 -35.5 93t-92.5 28h-117
v-1q18 -18 18 -43v-218h34q43 0 66.5 17t23.5 71v29h11v-267zM355 689h-227l2 21h227z" />
    <glyph glyph-name="emacron" unicode="&#x113;" horiz-adv-x="516" 
d="M401 597h-227l2 21h227zM34 248q0 103 74.5 176.5t179.5 73.5q88 0 141 -45.5t53 -121.5q0 -16 -7.5 -25.5t-20.5 -9.5h-346q-3 -25 -3 -52q0 -98 54.5 -162.5t143.5 -64.5q115 0 173 79l12 -9q-70 -94 -203 -94q-112 0 -181.5 70.5t-69.5 184.5zM111 311l288 6
q14 0 14 15q0 69 -35.5 109.5t-93.5 40.5q-67 0 -113 -46t-60 -125z" />
    <glyph glyph-name="Ebreve" unicode="&#x114;" horiz-adv-x="463" 
d="M291 172h-11v46q0 54 -23.5 71.5t-66.5 17.5h-34v-252q0 -40 23 -40h121q59 0 88.5 27.5t34.5 85.5l6 66h13l-11 -186q-8 -8 -31 -8h-385v8h29q30 0 37 20.5t7 106.5v329q0 86 -7 106.5t-37 20.5h-29v8h344q24 0 31 -7l12 -187h-15l-4 58q-4 65 -35.5 93t-92.5 28h-117
v-1q18 -18 18 -43v-218h34q43 0 66.5 17t23.5 71v29h11v-267zM127 749l15 7q51 -74 100 -74q52 0 103 74l12 -7q-19 -43 -49.5 -70t-65.5 -27q-63 0 -115 97z" />
    <glyph glyph-name="ebreve" unicode="&#x115;" horiz-adv-x="516" 
d="M173 657l15 7q51 -74 100 -74q52 0 103 74l12 -7q-19 -43 -49.5 -70t-65.5 -27q-63 0 -115 97zM34 248q0 103 74.5 176.5t179.5 73.5q88 0 141 -45.5t53 -121.5q0 -16 -7.5 -25.5t-20.5 -9.5h-346q-3 -25 -3 -52q0 -98 54.5 -162.5t143.5 -64.5q115 0 173 79l12 -9
q-70 -94 -203 -94q-112 0 -181.5 70.5t-69.5 184.5zM111 311l288 6q14 0 14 15q0 69 -35.5 109.5t-93.5 40.5q-67 0 -113 -46t-60 -125z" />
    <glyph glyph-name="Edotaccent" unicode="&#x116;" horiz-adv-x="463" 
d="M291 172h-11v46q0 54 -23.5 71.5t-66.5 17.5h-34v-252q0 -40 23 -40h121q59 0 88.5 27.5t34.5 85.5l6 66h13l-11 -186q-8 -8 -31 -8h-385v8h29q30 0 37 20.5t7 106.5v329q0 86 -7 106.5t-37 20.5h-29v8h344q24 0 31 -7l12 -187h-15l-4 58q-4 65 -35.5 93t-92.5 28h-117
v-1q18 -18 18 -43v-218h34q43 0 66.5 17t23.5 71v29h11v-267zM279 750q17 0 27 -9.5t10 -26.5t-10 -27.5t-27 -10.5t-27.5 10.5t-10.5 27.5q0 16 10.5 26t27.5 10z" />
    <glyph glyph-name="edotaccent" unicode="&#x117;" horiz-adv-x="516" 
d="M288 658q17 0 27 -9.5t10 -26.5t-10 -27.5t-27 -10.5t-27.5 10.5t-10.5 27.5q0 16 10.5 26t27.5 10zM34 248q0 103 74.5 176.5t179.5 73.5q88 0 141 -45.5t53 -121.5q0 -16 -7.5 -25.5t-20.5 -9.5h-346q-3 -25 -3 -52q0 -98 54.5 -162.5t143.5 -64.5q115 0 173 79l12 -9
q-70 -94 -203 -94q-112 0 -181.5 70.5t-69.5 184.5zM111 311l288 6q14 0 14 15q0 69 -35.5 109.5t-93.5 40.5q-67 0 -113 -46t-60 -125z" />
    <glyph glyph-name="Eogonek" unicode="&#x118;" horiz-adv-x="463" 
d="M15 0v8h29q30 0 37 20.5t7 106.5v329q0 86 -7 106.5t-37 20.5h-29v8h344q24 0 31 -7l12 -187h-15l-4 58q-4 65 -35.5 93t-92.5 28h-117v-1q18 -18 18 -43v-218h34q43 0 66.5 17t23.5 71v29h11v-267h-11v46q0 54 -23.5 71.5t-66.5 17.5h-34v-252q0 -40 23 -40h122
q60 0 90 26.5t34 86.5l5 66h13l-11 -186q-8 -8 -31 -8q-29 0 -63.5 -28t-34.5 -83q0 -28 17.5 -44.5t46.5 -16.5q28 0 76 19l5 -14q-52 -22 -88 -22q-43 0 -69 20.5t-26 54.5q0 39 25 68.5t65 45.5l-2 5q-31 -5 -52 -5h-286z" />
    <glyph glyph-name="eogonek" unicode="&#x119;" horiz-adv-x="516" 
d="M326 -189q-42 0 -68 20.5t-26 54.5t20.5 62t54.5 46q-11 -1 -22 -1q-112 0 -181.5 70.5t-69.5 184.5q0 103 74.5 176.5t179.5 73.5q88 0 141 -45.5t53 -121.5q0 -16 -7.5 -25.5t-20.5 -9.5h-346q-3 -25 -3 -52q0 -98 54.5 -162.5t143.5 -64.5q51 0 97.5 19.5t75.5 59.5
l12 -9q-46 -62 -125 -84q-26 -7 -46.5 -22t-33.5 -39t-13 -53q0 -28 17 -44.5t46 -16.5t76 19l5 -14q-52 -22 -88 -22zM111 311l288 6q14 0 14 15q0 69 -35.5 109.5t-93.5 40.5q-67 0 -113 -46t-60 -125z" />
    <glyph glyph-name="Ecaron" unicode="&#x11a;" horiz-adv-x="463" 
d="M291 172h-11v46q0 54 -23.5 71.5t-66.5 17.5h-34v-252q0 -40 23 -40h121q59 0 88.5 27.5t34.5 85.5l6 66h13l-11 -186q-8 -8 -31 -8h-385v8h29q30 0 37 20.5t7 106.5v329q0 86 -7 106.5t-37 20.5h-29v8h344q24 0 31 -7l12 -187h-15l-4 58q-4 65 -35.5 93t-92.5 28h-117
v-1q18 -18 18 -43v-218h34q43 0 66.5 17t23.5 71v29h11v-267zM254 656h-24l-88 81l16 18l41 -42q41 -42 41 -48h4q0 6 41 48l41 42l16 -18z" />
    <glyph glyph-name="ecaron" unicode="&#x11b;" horiz-adv-x="516" 
d="M300 564h-24l-88 81l16 18l41 -42q41 -42 41 -48h4q0 6 41 48l41 42l16 -18zM34 248q0 103 74.5 176.5t179.5 73.5q88 0 141 -45.5t53 -121.5q0 -16 -7.5 -25.5t-20.5 -9.5h-346q-3 -25 -3 -52q0 -98 54.5 -162.5t143.5 -64.5q115 0 173 79l12 -9q-70 -94 -203 -94
q-112 0 -181.5 70.5t-69.5 184.5zM111 311l288 6q14 0 14 15q0 69 -35.5 109.5t-93.5 40.5q-67 0 -113 -46t-60 -125z" />
    <glyph glyph-name="Gcircumflex" unicode="&#x11c;" horiz-adv-x="584" 
d="M515 -33h-7v58q-1 16 -11 28.5t-23 12.5q-12 0 -24 -12q-58 -61 -148 -61q-123 0 -198.5 85t-75.5 224q0 126 83.5 215t201.5 89q29 0 71.5 -7.5t61.5 -7.5q12 0 36 4l11 -213h-15l-3 56q-4 70 -53.5 111.5t-116.5 41.5q-92 0 -148.5 -76t-56.5 -200q0 -127 60 -217
t145 -90q92 2 142 69v67q0 81 -12.5 100t-64.5 19h-95v15h248q-8 -26 -8 -83v-228zM329 759l88 -81l-16 -18l-41 42q-41 42 -41 48h-4q0 -6 -41 -48l-41 -42l-16 18l88 81h24z" />
    <glyph glyph-name="gcircumflex" unicode="&#x11d;" horiz-adv-x="540" 
d="M107 352q0 -67 42.5 -115t102.5 -48q68 0 110 39.5t42 102.5t-45 107.5t-107 44.5q-65 0 -105 -36t-40 -95zM44 341q0 65 61.5 111t146.5 46q63 0 111.5 -19t75.5 -54q0 35 16 66.5t42 46.5l14 8q9 -13 9 -25q0 -22 -17 -31q-50 -29 -50 -72q0 -15 5 -27q9 -24 9 -50
q0 -71 -61 -119t-154 -48q-26 0 -50 3v-19q0 -46 26 -60.5t78 -14.5h22q76 0 130.5 -30t54.5 -101q0 -57 -68 -99t-159 -42q-105 0 -174.5 39.5t-69.5 97.5q0 47 49 83t123 43q-29 32 -29 84v22q-68 14 -104.5 56t-36.5 105zM228 60q-69 -4 -116.5 -36t-47.5 -76
q0 -35 62 -58t160 -23q86 0 149 24.5t63 60.5q0 29 -33.5 49.5t-84.5 20.5q-103 0 -152 38zM279 666l88 -81l-16 -18l-41 42q-41 42 -41 48h-4q0 -6 -41 -48l-41 -42l-16 18l88 81h24z" />
    <glyph glyph-name="Gbreve" unicode="&#x11e;" horiz-adv-x="584" 
d="M515 -33h-7v58q-1 16 -11 28.5t-23 12.5q-12 0 -24 -12q-58 -61 -148 -61q-123 0 -198.5 85t-75.5 224q0 126 83.5 215t201.5 89q29 0 71.5 -7.5t61.5 -7.5q12 0 36 4l11 -213h-15l-3 56q-4 70 -53.5 111.5t-116.5 41.5q-92 0 -148.5 -76t-56.5 -200q0 -127 60 -217
t145 -90q92 2 142 69v67q0 81 -12.5 100t-64.5 19h-95v15h248q-8 -26 -8 -83v-228zM202 750l15 7q51 -74 100 -74q52 0 103 74l12 -7q-19 -43 -49.5 -70t-65.5 -27q-63 0 -115 97z" />
    <glyph glyph-name="gbreve" unicode="&#x11f;" horiz-adv-x="540" 
d="M107 352q0 -67 42.5 -115t102.5 -48q68 0 110 39.5t42 102.5t-45 107.5t-107 44.5q-65 0 -105 -36t-40 -95zM44 341q0 65 61.5 111t146.5 46q63 0 111.5 -19t75.5 -54q0 35 16 66.5t42 46.5l14 8q9 -13 9 -25q0 -22 -17 -31q-50 -29 -50 -72q0 -15 5 -27q9 -24 9 -50
q0 -71 -61 -119t-154 -48q-26 0 -50 3v-19q0 -46 26 -60.5t78 -14.5h22q76 0 130.5 -30t54.5 -101q0 -57 -68 -99t-159 -42q-105 0 -174.5 39.5t-69.5 97.5q0 47 49 83t123 43q-29 32 -29 84v22q-68 14 -104.5 56t-36.5 105zM228 60q-69 -4 -116.5 -36t-47.5 -76
q0 -35 62 -58t160 -23q86 0 149 24.5t63 60.5q0 29 -33.5 49.5t-84.5 20.5q-103 0 -152 38zM160 657l15 7q51 -74 100 -74q52 0 103 74l12 -7q-19 -43 -49.5 -70t-65.5 -27q-63 0 -115 97z" />
    <glyph glyph-name="Gdotaccent" unicode="&#x120;" horiz-adv-x="584" 
d="M515 -33h-7v58q-1 16 -11 28.5t-23 12.5q-12 0 -24 -12q-58 -61 -148 -61q-123 0 -198.5 85t-75.5 224q0 126 83.5 215t201.5 89q29 0 71.5 -7.5t61.5 -7.5q12 0 36 4l11 -213h-15l-3 56q-4 70 -53.5 111.5t-116.5 41.5q-92 0 -148.5 -76t-56.5 -200q0 -127 60 -217
t145 -90q92 2 142 69v67q0 81 -12.5 100t-64.5 19h-95v15h248q-8 -26 -8 -83v-228zM317 751q17 0 27 -9.5t10 -26.5t-10 -27.5t-27 -10.5t-27.5 10.5t-10.5 27.5q0 16 10.5 26t27.5 10z" />
    <glyph glyph-name="gdotaccent" unicode="&#x121;" horiz-adv-x="540" 
d="M107 352q0 -67 42.5 -115t102.5 -48q68 0 110 39.5t42 102.5t-45 107.5t-107 44.5q-65 0 -105 -36t-40 -95zM44 341q0 65 61.5 111t146.5 46q63 0 111.5 -19t75.5 -54q0 35 16 66.5t42 46.5l14 8q9 -13 9 -25q0 -22 -17 -31q-50 -29 -50 -72q0 -15 5 -27q9 -24 9 -50
q0 -71 -61 -119t-154 -48q-26 0 -50 3v-19q0 -46 26 -60.5t78 -14.5h22q76 0 130.5 -30t54.5 -101q0 -57 -68 -99t-159 -42q-105 0 -174.5 39.5t-69.5 97.5q0 47 49 83t123 43q-29 32 -29 84v22q-68 14 -104.5 56t-36.5 105zM228 60q-69 -4 -116.5 -36t-47.5 -76
q0 -35 62 -58t160 -23q86 0 149 24.5t63 60.5q0 29 -33.5 49.5t-84.5 20.5q-103 0 -152 38zM275 658q17 0 27 -9.5t10 -26.5t-10 -27.5t-27 -10.5t-27.5 10.5t-10.5 27.5q0 16 10.5 26t27.5 10z" />
    <glyph glyph-name="Gcommaaccent" unicode="&#x122;" horiz-adv-x="584" 
d="M282 -182q16 0 30.5 14t17.5 32t3 19l-3 1q-4 -6 -16 -6q-38 0 -38 37q0 38 38 38q16 0 26 -10.5t10 -27.5q0 -47 -18.5 -75.5t-49.5 -28.5v7zM515 -33h-7v58q-1 16 -11 28.5t-23 12.5q-12 0 -24 -12q-58 -61 -148 -61q-123 0 -198.5 85t-75.5 224q0 126 83.5 215
t201.5 89q29 0 71.5 -7.5t61.5 -7.5q12 0 36 4l11 -213h-15l-3 56q-4 70 -53.5 111.5t-116.5 41.5q-92 0 -148.5 -76t-56.5 -200q0 -127 60 -217t145 -90q92 2 142 69v67q0 81 -12.5 100t-64.5 19h-95v15h248q-8 -26 -8 -83v-228z" />
    <glyph glyph-name="gcommaaccent" unicode="&#x123;" horiz-adv-x="540" 
d="M307 709q-16 0 -30.5 -14t-17.5 -32t-3 -19l3 -1q4 6 16 6q38 0 38 -37q0 -38 -38 -38q-16 0 -26 10.5t-10 27.5q0 47 18.5 75.5t49.5 28.5v-7zM107 352q0 -67 42.5 -115t102.5 -48q68 0 110 39.5t42 102.5t-45 107.5t-107 44.5q-65 0 -105 -36t-40 -95zM44 341
q0 65 61.5 111t146.5 46q63 0 111.5 -19t75.5 -54q0 35 16 66.5t42 46.5l14 8q9 -13 9 -25q0 -22 -17 -31q-50 -29 -50 -72q0 -15 5 -27q9 -24 9 -50q0 -71 -61 -119t-154 -48q-26 0 -50 3v-19q0 -46 26 -60.5t78 -14.5h22q76 0 130.5 -30t54.5 -101q0 -57 -68 -99t-159 -42
q-105 0 -174.5 39.5t-69.5 97.5q0 47 49 83t123 43q-29 32 -29 84v22q-68 14 -104.5 56t-36.5 105zM228 60q-69 -4 -116.5 -36t-47.5 -76q0 -35 62 -58t160 -23q86 0 149 24.5t63 60.5q0 29 -33.5 49.5t-84.5 20.5q-103 0 -152 38z" />
    <glyph glyph-name="Hcircumflex" unicode="&#x124;" horiz-adv-x="542" 
d="M280 758l88 -81l-16 -18l-41 42q-41 42 -41 48h-4q0 -6 -41 -48l-41 -42l-16 18l88 81h24zM15 0v8h29q30 0 37 20.5t7 105.5v330q0 86 -7 106.5t-37 20.5h-29v8h208v-8h-22q-30 0 -37.5 -20.5t-7.5 -106.5v-141h229v138q0 88 -7.5 109t-37.5 21h-22v8h209v-8h-30
q-30 0 -37 -21t-7 -109v-326q0 -86 7 -106.5t37 -20.5h30v-8h-209v8h23q30 0 37 20.5t7 106.5v173h-229v-174q0 -85 7.5 -105.5t37.5 -20.5h22v-8h-208z" />
    <glyph glyph-name="hcircumflex" unicode="&#x125;" horiz-adv-x="526" 
d="M293 758l88 -81l-16 -18l-41 42q-41 42 -41 48h-4q0 -6 -41 -48l-41 -42l-16 18l88 81h24zM11 0v8h29q30 0 37 20.5t7 106.5v433q0 73 -4 90.5t-21 17.5h-39v7h48q30 0 52 11t22 34v3h7v-188q0 -96 -15 -216h6q4 28 13 54q18 53 59.5 85t93.5 32q67 0 103.5 -34t36.5 -92
v-237q0 -86 7 -106.5t37 -20.5h30v-8h-212v8h29q30 0 37 20.5t7 106.5v214q0 126 -82 126q-65 0 -107.5 -54t-42.5 -141v-145q0 -86 7.5 -106.5t37.5 -20.5h29v-8h-212z" />
    <glyph glyph-name="Hbar" unicode="&#x126;" horiz-adv-x="542" 
d="M15 0v8h29q30 0 37 20.5t7 105.5v317h-51v22h51v2q0 46 -1 67t-6.5 33.5t-12.5 14t-24 1.5h-29v8h208v-8h-22q-14 0 -20.5 -1.5t-12.5 -6t-8 -18.5t-3 -33.5t-1 -56.5v-2h229q0 37 -1 57t-3 34.5t-8 19t-12.5 6t-20.5 1.5h-22v8h209v-8h-30q-14 0 -20 -1.5t-12 -6t-8 -19
t-3 -34.5t-1 -57h52v-22h-52v-316q0 -86 7 -106.5t37 -20.5h30v-8h-209v8h23q30 0 37 20.5t7 106.5v173h-229v-174q0 -85 7.5 -105.5t37.5 -20.5h22v-8h-208zM156 323h229v128h-229v-128z" />
    <glyph glyph-name="hbar" unicode="&#x127;" horiz-adv-x="534" 
d="M19 0v8h29q21 0 29.5 8.5t11.5 33t3 85.5v413h-79l4 23h75q0 38 -0.5 57t-3.5 31t-7.5 14.5t-13.5 2.5h-39v7h48q30 0 52 11t22 34v3h7v-160h95l-3 -23h-92v-5q0 -96 -15 -216h6q4 28 13 54q18 53 59.5 85t93.5 32q67 0 103.5 -34t36.5 -92v-237q0 -86 7 -106.5t37 -20.5
h30v-8h-212v8h29q30 0 37 20.5t7 106.5v214q0 126 -82 126q-65 0 -107.5 -54t-42.5 -141v-145q0 -86 7.5 -106.5t37.5 -20.5h29v-8h-212z" />
    <glyph glyph-name="Itilde" unicode="&#x128;" horiz-adv-x="241" 
d="M15 592v7h213v-9h-30q-30 0 -37.5 -6.5t-7.5 -36.5v-496q0 -30 7.5 -36.5t37.5 -6.5h30v-8h-213v8h29q30 0 37 6.5t7 36.5v497q0 30 -7 37t-37 7h-29zM223 718q-8 -34 -21.5 -46.5t-32.5 -12.5q-23 0 -60.5 30.5t-52.5 30.5q-19 0 -26 -28l-7 -25l-13 3l7 26
q8 30 20.5 41.5t30.5 11.5q23 0 60 -30t53 -30q21 0 29 32l7 25l13 -4z" />
    <glyph glyph-name="itilde" unicode="&#x129;" horiz-adv-x="241" 
d="M232 626q-8 -33 -21.5 -45.5t-32.5 -12.5q-23 0 -69 30.5t-61 30.5q-19 0 -26 -28l-7 -26l-13 3l7 26q9 31 20.5 42.5t29.5 11.5q23 0 68.5 -30.5t61.5 -30.5q22 0 30 32l6 25l14 -3zM88 134v319q0 14 -7.5 22t-19.5 8h-31v8h113q10 0 10 -10v-347q0 -85 7.5 -105.5
t37.5 -20.5h30v-8h-213v8h29q30 0 37 20t7 106z" />
    <glyph glyph-name="Imacron" unicode="&#x12a;" horiz-adv-x="244" 
d="M234 689h-227l2 21h227zM15 0v8h29q30 0 37 20.5t7 106.5v331q0 84 -7 104.5t-37 20.5h-29v8h214v-10h-29q-30 0 -37 -20.5t-7 -104.5v-329q0 -86 7 -106.5t37 -20.5h29v-8h-214z" />
    <glyph glyph-name="imacron" unicode="&#x12b;" horiz-adv-x="241" 
d="M234 597h-227l2 21h227zM88 134v319q0 14 -7.5 22t-19.5 8h-31v8h113q10 0 10 -10v-347q0 -85 7.5 -105.5t37.5 -20.5h30v-8h-213v8h29q30 0 37 20t7 106z" />
    <glyph glyph-name="Ibreve" unicode="&#x12c;" horiz-adv-x="244" 
d="M6 749l15 7q51 -74 100 -74q52 0 103 74l12 -7q-19 -43 -49.5 -70t-65.5 -27q-63 0 -115 97zM15 0v8h29q30 0 37 20.5t7 106.5v331q0 84 -7 104.5t-37 20.5h-29v8h214v-10h-29q-30 0 -37 -20.5t-7 -104.5v-329q0 -86 7 -106.5t37 -20.5h29v-8h-214z" />
    <glyph glyph-name="ibreve" unicode="&#x12d;" horiz-adv-x="241" 
d="M6 657l15 7q51 -74 100 -74q52 0 103 74l12 -7q-19 -43 -49.5 -70t-65.5 -27q-63 0 -115 97zM88 134v319q0 14 -7.5 22t-19.5 8h-31v8h113q10 0 10 -10v-347q0 -85 7.5 -105.5t37.5 -20.5h30v-8h-213v8h29q30 0 37 20t7 106z" />
    <glyph glyph-name="Iogonek" unicode="&#x12e;" horiz-adv-x="244" 
d="M229 0h-50q-41 -7 -68 -37t-27 -74q0 -28 17.5 -44.5t46.5 -16.5q18 0 48 9l4 -14q-36 -12 -60 -12q-42 0 -68 20.5t-26 54.5q0 39 26 68.5t67 45.5l-1 4q-20 -4 -41 -4h-82v8h29q30 0 37 20.5t7 106.5v331q0 84 -7 104.5t-37 20.5h-29v8h214v-10h-29q-30 0 -37 -20.5
t-7 -104.5v-329q0 -86 7 -106.5t37 -20.5h29v-8z" />
    <glyph glyph-name="iogonek" unicode="&#x12f;" horiz-adv-x="241" 
d="M15 0v8h29q30 0 37 20t7 106v319q0 14 -7.5 22t-19.5 8h-31v8h113q10 0 10 -10v-347q0 -85 7.5 -105.5t37.5 -20.5h30v-8h-49q-41 -7 -68 -37t-27 -74q0 -28 17.5 -44.5t46.5 -16.5q18 0 48 9l4 -14q-36 -12 -60 -12q-42 0 -68 20.5t-26 54.5q0 39 26 68.5t67 45.5l-1 4
q-20 -4 -41 -4h-82zM121 658q17 0 27 -9.5t10 -26.5t-10 -27.5t-27 -10.5t-27.5 10.5t-10.5 27.5q0 16 10.5 26t27.5 10z" />
    <glyph glyph-name="Idotaccent" unicode="&#x130;" horiz-adv-x="244" 
d="M121 750q17 0 27 -9.5t10 -26.5t-10 -27.5t-27 -10.5t-27.5 10.5t-10.5 27.5q0 16 10.5 26t27.5 10zM15 0v8h29q30 0 37 20.5t7 106.5v331q0 84 -7 104.5t-37 20.5h-29v8h214v-10h-29q-30 0 -37 -20.5t-7 -104.5v-329q0 -86 7 -106.5t37 -20.5h29v-8h-214z" />
    <glyph glyph-name="dotlessi" unicode="&#x131;" horiz-adv-x="241" 
d="M88 134v319q0 14 -7.5 22t-19.5 8h-31v8h113q10 0 10 -10v-347q0 -85 7.5 -105.5t37.5 -20.5h30v-8h-213v8h29q30 0 37 20t7 106z" />
    <glyph glyph-name="IJ" unicode="&#x132;" horiz-adv-x="580" 
d="M284 599h291v-8h-21q-30 0 -37.5 -20.5t-7.5 -106.5v-333q0 -62 -38.5 -101t-97.5 -39q-48 0 -77.5 29t-29.5 76h8q0 -41 25 -62.5t71 -21.5q31 0 51 21.5t20 67.5v466q0 15 7 22v2h-25q-121 0 -132 -118l-5 -56h-13zM15 0v8h29q30 0 37 20.5t7 106.5v331q0 84 -7 104.5
t-37 20.5h-29v8h214v-10h-29q-30 0 -37 -20.5t-7 -104.5v-329q0 -86 7 -106.5t37 -20.5h29v-8h-214z" />
    <glyph glyph-name="ij" unicode="&#x133;" horiz-adv-x="442" 
d="M357 658q17 0 27 -9.5t10 -26.5t-10 -27.5t-27 -10.5t-27.5 10.5t-10.5 27.5q0 16 10.5 26t27.5 10zM324 453q0 14 -7.5 22t-19.5 8h-31v8h113q10 0 10 -10v-529q0 -63 -37 -102t-94 -39q-48 0 -77.5 28.5t-29.5 75.5h7q0 -40 27.5 -64.5t72.5 -24.5q66 0 66 88v539z
M121 658q17 0 27 -9.5t10 -26.5t-10 -27.5t-27 -10.5t-27.5 10.5t-10.5 27.5q0 16 10.5 26t27.5 10zM88 134v319q0 14 -7.5 22t-19.5 8h-31v8h113q10 0 10 -10v-347q0 -85 7.5 -105.5t37.5 -20.5h30v-8h-213v8h29q30 0 37 20t7 106z" />
    <glyph glyph-name="Jcircumflex" unicode="&#x134;" horiz-adv-x="344" 
d="M178 758l88 -81l-16 -18l-41 42q-41 42 -41 48h-4q0 -6 -41 -48l-41 -42l-16 18l88 81h24zM42 599h291v-8h-21q-30 0 -37.5 -20.5t-7.5 -106.5v-333q0 -62 -38.5 -101t-97.5 -39q-48 0 -77.5 29t-29.5 76h8q0 -41 25 -62.5t71 -21.5q31 0 51 21.5t20 67.5v466q0 15 7 22
v2h-25q-121 0 -132 -118l-5 -56h-13z" />
    <glyph glyph-name="jcircumflex" unicode="&#x135;" horiz-adv-x="223" 
d="M133 666l88 -81l-16 -18l-41 42q-41 42 -41 48h-4q0 -6 -41 -48l-41 -42l-16 18l88 81h24zM88 453q0 14 -7.5 22t-19.5 8h-31v8h113q10 0 10 -10v-529q0 -63 -37 -102t-94 -39q-48 0 -77.5 28.5t-29.5 75.5h7q0 -40 27.5 -64.5t72.5 -24.5q66 0 66 88v539z" />
    <glyph glyph-name="Kcommaaccent" unicode="&#x136;" horiz-adv-x="506" 
d="M235 -182q16 0 30.5 14t17.5 32t3 19l-3 1q-4 -6 -16 -6q-38 0 -38 37q0 38 38 38q16 0 26 -10.5t10 -27.5q0 -47 -18.5 -75.5t-49.5 -28.5v7zM15 0v8h29q30 0 37 21.5t7 112.5v322q0 86 -7 106.5t-37 20.5h-29v8h194v-8h-7q-31 0 -38.5 -20.5t-7.5 -106.5v-104
q45 0 55 12l99 125l28 41q14 19 14 32q0 21 -39 21h-6v8h184v-8h-3q-61 0 -120 -59l-47 -46l-95 -119l1 -4q38 -8 66 -27t44 -39t27 -53t14.5 -55t8.5 -60q3 -25 5 -38t7 -31t11 -27t16.5 -15.5t24.5 -6.5q20 0 40 16l11 9l4 -6l-10 -8q-39 -31 -68 -31q-24 0 -42 9.5
t-28.5 22.5t-19 38t-12.5 43t-9 50q-6 37 -10.5 59t-16 52t-26 46.5t-39.5 28.5t-58 12h-11v-210q0 -91 7.5 -112.5t38.5 -21.5h29v-8h-216z" />
    <glyph glyph-name="kcommaaccent" unicode="&#x137;" horiz-adv-x="506" 
d="M235 -182q16 0 30.5 14t17.5 32t3 19l-3 1q-4 -6 -16 -6q-38 0 -38 37q0 38 38 38q16 0 26 -10.5t10 -27.5q0 -47 -18.5 -75.5t-49.5 -28.5v7zM84 134v517q0 25 -25 25h-39v7h48q68 0 78 40l2 8h6l-5 -143v-320q45 0 55 12l95 108l31 41q14 19 14 32q0 22 -40 22h-4v8
h184v-8h-7q-61 0 -120 -59l-47 -46l-90 -103v-3q46 -10 76 -27t45 -40t21 -42.5t10 -48.5q7 -54 21.5 -78.5t49.5 -24.5q21 0 41 16l11 9l4 -6l-10 -8q-39 -31 -68 -31q-56 0 -82 33.5t-38 103.5q-5 32 -10.5 49.5t-20 40t-42 33t-68.5 10.5h-11v-127q0 -85 7.5 -105.5
t37.5 -20.5h29v-8h-212v8h29q30 0 37 20t7 106z" />
    <glyph glyph-name="kgreenlandic" unicode="&#x138;" horiz-adv-x="510" 
d="M164 261h-11v-210q0 -30 7.5 -36.5t37.5 -6.5h30v-8h-213v8h29q30 0 37 6.5t7 36.5v389q0 30 -7 37t-37 7h-29v7h213v-7h-30q-30 0 -37.5 -7t-7.5 -37v-172q45 0 55 12l132 149q14 15 14 32q0 22 -43 22h-7v8h184v-8h-10q-71 0 -121 -57l-134 -151v-3q46 -10 76 -27
t45 -41t20.5 -43t9.5 -49q6 -53 22 -77t51 -24q22 0 42 16l10 9l4 -6l-9 -8q-34 -31 -69 -31q-56 0 -80.5 34t-37.5 104q-5 31 -11 49.5t-20.5 40t-42.5 32t-69 10.5z" />
    <glyph glyph-name="Lacute" unicode="&#x139;" horiz-adv-x="432" 
d="M15 0v8h29q30 0 37 21.5t7 111.5v324q0 86 -7 106t-37 20h-29v8h216v-8h-30q-30 0 -37.5 -20.5t-7.5 -105.5v-406q0 -25 -18 -43v-1h113q66 0 100.5 20t39.5 76l6 83h17l-13 -186q-8 -8 -23 -8h-363zM86 631l-9 9l95 115q4 4 8 4q5 0 9 -3l19 -16l-20 -25z" />
    <glyph glyph-name="lacute" unicode="&#x13a;" horiz-adv-x="241" 
d="M88 134v475q0 25 -25 25h-39v8l123 9h6v-517q0 -85 7.5 -105.5t37.5 -20.5h30v-8h-214v8h29q30 0 37.5 20.5t7.5 105.5zM69 676l-6 8l125 86q3 3 7 3q6 0 10 -6l11 -16l-26 -19z" />
    <glyph glyph-name="Lcommaaccent" unicode="&#x13b;" horiz-adv-x="432" 
d="M193 -182q16 0 30.5 14t17.5 32t3 19l-3 1q-4 -6 -16 -6q-38 0 -38 37q0 38 38 38q16 0 26 -10.5t10 -27.5q0 -47 -18.5 -75.5t-49.5 -28.5v7zM15 0v8h29q30 0 37 21.5t7 111.5v324q0 86 -7 106t-37 20h-29v8h216v-8h-30q-30 0 -37.5 -20.5t-7.5 -105.5v-406
q0 -25 -18 -43v-1h113q66 0 100.5 20t39.5 76l6 83h17l-13 -186q-8 -8 -23 -8h-363z" />
    <glyph glyph-name="lcommaaccent" unicode="&#x13c;" horiz-adv-x="241" 
d="M89 -182q16 0 30.5 14t17.5 32t3 19l-3 1q-4 -6 -16 -6q-38 0 -38 37q0 38 38 38q16 0 26 -10.5t10 -27.5q0 -47 -18.5 -75.5t-49.5 -28.5v7zM14 0v8h29q30 0 37.5 20.5t7.5 105.5v517q0 25 -25 25h-39v7h48q30 0 52.5 11t22.5 34v3h6v-597q0 -85 7.5 -105.5t37.5 -20.5
h30v-8h-214z" />
    <glyph glyph-name="Lcaron" unicode="&#x13d;" horiz-adv-x="437" 
d="M15 0v8h29q29 0 36.5 9.5t7.5 40.5v490q0 30 -7 37t-37 7h-29v7h213v-7h-30q-30 0 -37.5 -7t-7.5 -37v-489q0 -25 -18 -43v-1h113q66 0 100.5 20t39.5 76l6 83h17l-17 -236h-8l3 50h-1q-8 -8 -22 -8h-351zM357 472q16 0 30 14t17 32q2 15 4 18l-3 2q-4 -6 -17 -6
q-37 0 -37 36q0 38 37 38q16 0 26.5 -10.5t10.5 -27.5q0 -47 -18.5 -75.5t-49.5 -28.5v8z" />
    <glyph glyph-name="lcaron" unicode="&#x13e;" horiz-adv-x="300" 
d="M227 545q16 0 30.5 14t17.5 32t3 19l-3 1q-4 -6 -16 -6q-38 0 -38 37q0 38 38 38q16 0 26 -10.5t10 -27.5q0 -47 -18.5 -75.5t-49.5 -28.5v7zM14 0v8h29q30 0 37.5 20.5t7.5 105.5v517q0 25 -25 25h-39v7h48q30 0 52.5 11t22.5 34v3h6v-597q0 -85 7.5 -105.5t37.5 -20.5
h30v-8h-214z" />
    <glyph glyph-name="Ldot" unicode="&#x13f;" horiz-adv-x="432" 
d="M297 369q16 0 26 -10.5t10 -27.5t-9.5 -27t-26.5 -10t-27.5 10t-10.5 27t10.5 27.5t27.5 10.5zM15 0v8h29q30 0 37 21.5t7 111.5v324q0 86 -7 106t-37 20h-29v8h216v-8h-30q-30 0 -37.5 -20.5t-7.5 -105.5v-406q0 -25 -18 -43v-1h113q66 0 100.5 20t39.5 76l6 83h17
l-13 -186q-8 -8 -23 -8h-363z" />
    <glyph glyph-name="ldot" unicode="&#x140;" horiz-adv-x="319" 
d="M266 341q16 0 26 -10.5t10 -27.5t-9.5 -27t-26.5 -10t-27.5 10t-10.5 27t10.5 27.5t27.5 10.5zM14 0v8h29q30 0 37.5 20.5t7.5 105.5v517q0 25 -25 25h-39v7h48q30 0 52.5 11t22.5 34v3h6v-597q0 -85 7.5 -105.5t37.5 -20.5h30v-8h-214z" />
    <glyph glyph-name="Lslash" unicode="&#x141;" horiz-adv-x="441" 
d="M165 342l-4 -46h4l160 123l14 -19l-174 -125v-216q0 -25 -18 -43v-1h113q66 0 100.5 20t39.5 76l6 83h17l-13 -186q-8 -8 -23 -8h-363v8h29q30 0 37 21.5t7 111.5v40l5 44h-5l-76 -60l-12 17l88 64v219q0 86 -7 106t-37 20h-29v8h216v-8h-30q-30 0 -37.5 -20.5
t-7.5 -105.5v-123z" />
    <glyph glyph-name="lslash" unicode="&#x142;" horiz-adv-x="289" 
d="M177 134q0 -85 7.5 -105.5t37.5 -20.5h30v-8h-214v8h29q30 0 37.5 20.5t7.5 105.5v131l2 22h-2l-75 -63l-13 17l88 70v340q0 25 -25 25h-39v8h47q30 0 52.5 10.5t22.5 33.5v3h7v-346l-3 -23h3l91 71l13 -17l-104 -77v-205z" />
    <glyph glyph-name="Nacute" unicode="&#x143;" horiz-adv-x="490" 
d="M204 631l-9 9l95 115q4 4 8 4q5 0 9 -3l19 -16l-20 -25zM15 0v8h17q26 0 37.5 26t11.5 101v413q0 30 -7.5 36.5t-37.5 6.5h-21v8h129l233 -420q15 -27 15 -31h5q-1 9 -1 35v266q0 78 -11 110t-38 32h-42v8h175v-8h-17q-28 0 -39 -27.5t-11 -114.5v-461h-9q0 6 -24 48
l-262 469q-17 28 -17 33h-4q1 -9 1 -36v-367q0 -70 11 -98.5t38 -28.5h17v-8h-149z" />
    <glyph glyph-name="nacute" unicode="&#x144;" horiz-adv-x="522" 
d="M231 539l-9 9l95 115q4 4 8 4q5 0 9 -3l19 -16l-20 -25zM15 0v8h29q30 0 37 20.5t7 106.5v307q0 15 -6.5 22.5t-16.5 7.5t-17 -8t-7 -22v-31h-8v31q0 25 16.5 38.5t39.5 13.5q21 0 36 -11.5t15 -32.5v-36q0 -71 -2 -87h6q3 24 14 54q18 53 59 85t93 32q67 0 103.5 -34
t36.5 -92v-237q0 -86 7 -106.5t37 -20.5h22v-8h-204v8h29q30 0 37 20.5t7 106.5v214q0 126 -82 126q-65 0 -107.5 -54t-42.5 -141v-145q0 -86 7.5 -106.5t37.5 -20.5h30v-8h-213z" />
    <glyph glyph-name="Ncommaaccent" unicode="&#x145;" horiz-adv-x="490" 
d="M228 -182q16 0 30.5 14t17.5 32t3 19l-3 1q-4 -6 -16 -6q-38 0 -38 37q0 38 38 38q16 0 26 -10.5t10 -27.5q0 -47 -18.5 -75.5t-49.5 -28.5v7zM15 0v8h17q26 0 37.5 26t11.5 101v413q0 30 -7.5 36.5t-37.5 6.5h-21v8h129l233 -420q15 -27 15 -31h5q-1 9 -1 35v266
q0 78 -11 110t-38 32h-42v8h175v-8h-17q-28 0 -39 -27.5t-11 -114.5v-461h-9q0 6 -24 48l-262 469q-17 28 -17 33h-4q1 -9 1 -36v-367q0 -70 11 -98.5t38 -28.5h17v-8h-149z" />
    <glyph glyph-name="ncommaaccent" unicode="&#x146;" horiz-adv-x="522" 
d="M236 -182q16 0 30.5 14t17.5 32t3 19l-3 1q-4 -6 -16 -6q-38 0 -38 37q0 38 38 38q16 0 26 -10.5t10 -27.5q0 -47 -18.5 -75.5t-49.5 -28.5v7zM15 0v8h29q30 0 37 20.5t7 106.5v307q0 15 -6.5 22.5t-16.5 7.5t-17 -8t-7 -22v-31h-8v31q0 25 16.5 38.5t39.5 13.5
q21 0 36 -11.5t15 -32.5v-36q0 -71 -2 -87h6q3 24 14 54q18 53 59 85t93 32q67 0 103.5 -34t36.5 -92v-237q0 -86 7 -106.5t37 -20.5h22v-8h-204v8h29q30 0 37 20.5t7 106.5v214q0 126 -82 126q-65 0 -107.5 -54t-42.5 -141v-145q0 -86 7.5 -106.5t37.5 -20.5h30v-8h-213z
" />
    <glyph glyph-name="Ncaron" unicode="&#x147;" horiz-adv-x="490" 
d="M250 657h-24l-88 81l16 18l41 -42q41 -42 41 -48h4q0 6 41 48l41 42l16 -18zM15 0v8h17q26 0 37.5 26t11.5 101v413q0 30 -7.5 36.5t-37.5 6.5h-21v8h129l233 -420q15 -27 15 -31h5q-1 9 -1 35v266q0 78 -11 110t-38 32h-42v8h175v-8h-17q-28 0 -39 -27.5t-11 -114.5
v-461h-9q0 6 -24 48l-262 469q-17 28 -17 33h-4q1 -9 1 -36v-367q0 -70 11 -98.5t38 -28.5h17v-8h-149z" />
    <glyph glyph-name="ncaron" unicode="&#x148;" horiz-adv-x="522" 
d="M279 564h-24l-88 81l16 18l41 -42q41 -42 41 -48h4q0 6 41 48l41 42l16 -18zM15 0v8h29q30 0 37 20.5t7 106.5v307q0 15 -6.5 22.5t-16.5 7.5t-17 -8t-7 -22v-31h-8v31q0 25 16.5 38.5t39.5 13.5q21 0 36 -11.5t15 -32.5v-36q0 -71 -2 -87h6q3 24 14 54q18 53 59 85
t93 32q67 0 103.5 -34t36.5 -92v-237q0 -86 7 -106.5t37 -20.5h22v-8h-204v8h29q30 0 37 20.5t7 106.5v214q0 126 -82 126q-65 0 -107.5 -54t-42.5 -141v-145q0 -86 7.5 -106.5t37.5 -20.5h30v-8h-213z" />
    <glyph glyph-name="napostrophe" unicode="&#x149;" horiz-adv-x="622" 
d="M106 617q0 -43 -17 -65t-50 -38l-6 12q38 17 51 47q3 11 6 15l-4 2q-6 -10 -16 -10q-38 0 -38 37q0 38 38 38q16 0 26 -10.5t10 -27.5zM115 0v8h29q30 0 37 20.5t7 106.5v307q0 15 -6.5 22.5t-16.5 7.5t-17 -8t-7 -22v-31h-8v31q0 25 16.5 38.5t39.5 13.5q21 0 36 -11.5
t15 -32.5v-36q0 -71 -2 -87h6q3 24 14 54q18 53 59 85t93 32q67 0 103.5 -34t36.5 -92v-237q0 -86 7 -106.5t37 -20.5h22v-8h-204v8h29q30 0 37 20.5t7 106.5v214q0 126 -82 126q-65 0 -107.5 -54t-42.5 -141v-145q0 -86 7.5 -106.5t37.5 -20.5h30v-8h-213z" />
    <glyph glyph-name="Eng" unicode="&#x14a;" horiz-adv-x="500" 
d="M15 0v8h29q30 0 37 7t7 37v475q0 26 -27 26h-3l-50 -4v5l64 14q61 13 61 60v4h7v-110q0 -71 -2 -87h6q3 24 14 54q18 53 59 85t93 32q67 0 103.5 -34t36.5 -92v-443q0 -63 -38.5 -101.5t-100.5 -38.5q-15 0 -67 13l6 17q51 -15 68 -15q67 0 67 89v465q0 126 -82 126
q-65 0 -107.5 -57t-42.5 -147v-336q0 -30 7.5 -37t37.5 -7h30v-8h-213z" />
    <glyph glyph-name="eng" unicode="&#x14b;" horiz-adv-x="500" 
d="M15 0v8h29q30 0 37 7t7 37v366q0 12 -7.5 19.5t-19.5 7.5h-3l-50 -4v5l64 13q27 6 44 21.5t17 39.5v3h7v-109q0 -71 -2 -87h6q3 24 14 54q18 53 59 85t93 32q67 0 103.5 -34t36.5 -92v-335q0 -63 -38.5 -101.5t-100.5 -38.5q-15 0 -67 13l6 17q51 -15 68 -15q67 0 67 89
v357q0 125 -82 125q-65 0 -107.5 -56.5t-42.5 -146.5v-228q0 -30 7.5 -37t37.5 -7h30v-8h-213z" />
    <glyph glyph-name="Omacron" unicode="&#x14c;" horiz-adv-x="644" 
d="M448 689h-227l2 21h227zM322 -7q-133 0 -214.5 84.5t-81.5 222.5q0 127 86.5 216.5t209.5 89.5q133 0 214.5 -84t81.5 -222q0 -127 -87 -217t-209 -90zM325 8q99 0 159.5 76t60.5 200q0 127 -66 217t-160 90q-99 0 -160 -76t-61 -200q0 -127 66.5 -217t160.5 -90z" />
    <glyph glyph-name="omacron" unicode="&#x14d;" horiz-adv-x="604" 
d="M411 597h-227l2 21h227zM302 -7q-121 0 -194.5 69.5t-73.5 183.5q0 104 79 178t189 74q120 0 194 -69.5t74 -182.5q0 -104 -78.5 -178.5t-189.5 -74.5zM304 8q87 0 141 62t54 162q0 103 -59 176.5t-142 73.5q-87 0 -140 -61t-53 -162q0 -104 58 -177.5t141 -73.5z" />
    <glyph glyph-name="Obreve" unicode="&#x14e;" horiz-adv-x="644" 
d="M220 749l15 7q51 -74 100 -74q52 0 103 74l12 -7q-19 -43 -49.5 -70t-65.5 -27q-63 0 -115 97zM322 -7q-133 0 -214.5 84.5t-81.5 222.5q0 127 86.5 216.5t209.5 89.5q133 0 214.5 -84t81.5 -222q0 -127 -87 -217t-209 -90zM325 8q99 0 159.5 76t60.5 200q0 127 -66 217
t-160 90q-99 0 -160 -76t-61 -200q0 -127 66.5 -217t160.5 -90z" />
    <glyph glyph-name="obreve" unicode="&#x14f;" horiz-adv-x="604" 
d="M183 657l15 7q51 -74 100 -74q52 0 103 74l12 -7q-19 -43 -49.5 -70t-65.5 -27q-63 0 -115 97zM302 -7q-121 0 -194.5 69.5t-73.5 183.5q0 104 79 178t189 74q120 0 194 -69.5t74 -182.5q0 -104 -78.5 -178.5t-189.5 -74.5zM304 8q87 0 141 62t54 162q0 103 -59 176.5
t-142 73.5q-87 0 -140 -61t-53 -162q0 -104 58 -177.5t141 -73.5z" />
    <glyph glyph-name="Ohungarumlaut" unicode="&#x150;" horiz-adv-x="644" 
d="M446 758l18 -17l-14 -16l-77 -69l-8 8zM313 758l18 -17l-14 -16l-78 -69l-7 8zM322 -7q-133 0 -214.5 84.5t-81.5 222.5q0 127 86.5 216.5t209.5 89.5q133 0 214.5 -84t81.5 -222q0 -127 -87 -217t-209 -90zM325 8q99 0 159.5 76t60.5 200q0 127 -66 217t-160 90
q-99 0 -160 -76t-61 -200q0 -127 66.5 -217t160.5 -90z" />
    <glyph glyph-name="ohungarumlaut" unicode="&#x151;" horiz-adv-x="604" 
d="M409 666l18 -17l-14 -16l-77 -69l-8 8zM276 666l18 -17l-14 -16l-78 -69l-7 8zM302 -7q-121 0 -194.5 69.5t-73.5 183.5q0 104 79 178t189 74q120 0 194 -69.5t74 -182.5q0 -104 -78.5 -178.5t-189.5 -74.5zM304 8q87 0 141 62t54 162q0 103 -59 176.5t-142 73.5
q-87 0 -140 -61t-53 -162q0 -104 58 -177.5t141 -73.5z" />
    <glyph glyph-name="OE" unicode="&#x152;" horiz-adv-x="767" 
d="M290 599h373q24 0 31 -7l12 -187h-15l-4 58q-4 65 -35.5 93t-92.5 28h-109v-1q18 -18 18 -43v-218h26q43 0 66.5 17t23.5 71v29h11v-267h-11v46q0 54 -23.5 71.5t-66.5 17.5h-26v-252q0 -40 23 -40h113q59 0 88.5 27.5t34.5 85.5l6 66h13l-11 -186q-8 -8 -31 -8h-414
q-119 0 -191.5 82.5t-72.5 217.5q0 124 77.5 211.5t186.5 87.5zM287 584q-85 0 -137 -74.5t-52 -194.5q0 -124 57.5 -212t137.5 -88h31q51 0 63.5 20.5t12.5 106.5v315q0 86 -12.5 106.5t-63.5 20.5h-37z" />
    <glyph glyph-name="oe" unicode="&#x153;" horiz-adv-x="962" 
d="M296 8q84 0 135.5 62t51.5 162q0 103 -56.5 176.5t-136.5 73.5q-83 0 -134 -61.5t-51 -161.5q0 -104 56 -177.5t135 -73.5zM294 -7q-117 0 -188.5 69.5t-71.5 183.5q0 104 76.5 178t183.5 74q79 0 137.5 -35t87.5 -97q31 60 88.5 96t126.5 36q88 0 141 -45.5t53 -121.5
q0 -16 -7.5 -25.5t-20.5 -9.5h-346q-3 -25 -3 -52q0 -98 54.5 -162.5t143.5 -64.5q115 0 173 79l12 -9q-70 -94 -203 -94q-75 0 -131.5 35.5t-85.5 97.5q-32 -60 -90.5 -96.5t-129.5 -36.5zM557 311l288 6q14 0 14 15q0 69 -35.5 109.5t-93.5 40.5q-67 0 -113 -46t-60 -125z
" />
    <glyph glyph-name="Racute" unicode="&#x154;" horiz-adv-x="521" 
d="M15 0v8h29q30 0 37 20.5t7 106.5v329q0 86 -7 106.5t-37 20.5h-29v8h216q102 0 164 -48.5t62 -128.5q0 -68 -55 -113.5t-132 -55.5l-21 -3v-5q28 -3 51 -15.5t42 -36t29 -40.5t27 -48q46 -86 80 -86q14 0 25 10l19 16l4 -6l-18 -16q-38 -32 -69 -32q-48 0 -98 84
q-67 112 -92.5 141.5t-60.5 29.5h-8v14h38q69 0 118 48t49 115t-47 114t-113 47h-83v-1q14 -14 14 -43v-405q0 -86 7.5 -106.5t37.5 -20.5h49v-8h-235zM186 631l-9 9l95 115q4 4 8 4q5 0 9 -3l19 -16l-20 -25z" />
    <glyph glyph-name="racute" unicode="&#x155;" horiz-adv-x="371" 
d="M15 0v8h29q30 0 37 20.5t7 106.5v318q0 14 -7.5 22t-19.5 8h-31v8h101q15 0 15 -15v-62q0 -55 -7 -76v-2h7q16 77 56.5 119.5t94.5 42.5q71 0 71 -47q0 -18 -12 -31t-29 -13q-18 0 -30.5 12.5t-12.5 30.5q0 16 10 26v1q-63 0 -102 -64.5t-39 -169.5v-109
q0 -86 7.5 -106.5t37.5 -20.5h53v-7h-236zM176 539l-9 9l95 115q4 4 8 4q5 0 9 -3l19 -16l-20 -25z" />
    <glyph glyph-name="Rcommaaccent" unicode="&#x156;" horiz-adv-x="521" 
d="M263 -182q16 0 30.5 14t17.5 32t3 19l-3 1q-4 -6 -16 -6q-38 0 -38 37q0 38 38 38q16 0 26 -10.5t10 -27.5q0 -47 -18.5 -75.5t-49.5 -28.5v7zM15 0v8h29q30 0 37 20.5t7 106.5v329q0 86 -7 106.5t-37 20.5h-29v8h216q102 0 164 -48.5t62 -128.5q0 -68 -55 -113.5
t-132 -55.5l-21 -3v-5q28 -3 51 -15.5t42 -36t29 -40.5t27 -48q46 -86 80 -86q14 0 25 10l19 16l4 -6l-18 -16q-38 -32 -69 -32q-48 0 -98 84q-67 112 -92.5 141.5t-60.5 29.5h-8v14h38q69 0 118 48t49 115t-47 114t-113 47h-83v-1q14 -14 14 -43v-405q0 -86 7.5 -106.5
t37.5 -20.5h49v-8h-235z" />
    <glyph glyph-name="rcommaaccent" unicode="&#x157;" horiz-adv-x="371" 
d="M114 -182q16 0 30.5 14t17.5 32t3 19l-3 1q-4 -6 -16 -6q-38 0 -38 37q0 38 38 38q16 0 26 -10.5t10 -27.5q0 -47 -18.5 -75.5t-49.5 -28.5v7zM15 0v8h29q30 0 37 20.5t7 106.5v318q0 14 -7.5 22t-19.5 8h-31v8h101q15 0 15 -15v-62q0 -55 -7 -76v-2h7q16 77 56.5 119.5
t94.5 42.5q71 0 71 -47q0 -18 -12 -31t-29 -13q-18 0 -30.5 12.5t-12.5 30.5q0 16 10 26v1q-63 0 -102 -64.5t-39 -169.5v-109q0 -86 7.5 -106.5t37.5 -20.5h53v-7h-236z" />
    <glyph glyph-name="Rcaron" unicode="&#x158;" horiz-adv-x="521" 
d="M15 0v8h29q30 0 37 20.5t7 106.5v329q0 86 -7 106.5t-37 20.5h-29v8h216q102 0 164 -48.5t62 -128.5q0 -68 -55 -113.5t-132 -55.5l-21 -3v-5q28 -3 51 -15.5t42 -36t29 -40.5t27 -48q46 -86 80 -86q14 0 25 10l19 16l4 -6l-18 -16q-38 -32 -69 -32q-48 0 -98 84
q-67 112 -92.5 141.5t-60.5 29.5h-8v14h38q69 0 118 48t49 115t-47 114t-113 47h-83v-1q14 -14 14 -43v-405q0 -86 7.5 -106.5t37.5 -20.5h49v-8h-235zM234 656h-24l-88 81l16 18l41 -42q41 -42 41 -48h4q0 6 41 48l41 42l16 -18z" />
    <glyph glyph-name="rcaron" unicode="&#x159;" horiz-adv-x="371" 
d="M15 0v8h29q30 0 37 20.5t7 106.5v318q0 14 -7.5 22t-19.5 8h-31v8h101q15 0 15 -15v-62q0 -55 -7 -76v-2h7q16 77 56.5 119.5t94.5 42.5q71 0 71 -47q0 -18 -12 -31t-29 -13q-18 0 -30.5 12.5t-12.5 30.5q0 16 10 26v1q-63 0 -102 -64.5t-39 -169.5v-109
q0 -86 7.5 -106.5t37.5 -20.5h53v-7h-236zM224 564h-24l-88 81l16 18l41 -42q41 -42 41 -48h4q0 6 41 48l41 42l16 -18z" />
    <glyph glyph-name="Sacute" unicode="&#x15a;" horiz-adv-x="398" 
d="M169 631l-9 9l95 115q4 4 8 4q5 0 9 -3l19 -16l-20 -25zM25 204l15 1l3 -47q5 -71 45.5 -110t101.5 -39q56 0 90.5 33t34.5 88q0 34 -20 63.5t-43 47t-64 41.5q-35 21 -55 35t-45.5 38t-37.5 52.5t-12 63.5q0 61 45.5 98t119.5 37q23 0 57 -4.5t49 -4.5q18 0 29 2l9 -173
l-15 -1l-2 35q-2 54 -35.5 92.5t-91.5 38.5q-51 0 -79 -26.5t-28 -75.5q0 -25 9.5 -45.5t31.5 -39.5t38.5 -30.5t48.5 -30.5q35 -21 56.5 -36t47 -40t38 -56t12.5 -68q0 -67 -51.5 -108t-134.5 -41q-25 0 -70 7t-59 7q-15 0 -29 -4z" />
    <glyph glyph-name="sacute" unicode="&#x15b;" horiz-adv-x="423" 
d="M203 -7q-32 0 -73 8.5t-54 8.5q-12 0 -29 -5l-10 203h15l3 -58q3 -67 45 -104.5t103 -37.5q55 0 89.5 31.5t34.5 82.5q0 25 -19.5 46t-41.5 32.5t-62 27.5q-36 15 -56.5 25t-47 27.5t-39 40t-12.5 50.5q0 59 46.5 93t121.5 34q34 0 67 -5.5t39 -5.5q13 0 28 4l8 -173h-15
l-2 34q-3 52 -35.5 91t-89.5 39q-110 0 -110 -93q0 -14 7.5 -26.5t17 -21.5t28.5 -19t32 -15.5t37 -15.5q36 -15 58.5 -26t49.5 -30t40 -43.5t13 -55.5q0 -64 -51.5 -103.5t-135.5 -39.5zM174 539l-9 9l95 115q4 4 8 4q5 0 9 -3l19 -16l-20 -25z" />
    <glyph glyph-name="Scircumflex" unicode="&#x15c;" horiz-adv-x="398" 
d="M217 758l88 -81l-16 -18l-41 42q-41 42 -41 48h-4q0 -6 -41 -48l-41 -42l-16 18l88 81h24zM25 204l15 1l3 -47q5 -71 45.5 -110t101.5 -39q56 0 90.5 33t34.5 88q0 34 -20 63.5t-43 47t-64 41.5q-35 21 -55 35t-45.5 38t-37.5 52.5t-12 63.5q0 61 45.5 98t119.5 37
q23 0 57 -4.5t49 -4.5q18 0 29 2l9 -173l-15 -1l-2 35q-2 54 -35.5 92.5t-91.5 38.5q-51 0 -79 -26.5t-28 -75.5q0 -25 9.5 -45.5t31.5 -39.5t38.5 -30.5t48.5 -30.5q35 -21 56.5 -36t47 -40t38 -56t12.5 -68q0 -67 -51.5 -108t-134.5 -41q-25 0 -70 7t-59 7q-15 0 -29 -4z
" />
    <glyph glyph-name="scircumflex" unicode="&#x15d;" horiz-adv-x="423" 
d="M203 -7q-32 0 -73 8.5t-54 8.5q-12 0 -29 -5l-10 203h15l3 -58q3 -67 45 -104.5t103 -37.5q55 0 89.5 31.5t34.5 82.5q0 25 -19.5 46t-41.5 32.5t-62 27.5q-36 15 -56.5 25t-47 27.5t-39 40t-12.5 50.5q0 59 46.5 93t121.5 34q34 0 67 -5.5t39 -5.5q13 0 28 4l8 -173h-15
l-2 34q-3 52 -35.5 91t-89.5 39q-110 0 -110 -93q0 -14 7.5 -26.5t17 -21.5t28.5 -19t32 -15.5t37 -15.5q36 -15 58.5 -26t49.5 -30t40 -43.5t13 -55.5q0 -64 -51.5 -103.5t-135.5 -39.5zM228 666l88 -81l-16 -18l-41 42q-41 42 -41 48h-4q0 -6 -41 -48l-41 -42l-16 18
l88 81h24z" />
    <glyph glyph-name="Scedilla" unicode="&#x15e;" horiz-adv-x="398" 
d="M25 204l15 1l3 -47q5 -71 45.5 -110t101.5 -39q56 0 90.5 33t34.5 88q0 26 -10 48t-30.5 41t-38.5 32t-48 31q-28 16 -44 27t-39 30t-35.5 36.5t-22 42.5t-9.5 53q0 61 45.5 98t119.5 37q23 0 57 -4.5t49 -4.5q18 0 29 2l9 -173l-15 -1l-2 35q-2 54 -35.5 92.5
t-91.5 38.5q-25 0 -45 -6.5t-34 -19.5t-21 -32t-7 -44q0 -17 4.5 -32t15 -28.5t20 -23.5t27 -22.5t29 -19.5t32.5 -20q28 -17 45 -28t40.5 -31t36.5 -38.5t22.5 -45.5t9.5 -57q0 -66 -50 -107t-132 -42l-9 -45q16 6 28 6q33 0 52.5 -18.5t19.5 -44.5q0 -34 -38.5 -57
t-93.5 -23l3 15q37 0 63 21t26 52q0 17 -9 29t-24 12q-23 0 -34 -10l-11 2l12 61q-22 1 -63 7.5t-55 6.5q-15 0 -29 -4z" />
    <glyph glyph-name="scedilla" unicode="&#x15f;" horiz-adv-x="423" 
d="M47 5l-10 203h15l3 -58q3 -67 45 -104.5t103 -37.5q55 0 89.5 31.5t34.5 82.5q0 36 -31 58t-92 47q-30 12 -45 19t-40 21t-37.5 27t-22.5 33.5t-10 43.5q0 59 46.5 93t121.5 34q34 0 67 -5.5t39 -5.5q13 0 28 4l8 -173h-15l-2 34q-3 52 -35.5 91t-89.5 39
q-110 0 -110 -93q0 -14 7.5 -26.5t17 -21.5t28.5 -19t32 -15.5t37 -15.5q38 -16 58.5 -26t48.5 -29t41 -43.5t13 -56.5q0 -64 -51.5 -103.5t-135.5 -39.5l-9 -44q16 6 28 6q33 0 52.5 -18.5t19.5 -44.5q0 -34 -38.5 -57t-93.5 -23l3 15q37 0 63 21t26 52q0 17 -9 29t-24 12
q-23 0 -34 -10l-11 2l12 60q-26 2 -62 9.5t-50 7.5q-12 0 -29 -5z" />
    <glyph glyph-name="Scaron" unicode="&#x160;" horiz-adv-x="398" 
d="M217 656h-24l-88 81l16 18l41 -42q41 -42 41 -48h4q0 6 41 48l41 42l16 -18zM25 204l15 1l3 -47q5 -71 45.5 -110t101.5 -39q56 0 90.5 33t34.5 88q0 34 -20 63.5t-43 47t-64 41.5q-35 21 -55 35t-45.5 38t-37.5 52.5t-12 63.5q0 61 45.5 98t119.5 37q23 0 57 -4.5
t49 -4.5q18 0 29 2l9 -173l-15 -1l-2 35q-2 54 -35.5 92.5t-91.5 38.5q-51 0 -79 -26.5t-28 -75.5q0 -25 9.5 -45.5t31.5 -39.5t38.5 -30.5t48.5 -30.5q35 -21 56.5 -36t47 -40t38 -56t12.5 -68q0 -67 -51.5 -108t-134.5 -41q-25 0 -70 7t-59 7q-15 0 -29 -4z" />
    <glyph glyph-name="scaron" unicode="&#x161;" horiz-adv-x="423" 
d="M203 -7q-32 0 -73 8.5t-54 8.5q-12 0 -29 -5l-10 203h15l3 -58q3 -67 45 -104.5t103 -37.5q55 0 89.5 31.5t34.5 82.5q0 25 -19.5 46t-41.5 32.5t-62 27.5q-36 15 -56.5 25t-47 27.5t-39 40t-12.5 50.5q0 59 46.5 93t121.5 34q34 0 67 -5.5t39 -5.5q13 0 28 4l8 -173h-15
l-2 34q-3 52 -35.5 91t-89.5 39q-110 0 -110 -93q0 -14 7.5 -26.5t17 -21.5t28.5 -19t32 -15.5t37 -15.5q36 -15 58.5 -26t49.5 -30t40 -43.5t13 -55.5q0 -64 -51.5 -103.5t-135.5 -39.5zM222 564h-24l-88 81l16 18l41 -42q41 -42 41 -48h4q0 6 41 48l41 42l16 -18z" />
    <glyph glyph-name="Tcedilla" unicode="&#x162;" horiz-adv-x="448" 
d="M82 0v8h64q30 0 37 20.5t7 106.5v449h-27q-61 0 -95 -20t-38 -76l-3 -34l-15 1l10 144h405l9 -144l-15 -1l-3 34q-4 56 -38 76t-95 20h-27v-449q0 -86 7 -106.5t37 -20.5h61v-8h-154l-8 -41q16 6 28 6q34 0 54 -18t20 -44q0 -34 -39 -57.5t-95 -23.5l3 15q37 0 63 21
t26 52q0 17 -9 29t-24 12q-23 0 -34 -10l-11 2l11 57h-112z" />
    <glyph glyph-name="tcedilla" unicode="&#x163;" horiz-adv-x="382" 
d="M108 122v341h-100v21h48q34 0 59 27t33.5 53t8.5 42v93h15v-172q0 -31 -10 -35v-1h197l-5 -28h-182v-355q0 -41 19 -66t50 -25q41 0 64 26.5t23 71.5v25h15v-25q0 -55 -29.5 -88.5t-77.5 -33.5q-20 0 -38 5l-10 -49q16 6 28 6q34 0 54 -18t20 -44q0 -35 -39 -58t-95 -23
l3 15q37 0 63 21t26 52q0 11 -4 20.5t-11.5 15t-17.5 5.5q-23 0 -34 -10l-11 2l14 69q-36 14 -56 45.5t-20 74.5z" />
    <glyph glyph-name="Tcaron" unicode="&#x164;" horiz-adv-x="448" 
d="M236 656h-24l-88 81l16 18l41 -42q41 -42 41 -48h4q0 6 41 48l41 42l16 -18zM82 0v8h64q30 0 37 20.5t7 106.5v449h-27q-61 0 -95 -20t-38 -76l-3 -34l-15 1l10 144h405l9 -144l-15 -1l-3 34q-4 56 -38 76t-95 20h-27v-449q0 -86 7 -106.5t37 -20.5h61v-8h-281z" />
    <glyph glyph-name="tcaron" unicode="&#x165;" horiz-adv-x="441" 
d="M368 533q16 0 30.5 14t17.5 32t3 19l-3 1q-4 -6 -16 -6q-38 0 -38 37q0 38 38 38q16 0 26 -10.5t10 -27.5q0 -47 -18.5 -75.5t-49.5 -28.5v7zM108 122v341h-100v21h48q34 0 59 27t33.5 53t8.5 42v93h15v-172q0 -31 -10 -35v-1h197l-5 -28h-182v-355q0 -41 19 -66t50 -25
q41 0 64 26.5t23 71.5v25h15v-25q0 -55 -29.5 -88.5t-77.5 -33.5q-58 0 -93 35.5t-35 93.5z" />
    <glyph glyph-name="Tbar" unicode="&#x166;" horiz-adv-x="448" 
d="M82 0v8h64q30 0 37 20.5t7 106.5v197h-87l4 23h83v229h-27q-61 0 -95 -20t-38 -76l-3 -34l-15 1l10 144h405l9 -144l-15 -1l-3 34q-4 56 -38 76t-95 20h-27v-229h85l-3 -23h-82v-197q0 -86 7 -106.5t37 -20.5h61v-8h-281z" />
    <glyph glyph-name="tbar" unicode="&#x167;" horiz-adv-x="382" 
d="M108 122v210h-62l3 23h59v108h-100v21h48q34 0 59 27t33.5 53t8.5 42v93h15v-172q0 -31 -10 -35v-1h197l-5 -28h-182v-108h139l-3 -23h-136v-224q0 -41 19 -66t50 -25q41 0 64 26.5t23 71.5v25h15v-25q0 -55 -29.5 -88.5t-77.5 -33.5q-58 0 -93 35.5t-35 93.5z" />
    <glyph glyph-name="Utilde" unicode="&#x168;" horiz-adv-x="487" 
d="M374 718q-8 -33 -21.5 -45.5t-32.5 -12.5q-23 0 -69 30.5t-61 30.5q-19 0 -26 -28l-7 -26l-13 3l7 26q9 31 20.5 42.5t29.5 11.5q23 0 68.5 -30.5t61.5 -30.5q22 0 30 32l6 25l14 -3zM82 137v327q0 86 -7.5 106.5t-37.5 20.5h-22v8h216v-8h-37q-30 0 -37 -20.5t-7 -106.5
v-349q0 -99 101 -99q67 0 101.5 31t34.5 90v312q0 78 -10.5 110t-36.5 32h-30v8h163v-8h-21q-26 0 -37 -32t-11 -110v-312q0 -70 -39.5 -107t-113.5 -37q-75 0 -122 40t-47 104z" />
    <glyph glyph-name="utilde" unicode="&#x169;" horiz-adv-x="514" 
d="M75 119v334q0 14 -7.5 22t-19.5 8h-31v8h108q15 0 15 -15v-349q0 -57 22.5 -88t59.5 -31q67 0 108 58.5t41 154.5v218q0 30 -7.5 37t-37.5 7h-15v8l131 3v-6q-4 -30 -4 -45v-396q0 -28 23 -28q24 0 24 29v13h8v-13q0 -23 -17 -37.5t-39 -14.5q-20 0 -34.5 13t-14.5 36
v118h-7q-13 -86 -58 -128t-108 -42t-101.5 33t-38.5 93zM361 626q-8 -33 -21.5 -45.5t-32.5 -12.5q-23 0 -69 30.5t-61 30.5q-19 0 -26 -28l-7 -26l-13 3l7 26q9 31 20.5 42.5t29.5 11.5q23 0 68.5 -30.5t61.5 -30.5q22 0 30 32l6 25l14 -3z" />
    <glyph glyph-name="Umacron" unicode="&#x16a;" horiz-adv-x="487" 
d="M376 689h-227l2 21h227zM82 137v327q0 86 -7.5 106.5t-37.5 20.5h-22v8h216v-8h-37q-30 0 -37 -20.5t-7 -106.5v-349q0 -99 101 -99q67 0 101.5 31t34.5 90v312q0 78 -10.5 110t-36.5 32h-30v8h163v-8h-21q-26 0 -37 -32t-11 -110v-312q0 -70 -39.5 -107t-113.5 -37
q-75 0 -122 40t-47 104z" />
    <glyph glyph-name="umacron" unicode="&#x16b;" horiz-adv-x="514" 
d="M75 119v334q0 14 -7.5 22t-19.5 8h-31v8h108q15 0 15 -15v-349q0 -57 22.5 -88t59.5 -31q67 0 108 58.5t41 154.5v218q0 30 -7.5 37t-37.5 7h-15v8l131 3v-6q-4 -30 -4 -45v-396q0 -28 23 -28q24 0 24 29v13h8v-13q0 -23 -17 -37.5t-39 -14.5q-20 0 -34.5 13t-14.5 36
v118h-7q-13 -86 -58 -128t-108 -42t-101.5 33t-38.5 93zM363 597h-227l2 21h227z" />
    <glyph glyph-name="Ubreve" unicode="&#x16c;" horiz-adv-x="487" 
d="M148 749l15 7q51 -74 100 -74q52 0 103 74l12 -7q-19 -43 -49.5 -70t-65.5 -27q-63 0 -115 97zM82 137v327q0 86 -7.5 106.5t-37.5 20.5h-22v8h216v-8h-37q-30 0 -37 -20.5t-7 -106.5v-349q0 -99 101 -99q67 0 101.5 31t34.5 90v312q0 78 -10.5 110t-36.5 32h-30v8h163
v-8h-21q-26 0 -37 -32t-11 -110v-312q0 -70 -39.5 -107t-113.5 -37q-75 0 -122 40t-47 104z" />
    <glyph glyph-name="ubreve" unicode="&#x16d;" horiz-adv-x="514" 
d="M75 119v334q0 14 -7.5 22t-19.5 8h-31v8h108q15 0 15 -15v-349q0 -57 22.5 -88t59.5 -31q67 0 108 58.5t41 154.5v218q0 30 -7.5 37t-37.5 7h-15v8l131 3v-6q-4 -30 -4 -45v-396q0 -28 23 -28q24 0 24 29v13h8v-13q0 -23 -17 -37.5t-39 -14.5q-20 0 -34.5 13t-14.5 36
v118h-7q-13 -86 -58 -128t-108 -42t-101.5 33t-38.5 93zM135 657l15 7q51 -74 100 -74q52 0 103 74l12 -7q-19 -43 -49.5 -70t-65.5 -27q-63 0 -115 97z" />
    <glyph glyph-name="Uring" unicode="&#x16e;" horiz-adv-x="487" 
d="M263 750q-19 0 -35.5 -15.5t-16.5 -35.5q0 -19 17 -35.5t35 -16.5q19 0 35.5 16t16.5 36t-16.5 35.5t-35.5 15.5zM263 773q28 0 51 -22.5t23 -51.5t-23 -51.5t-51 -22.5t-50.5 23t-22.5 51q0 29 22.5 51.5t50.5 22.5zM82 137v327q0 86 -7.5 106.5t-37.5 20.5h-22v8h216
v-8h-37q-30 0 -37 -20.5t-7 -106.5v-349q0 -99 101 -99q67 0 101.5 31t34.5 90v312q0 78 -10.5 110t-36.5 32h-30v8h163v-8h-21q-26 0 -37 -32t-11 -110v-312q0 -70 -39.5 -107t-113.5 -37q-75 0 -122 40t-47 104z" />
    <glyph glyph-name="uring" unicode="&#x16f;" horiz-adv-x="514" 
d="M75 119v334q0 14 -7.5 22t-19.5 8h-31v8h108q15 0 15 -15v-349q0 -57 22.5 -88t59.5 -31q67 0 108 58.5t41 154.5v218q0 30 -7.5 37t-37.5 7h-15v8l131 3v-6q-4 -30 -4 -45v-396q0 -28 23 -28q24 0 24 29v13h8v-13q0 -23 -17 -37.5t-39 -14.5q-20 0 -34.5 13t-14.5 36
v118h-7q-13 -86 -58 -128t-108 -42t-101.5 33t-38.5 93zM250 658q-19 0 -35.5 -15.5t-16.5 -35.5q0 -19 17 -35.5t35 -16.5q19 0 35.5 16t16.5 36t-16.5 35.5t-35.5 15.5zM250 681q28 0 51 -22.5t23 -51.5t-23 -51.5t-51 -22.5t-50.5 23t-22.5 51q0 29 22.5 51.5t50.5 22.5z
" />
    <glyph glyph-name="Uhungarumlaut" unicode="&#x170;" horiz-adv-x="487" 
d="M374 758l18 -17l-14 -16l-77 -69l-8 8zM241 758l18 -17l-14 -16l-78 -69l-7 8zM82 137v327q0 86 -7.5 106.5t-37.5 20.5h-22v8h216v-8h-37q-30 0 -37 -20.5t-7 -106.5v-349q0 -99 101 -99q67 0 101.5 31t34.5 90v312q0 78 -10.5 110t-36.5 32h-30v8h163v-8h-21
q-26 0 -37 -32t-11 -110v-312q0 -70 -39.5 -107t-113.5 -37q-75 0 -122 40t-47 104z" />
    <glyph glyph-name="uhungarumlaut" unicode="&#x171;" horiz-adv-x="514" 
d="M75 119v334q0 14 -7.5 22t-19.5 8h-31v8h108q15 0 15 -15v-349q0 -57 22.5 -88t59.5 -31q67 0 108 58.5t41 154.5v218q0 30 -7.5 37t-37.5 7h-15v8l131 3v-6q-4 -30 -4 -45v-396q0 -28 23 -28q24 0 24 29v13h8v-13q0 -23 -17 -37.5t-39 -14.5q-20 0 -34.5 13t-14.5 36
v118h-7q-13 -86 -58 -128t-108 -42t-101.5 33t-38.5 93zM361 666l18 -17l-14 -16l-77 -69l-8 8zM228 666l18 -17l-14 -16l-78 -69l-7 8z" />
    <glyph glyph-name="Uogonek" unicode="&#x172;" horiz-adv-x="487" 
d="M278 -189q-28 0 -49 9t-33 26.5t-12 39.5q0 33 20 61t55 46h-8q-75 0 -122 40t-47 104v327q0 61 -3 85.5t-12 33t-30 8.5h-22v8h216v-8h-37q-21 0 -29.5 -8.5t-11.5 -33t-3 -85.5v-349q0 -48 26 -73.5t75 -25.5q67 0 101.5 31t34.5 90v312q0 78 -10.5 110t-36.5 32h-30v8
h163v-8h-21q-26 0 -37 -32t-11 -110v-312q0 -117 -105 -139q-17 -5 -31.5 -15t-25 -23.5t-16 -32t-5.5 -38.5q0 -18 8 -32t22.5 -21.5t33.5 -7.5q29 0 76 19l5 -14q-52 -22 -88 -22z" />
    <glyph glyph-name="uogonek" unicode="&#x173;" horiz-adv-x="514" 
d="M75 119v334q0 14 -7.5 22t-19.5 8h-31v8h108q15 0 15 -15v-349q0 -57 22.5 -88t59.5 -31q67 0 108 58.5t41 154.5v218q0 30 -7.5 37t-37.5 7h-15v8l131 3v-6q-4 -30 -4 -45v-396q0 -28 23 -28q10 0 17 7.5t7 21.5v13h8v-13q0 -13 -5.5 -23.5t-14.5 -17t-21 -9.5
q-35 -10 -56.5 -39t-21.5 -70q0 -18 8 -32t22.5 -21.5t33.5 -7.5q28 0 76 19l5 -14q-52 -22 -88 -22q-42 0 -68 20.5t-26 54.5q0 36 23 65.5t62 46.5q-34 9 -34 47v118h-7q-13 -86 -58 -128t-108 -42t-101.5 33t-38.5 93z" />
    <glyph glyph-name="Wcircumflex" unicode="&#x174;" horiz-adv-x="844" 
d="M479 758l88 -81l-16 -18l-41 42q-41 42 -41 48h-4q0 -6 -41 -48l-41 -42l-16 18l88 81h24zM386 540q-9 31 -18 41t-31 10h-7v8h191v-8h-54q-18 0 -18 -25q0 -7 2 -14l131 -440q6 -20 6 -30h9q0 12 8 33l126 355l17 71q3 11 3 19q0 31 -45 31h-12v8h144v-8h-4
q-29 0 -50 -51l-32 -75l-170 -468h-34l-124 416l-123 -416h-36l-197 543q-9 24 -13 32t-12 13.5t-23 5.5h-12v8h120v-11q0 -22 5 -36l164 -440q4 -8 4 -30h7q0 2 9 33l97 330z" />
    <glyph glyph-name="wcircumflex" unicode="&#x175;" horiz-adv-x="755" 
d="M416 666l88 -81l-16 -18l-41 42q-41 42 -41 48h-4q0 -6 -41 -48l-41 -42l-16 18l88 81h24zM233 -4l-165 436q-12 32 -20 41.5t-28 9.5h-12v8h120v-12q0 -23 5 -36l127 -321q5 -13 5 -34h9q0 6 7 30l89 294l-6 20q-9 31 -18 41t-31 10h-19v8h191v-8h-42q-19 0 -19 -23
q0 -8 3 -17l98 -325q5 -18 5 -30h9q0 5 10 32l94 246l16 67q3 12 3 20q0 30 -44 30h-15v8h143v-8h-5q-18 0 -28 -11.5t-22 -39.5l-31 -71l-139 -364l-28 -1l-115 384l-116 -384h-31z" />
    <glyph glyph-name="Ycircumflex" unicode="&#x176;" horiz-adv-x="479" 
d="M262 759l88 -81l-16 -18l-41 42q-41 42 -41 48h-4q0 -6 -41 -48l-41 -42l-16 18l88 81h24zM96 0v8h71q30 0 37 20.5t7 106.5v149l-130 250q-17 32 -27.5 44.5t-27.5 12.5h-18v8h158v-8h-52v-2q13 -5 34 -45l108 -205q9 -19 11 -27h5q2 8 11 27l69 133l27 60q11 24 11 37
q0 22 -36 22h-44v8h161v-8h-4q-16 0 -29.5 -13t-32.5 -45l-40 -68l-86 -168v-162q0 -86 7 -106.5t37 -20.5h60v-8h-287z" />
    <glyph glyph-name="ycircumflex" unicode="&#x177;" horiz-adv-x="492" 
d="M270 666l88 -81l-16 -18l-41 42q-41 42 -41 48h-4q0 -6 -41 -48l-41 -42l-16 18l88 81h24zM241 -5q5 12 5 24t-5 23l-169 390q-13 31 -21.5 41t-28.5 10h-13v8h161v-8h-59v-1q11 -4 27 -40l134 -306q6 -14 6 -35v-2h3l104 265l20 68q4 14 4 24q0 27 -41 27h-28v8h145v-7
q-17 0 -27 -11.5t-23 -41.5l-32 -72l-177 -449q-17 -44 -46.5 -71.5t-64.5 -27.5q-26 0 -44.5 23t-18.5 55q41 -19 70 -19q69 0 94 62z" />
    <glyph glyph-name="Ydieresis" unicode="&#x178;" horiz-adv-x="479" 
d="M168 737q17 0 27.5 -10t10.5 -27t-10.5 -27t-27.5 -10t-26.5 10t-9.5 27t9.5 27t26.5 10zM332 737q17 0 26.5 -10t9.5 -27t-9.5 -27t-26.5 -10t-27.5 10t-10.5 27t10.5 27t27.5 10zM96 0v8h71q30 0 37 20.5t7 106.5v149l-130 250q-17 32 -27.5 44.5t-27.5 12.5h-18v8h158
v-8h-52v-2q13 -5 34 -45l108 -205q9 -19 11 -27h5q2 8 11 27l69 133l27 60q11 24 11 37q0 22 -36 22h-44v8h161v-8h-4q-16 0 -29.5 -13t-32.5 -45l-40 -68l-86 -168v-162q0 -86 7 -106.5t37 -20.5h60v-8h-287z" />
    <glyph glyph-name="Zacute" unicode="&#x179;" horiz-adv-x="437" 
d="M184 631l-9 9l95 115q4 4 8 4q5 0 9 -3l19 -16l-20 -25zM4 0v8q11 0 28 16t32 48l218 459q8 19 25.5 33t32.5 18v2h-128q-148 0 -158 -96l-2 -17l-9 1l6 118q8 9 24 9h337v-7q-9 0 -26 -16.5t-32 -48.5l-218 -457q-18 -37 -40 -52v-3h149q64 0 107.5 22.5t47.5 68.5l3 30
h11l-7 -127q-9 -9 -22 -9h-379z" />
    <glyph glyph-name="zacute" unicode="&#x17a;" horiz-adv-x="416" 
d="M0 0v8q23 0 60 64l200 350q24 43 56 51v3h-124q-63 0 -95.5 -22t-38.5 -75l-2 -16h-11l6 120q6 8 22 8h316v-8q-7 0 -23.5 -18t-33.5 -47l-200 -348q-24 -41 -40 -52v-3h147q131 0 139 91l2 30h12l-8 -128q-2 -8 -20 -8h-364zM185 539l-9 9l95 115q4 4 8 4q5 0 9 -3
l19 -16l-20 -25z" />
    <glyph glyph-name="Zdotaccent" unicode="&#x17b;" horiz-adv-x="437" 
d="M220 750q17 0 27 -9.5t10 -26.5t-10 -27.5t-27 -10.5t-27.5 10.5t-10.5 27.5q0 16 10.5 26t27.5 10zM4 0v8q11 0 28 16t32 48l218 459q8 19 25.5 33t32.5 18v2h-128q-148 0 -158 -96l-2 -17l-9 1l6 118q8 9 24 9h337v-7q-9 0 -26 -16.5t-32 -48.5l-218 -457
q-18 -37 -40 -52v-3h149q64 0 107.5 22.5t47.5 68.5l3 30h11l-7 -127q-9 -9 -22 -9h-379z" />
    <glyph glyph-name="zdotaccent" unicode="&#x17c;" horiz-adv-x="416" 
d="M0 0v8q23 0 60 64l200 350q24 43 56 51v3h-124q-63 0 -95.5 -22t-38.5 -75l-2 -16h-11l6 120q6 8 22 8h316v-8q-7 0 -23.5 -18t-33.5 -47l-200 -348q-24 -41 -40 -52v-3h147q131 0 139 91l2 30h12l-8 -128q-2 -8 -20 -8h-364zM221 658q17 0 27 -9.5t10 -26.5t-10 -27.5
t-27 -10.5t-27.5 10.5t-10.5 27.5q0 16 10.5 26t27.5 10z" />
    <glyph glyph-name="Zcaron" unicode="&#x17d;" horiz-adv-x="437" 
d="M232 656h-24l-88 81l16 18l41 -42q41 -42 41 -48h4q0 6 41 48l41 42l16 -18zM4 0v8q11 0 28 16t32 48l218 459q8 19 25.5 33t32.5 18v2h-128q-148 0 -158 -96l-2 -17l-9 1l6 118q8 9 24 9h337v-7q-9 0 -26 -16.5t-32 -48.5l-218 -457q-18 -37 -40 -52v-3h149
q64 0 107.5 22.5t47.5 68.5l3 30h11l-7 -127q-9 -9 -22 -9h-379z" />
    <glyph glyph-name="zcaron" unicode="&#x17e;" horiz-adv-x="416" 
d="M0 0v8q23 0 60 64l200 350q24 43 56 51v3h-124q-63 0 -95.5 -22t-38.5 -75l-2 -16h-11l6 120q6 8 22 8h316v-8q-7 0 -23.5 -18t-33.5 -47l-200 -348q-24 -41 -40 -52v-3h147q131 0 139 91l2 30h12l-8 -128q-2 -8 -20 -8h-364zM233 564h-24l-88 81l16 18l41 -42
q41 -42 41 -48h4q0 6 41 48l41 42l16 -18z" />
    <glyph glyph-name="florin" unicode="&#x192;" horiz-adv-x="288" 
d="M265 528q-18 20 -53 20q-67 0 -73 -96l-4 -68h74l-1 -22h-86v-1q9 -5 9 -26l-31 -446h-59l33 473h-52l2 22h52l2 30q12 156 136 156q44 0 66 -32z" />
    <glyph glyph-name="uni01CD" unicode="&#x1cd;" horiz-adv-x="590" 
d="M337 656h-24l-88 81l16 18l41 -42q41 -42 41 -48h4q0 6 41 48l41 42l16 -18zM7 0v8q29 0 54 51l37 75l184 424q14 32 15 45h17l213 -544q13 -32 21 -41.5t28 -9.5h6v-8h-163v8h19q28 0 28 22q0 8 -4 18l-51 131h-179l-96 -2l-21 -49l-23 -69q-4 -11 -4 -21q0 -30 40 -30
h28v-8h-149zM144 197l92 -3h169l-109 279q-8 23 -8 49h-5z" />
    <glyph glyph-name="uni01CE" unicode="&#x1ce;" horiz-adv-x="459" 
d="M31 97q0 68 55 104t160 36h70v136q0 109 -99 109q-59 0 -92 -31.5t-36 -82.5l-4 -50h-15l9 173q12 -3 24 -3q11 0 48.5 5t64.5 5q81 0 124 -35t43 -101v-315q0 -28 23 -28q24 0 24 29v13h8v-13q0 -22 -15.5 -37t-37.5 -15q-19 0 -32.5 14t-14.5 35l-5 83h-8
q-15 -71 -57 -103t-93 -32q-67 0 -105.5 28.5t-38.5 75.5zM98 97q0 -37 25 -59t62 -22q52 0 91.5 44t39.5 128v34h-66q-74 0 -113 -32t-39 -93zM230 564h-24l-88 81l16 18l41 -42q41 -42 41 -48h4q0 6 41 48l41 42l16 -18z" />
    <glyph glyph-name="uni01CF" unicode="&#x1cf;" horiz-adv-x="244" 
d="M133 656h-24l-88 81l16 18l41 -42q41 -42 41 -48h4q0 6 41 48l41 42l16 -18zM15 0v8h29q30 0 37 20.5t7 106.5v331q0 84 -7 104.5t-37 20.5h-29v8h214v-10h-29q-30 0 -37 -20.5t-7 -104.5v-329q0 -86 7 -106.5t37 -20.5h29v-8h-214z" />
    <glyph glyph-name="uni01D0" unicode="&#x1d0;" horiz-adv-x="241" 
d="M133 564h-24l-88 81l16 18l41 -42q41 -42 41 -48h4q0 6 41 48l41 42l16 -18zM88 134v319q0 14 -7.5 22t-19.5 8h-31v8h113q10 0 10 -10v-347q0 -85 7.5 -105.5t37.5 -20.5h30v-8h-213v8h29q30 0 37 20t7 106z" />
    <glyph glyph-name="uni01D1" unicode="&#x1d1;" horiz-adv-x="644" 
d="M347 657h-24l-88 81l16 18l41 -42q41 -42 41 -48h4q0 6 41 48l41 42l16 -18zM322 -7q-133 0 -214.5 84.5t-81.5 222.5q0 127 86.5 216.5t209.5 89.5q133 0 214.5 -84t81.5 -222q0 -127 -87 -217t-209 -90zM325 8q99 0 159.5 76t60.5 200q0 127 -66 217t-160 90
q-99 0 -160 -76t-61 -200q0 -127 66.5 -217t160.5 -90z" />
    <glyph glyph-name="uni01D2" unicode="&#x1d2;" horiz-adv-x="604" 
d="M319 564h-24l-88 81l16 18l41 -42q41 -42 41 -48h4q0 6 41 48l41 42l16 -18zM302 -7q-121 0 -194.5 69.5t-73.5 183.5q0 104 79 178t189 74q120 0 194 -69.5t74 -182.5q0 -104 -78.5 -178.5t-189.5 -74.5zM304 8q87 0 141 62t54 162q0 103 -59 176.5t-142 73.5
q-87 0 -140 -61t-53 -162q0 -104 58 -177.5t141 -73.5z" />
    <glyph glyph-name="uni01D3" unicode="&#x1d3;" horiz-adv-x="487" 
d="M275 656h-24l-88 81l16 18l41 -42q41 -42 41 -48h4q0 6 41 48l41 42l16 -18zM82 137v327q0 86 -7.5 106.5t-37.5 20.5h-22v8h216v-8h-37q-30 0 -37 -20.5t-7 -106.5v-349q0 -99 101 -99q67 0 101.5 31t34.5 90v312q0 78 -10.5 110t-36.5 32h-30v8h163v-8h-21
q-26 0 -37 -32t-11 -110v-312q0 -70 -39.5 -107t-113.5 -37q-75 0 -122 40t-47 104z" />
    <glyph glyph-name="uni01D4" unicode="&#x1d4;" horiz-adv-x="514" 
d="M75 119v334q0 14 -7.5 22t-19.5 8h-31v8h108q15 0 15 -15v-349q0 -57 22.5 -88t59.5 -31q67 0 108 58.5t41 154.5v218q0 30 -7.5 37t-37.5 7h-15v8l131 3v-6q-4 -30 -4 -45v-396q0 -28 23 -28q24 0 24 29v13h8v-13q0 -23 -17 -37.5t-39 -14.5q-20 0 -34.5 13t-14.5 36
v118h-7q-13 -86 -58 -128t-108 -42t-101.5 33t-38.5 93zM262 564h-24l-88 81l16 18l41 -42q41 -42 41 -48h4q0 6 41 48l41 42l16 -18z" />
    <glyph glyph-name="uni01E2" unicode="&#x1e2;" horiz-adv-x="755" 
d="M273 555q6 14 6 22q0 12 -13 12v10h385q24 0 31 -7l12 -187h-15l-4 58q-4 65 -35.5 93t-92.5 28h-113v-1q18 -18 18 -43v-246h30q43 0 66.5 17t23.5 71v37h11v-267h-11v38q0 54 -23.5 71.5t-66.5 17.5h-30v-224q0 -40 23 -40h117q59 0 88.5 27.5t34.5 85.5l6 66h13
l-11 -186q-8 -8 -31 -8h-381v8h29q30 0 37 20.5t7 106.5v144h-136l-72 -1l-61 -150l-23 -69q-4 -11 -4 -21q0 -30 40 -30h28v-8h-149v8q29 0 54 51l37 75zM384 584h-62q-22 0 -33 -28l-106 -260l69 -2h132v290zM531 689h-227l2 21h227z" />
    <glyph glyph-name="uni01E3" unicode="&#x1e3;" horiz-adv-x="815" 
d="M318 271h-61q-72 0 -115.5 -42t-43.5 -111q0 -42 26.5 -72t63.5 -30q50 0 90 45t40 127v83zM387 286q54 1 160.5 3t160.5 3q6 0 6 7q0 82 -42.5 132.5t-112.5 50.5q-69 0 -115.5 -53.5t-56.5 -142.5zM332 187q0 -93 -47.5 -143.5t-106.5 -50.5q-67 0 -108 34.5t-41 90.5
q0 70 65.5 119t157.5 49h66v87q0 53 -25.5 81t-73.5 28q-59 0 -92 -31.5t-36 -82.5l-4 -50h-15l9 173q12 -3 24 -3q11 0 48.5 5t64.5 5q135 0 155 -99q21 30 49.5 52t64.5 34.5t76 12.5q99 0 160 -55t61 -144v-4q0 -10 -7.5 -17t-18.5 -7h-373q-1 -9 -1 -27q0 -97 55.5 -162
t135.5 -65q66 0 118.5 29.5t78.5 84.5l12 -8q-29 -61 -88 -95.5t-136 -34.5q-94 0 -153.5 52t-74.5 142zM483 597h-227l2 21h227z" />
    <glyph glyph-name="Gcaron" unicode="&#x1e6;" horiz-adv-x="584" 
d="M515 -33h-7v58q-1 16 -11 28.5t-23 12.5q-12 0 -24 -12q-58 -61 -148 -61q-123 0 -198.5 85t-75.5 224q0 126 83.5 215t201.5 89q29 0 71.5 -7.5t61.5 -7.5q12 0 36 4l11 -213h-15l-3 56q-4 70 -53.5 111.5t-116.5 41.5q-92 0 -148.5 -76t-56.5 -200q0 -127 60 -217
t145 -90q92 2 142 69v67q0 81 -12.5 100t-64.5 19h-95v15h248q-8 -26 -8 -83v-228zM329 657h-24l-88 81l16 18l41 -42q41 -42 41 -48h4q0 6 41 48l41 42l16 -18z" />
    <glyph glyph-name="gcaron" unicode="&#x1e7;" horiz-adv-x="540" 
d="M107 352q0 -67 42.5 -115t102.5 -48q68 0 110 39.5t42 102.5t-45 107.5t-107 44.5q-65 0 -105 -36t-40 -95zM44 341q0 65 61.5 111t146.5 46q63 0 111.5 -19t75.5 -54q0 35 16 66.5t42 46.5l14 8q9 -13 9 -25q0 -22 -17 -31q-50 -29 -50 -72q0 -15 5 -27q9 -24 9 -50
q0 -71 -61 -119t-154 -48q-26 0 -50 3v-19q0 -46 26 -60.5t78 -14.5h22q76 0 130.5 -30t54.5 -101q0 -57 -68 -99t-159 -42q-105 0 -174.5 39.5t-69.5 97.5q0 47 49 83t123 43q-29 32 -29 84v22q-68 14 -104.5 56t-36.5 105zM228 60q-69 -4 -116.5 -36t-47.5 -76
q0 -35 62 -58t160 -23q86 0 149 24.5t63 60.5q0 29 -33.5 49.5t-84.5 20.5q-103 0 -152 38zM287 564h-24l-88 81l16 18l41 -42q41 -42 41 -48h4q0 6 41 48l41 42l16 -18z" />
    <glyph glyph-name="uni01E8" unicode="&#x1e8;" horiz-adv-x="506" 
d="M15 0v8h29q30 0 37 21.5t7 112.5v322q0 86 -7 106.5t-37 20.5h-29v8h194v-8h-7q-31 0 -38.5 -20.5t-7.5 -106.5v-104q45 0 55 12l99 125l28 41q14 19 14 32q0 21 -39 21h-6v8h184v-8h-3q-61 0 -120 -59l-47 -46l-95 -119l1 -4q38 -8 66 -27t44 -39t27 -53t14.5 -55
t8.5 -60q3 -25 5 -38t7 -31t11 -27t16.5 -15.5t24.5 -6.5q20 0 40 16l11 9l4 -6l-10 -8q-39 -31 -68 -31q-24 0 -42 9.5t-28.5 22.5t-19 38t-12.5 43t-9 50q-6 37 -10.5 59t-16 52t-26 46.5t-39.5 28.5t-58 12h-11v-210q0 -91 7.5 -112.5t38.5 -21.5h29v-8h-216zM260 656
h-24l-88 81l16 18l41 -42q41 -42 41 -48h4q0 6 41 48l41 42l16 -18z" />
    <glyph glyph-name="uni01E9" unicode="&#x1e9;" horiz-adv-x="506" 
d="M84 134v517q0 25 -25 25h-39v7h48q68 0 78 40l2 8h6l-5 -143v-320q45 0 55 12l95 108l31 41q14 19 14 32q0 22 -40 22h-4v8h184v-8h-7q-61 0 -120 -59l-47 -46l-90 -103v-3q46 -10 76 -27t45 -40t21 -42.5t10 -48.5q7 -54 21.5 -78.5t49.5 -24.5q21 0 41 16l11 9l4 -6
l-10 -8q-39 -31 -68 -31q-56 0 -82 33.5t-38 103.5q-5 32 -10.5 49.5t-20 40t-42 33t-68.5 10.5h-11v-127q0 -85 7.5 -105.5t37.5 -20.5h29v-8h-212v8h29q30 0 37 20t7 106zM303 656h-24l-88 81l16 18l41 -42q41 -42 41 -48h4q0 6 41 48l41 42l16 -18z" />
    <glyph glyph-name="uni01EA" unicode="&#x1ea;" horiz-adv-x="644" 
d="M355 -189q-28 0 -49 9t-33 26.5t-12 39.5q0 33 20 61t55 46h-14q-88 0 -155.5 38t-104 108t-36.5 161q0 127 86.5 216.5t209.5 89.5q133 0 214.5 -84t81.5 -222q0 -55 -18.5 -106.5t-50.5 -91t-77 -67t-96 -37.5q-35 -10 -56.5 -39t-21.5 -70q0 -18 8 -32t22.5 -21.5
t33.5 -7.5q29 0 76 19l5 -14q-52 -22 -88 -22zM325 8q65 0 115 34t77.5 97t27.5 145q0 127 -66 217t-160 90q-99 0 -160 -76t-61 -200q0 -127 66.5 -217t160.5 -90z" />
    <glyph glyph-name="uni01EB" unicode="&#x1eb;" horiz-adv-x="604" 
d="M302 -7q-121 0 -194.5 69.5t-73.5 183.5q0 104 79 178t189 74q79 0 140 -31.5t94.5 -88.5t33.5 -132q0 -90 -60.5 -160t-153.5 -88q-35 -10 -56.5 -39t-21.5 -70q0 -18 8 -32t22.5 -21.5t33.5 -7.5q29 0 76 19l5 -14q-52 -22 -88 -22q-42 0 -68 20.5t-26 54t20 61.5
t55 46h-14zM304 8q87 0 141 62t54 162q0 68 -27 125.5t-73.5 91t-100.5 33.5q-87 0 -140 -61t-53 -162q0 -104 58 -177.5t141 -73.5z" />
    <glyph glyph-name="uni01EC" unicode="&#x1ec;" horiz-adv-x="644" 
d="M448 689h-227l2 21h227zM355 -189q-42 0 -68 20.5t-26 54t20 61.5t55 46h-14q-133 0 -214.5 84.5t-81.5 222.5q0 127 86.5 216.5t209.5 89.5q133 0 214.5 -84t81.5 -222q0 -111 -69 -196.5t-173 -105.5q-35 -10 -56.5 -39t-21.5 -70q0 -18 8 -32t22.5 -21.5t33.5 -7.5
q29 0 76 19l5 -14q-52 -22 -88 -22zM325 8q99 0 159.5 76t60.5 200q0 127 -66 217t-160 90q-99 0 -160 -76t-61 -200q0 -127 66.5 -217t160.5 -90z" />
    <glyph glyph-name="uni01ED" unicode="&#x1ed;" horiz-adv-x="604" 
d="M302 -7q-121 0 -194.5 69.5t-73.5 183.5q0 104 79 178t189 74q120 0 194 -69.5t74 -182.5q0 -90 -60.5 -160t-153.5 -88q-35 -10 -56.5 -39t-21.5 -70q0 -18 8 -32t22.5 -21.5t33.5 -7.5q29 0 76 19l5 -14q-52 -22 -88 -22q-42 0 -68 20.5t-26 54t20 61.5t55 46h-14z
M304 8q87 0 141 62t54 162q0 103 -59 176.5t-142 73.5q-87 0 -140 -61t-53 -162q0 -104 58 -177.5t141 -73.5zM411 597h-227l2 21h227z" />
    <glyph glyph-name="uni01F0" unicode="&#x1f0;" horiz-adv-x="223" 
d="M133 564h-24l-88 81l16 18l41 -42q41 -42 41 -48h4q0 6 41 48l41 42l16 -18zM88 453q0 14 -7.5 22t-19.5 8h-31v8h113q10 0 10 -10v-529q0 -63 -37 -102t-94 -39q-48 0 -77.5 28.5t-29.5 75.5h7q0 -40 27.5 -64.5t72.5 -24.5q66 0 66 88v539z" />
    <glyph glyph-name="uni01F4" unicode="&#x1f4;" horiz-adv-x="584" 
d="M515 -33h-7v58q-1 16 -11 28.5t-23 12.5q-12 0 -24 -12q-58 -61 -148 -61q-123 0 -198.5 85t-75.5 224q0 126 83.5 215t201.5 89q29 0 71.5 -7.5t61.5 -7.5q12 0 36 4l11 -213h-15l-3 56q-4 70 -53.5 111.5t-116.5 41.5q-92 0 -148.5 -76t-56.5 -200q0 -127 60 -217
t145 -90q92 2 142 69v67q0 81 -12.5 100t-64.5 19h-95v15h248q-8 -26 -8 -83v-228zM281 632l-9 9l95 115q4 4 8 4q5 0 9 -3l19 -16l-20 -25z" />
    <glyph glyph-name="uni01F5" unicode="&#x1f5;" horiz-adv-x="540" 
d="M107 352q0 -67 42.5 -115t102.5 -48q68 0 110 39.5t42 102.5t-45 107.5t-107 44.5q-65 0 -105 -36t-40 -95zM44 341q0 65 61.5 111t146.5 46q63 0 111.5 -19t75.5 -54q0 35 16 66.5t42 46.5l14 8q9 -13 9 -25q0 -22 -17 -31q-50 -29 -50 -72q0 -15 5 -27q9 -24 9 -50
q0 -71 -61 -119t-154 -48q-26 0 -50 3v-19q0 -46 26 -60.5t78 -14.5h22q76 0 130.5 -30t54.5 -101q0 -57 -68 -99t-159 -42q-105 0 -174.5 39.5t-69.5 97.5q0 47 49 83t123 43q-29 32 -29 84v22q-68 14 -104.5 56t-36.5 105zM228 60q-69 -4 -116.5 -36t-47.5 -76
q0 -35 62 -58t160 -23q86 0 149 24.5t63 60.5q0 29 -33.5 49.5t-84.5 20.5q-103 0 -152 38zM239 539l-9 9l95 115q4 4 8 4q5 0 9 -3l19 -16l-20 -25z" />
    <glyph glyph-name="uni01F8" unicode="&#x1f8;" horiz-adv-x="490" 
d="M274 632l-102 84l-20 25l19 16q4 3 9 3q4 0 8 -4l95 -115zM15 0v8h17q26 0 37.5 26t11.5 101v413q0 30 -7.5 36.5t-37.5 6.5h-21v8h129l233 -420q15 -27 15 -31h5q-1 9 -1 35v266q0 78 -11 110t-38 32h-42v8h175v-8h-17q-28 0 -39 -27.5t-11 -114.5v-461h-9q0 6 -24 48
l-262 469q-17 28 -17 33h-4q1 -9 1 -36v-367q0 -70 11 -98.5t38 -28.5h17v-8h-149z" />
    <glyph glyph-name="uni01F9" unicode="&#x1f9;" horiz-adv-x="522" 
d="M303 539l-102 84l-20 25l19 16q4 3 9 3q4 0 8 -4l95 -115zM15 0v8h29q30 0 37 20.5t7 106.5v307q0 15 -6.5 22.5t-16.5 7.5t-17 -8t-7 -22v-31h-8v31q0 25 16.5 38.5t39.5 13.5q21 0 36 -11.5t15 -32.5v-36q0 -71 -2 -87h6q3 24 14 54q18 53 59 85t93 32q67 0 103.5 -34
t36.5 -92v-237q0 -86 7 -106.5t37 -20.5h22v-8h-204v8h29q30 0 37 20.5t7 106.5v214q0 126 -82 126q-65 0 -107.5 -54t-42.5 -141v-145q0 -86 7.5 -106.5t37.5 -20.5h30v-8h-213z" />
    <glyph glyph-name="AEacute" unicode="&#x1fc;" horiz-adv-x="755" 
d="M273 555q6 14 6 22q0 12 -13 12v10h385q24 0 31 -7l12 -187h-15l-4 58q-4 65 -35.5 93t-92.5 28h-113v-1q18 -18 18 -43v-246h30q43 0 66.5 17t23.5 71v37h11v-267h-11v38q0 54 -23.5 71.5t-66.5 17.5h-30v-224q0 -40 23 -40h117q59 0 88.5 27.5t34.5 85.5l6 66h13
l-11 -186q-8 -8 -31 -8h-381v8h29q30 0 37 20.5t7 106.5v144h-136l-72 -1l-61 -150l-23 -69q-4 -11 -4 -21q0 -30 40 -30h28v-8h-149v8q29 0 54 51l37 75zM384 584h-62q-22 0 -33 -28l-106 -260l69 -2h132v290zM382 631l-9 9l95 115q4 4 8 4q5 0 9 -3l19 -16l-20 -25z" />
    <glyph glyph-name="aeacute" unicode="&#x1fd;" horiz-adv-x="815" 
d="M318 271h-61q-72 0 -115.5 -42t-43.5 -111q0 -42 26.5 -72t63.5 -30q50 0 90 45t40 127v83zM387 286q54 1 160.5 3t160.5 3q6 0 6 7q0 82 -42.5 132.5t-112.5 50.5q-69 0 -115.5 -53.5t-56.5 -142.5zM332 187q0 -93 -47.5 -143.5t-106.5 -50.5q-67 0 -108 34.5t-41 90.5
q0 70 65.5 119t157.5 49h66v87q0 53 -25.5 81t-73.5 28q-59 0 -92 -31.5t-36 -82.5l-4 -50h-15l9 173q12 -3 24 -3q11 0 48.5 5t64.5 5q135 0 155 -99q21 30 49.5 52t64.5 34.5t76 12.5q99 0 160 -55t61 -144v-4q0 -10 -7.5 -17t-18.5 -7h-373q-1 -9 -1 -27q0 -97 55.5 -162
t135.5 -65q66 0 118.5 29.5t78.5 84.5l12 -8q-29 -61 -88 -95.5t-136 -34.5q-94 0 -153.5 52t-74.5 142zM334 539l-9 9l95 115q4 4 8 4q5 0 9 -3l19 -16l-20 -25z" />
    <glyph glyph-name="Oslashacute" unicode="&#x1fe;" horiz-adv-x="644" 
d="M299 632l-9 9l95 115q4 4 8 4q5 0 9 -3l19 -16l-20 -25zM92 -40l-18 13l58 82q-51 40 -78.5 103t-27.5 142q0 127 86.5 216.5t209.5 89.5q99 0 171 -48l59 82l18 -13l-59 -82q51 -41 79 -103.5t28 -141.5q0 -127 -87 -217t-209 -90q-99 0 -172 48zM325 8q99 0 159.5 76
t60.5 200q0 126 -66 216l-300 -419q63 -73 146 -73zM164 99l301 419q-63 73 -146 73q-99 0 -160 -76t-61 -200q0 -126 66 -216z" />
    <glyph glyph-name="oslashacute" unicode="&#x1ff;" horiz-adv-x="604" 
d="M266 539l-9 9l95 115q4 4 8 4q5 0 9 -3l19 -16l-20 -25zM304 8q87 0 141 62t54 162q0 105 -60 178l-263 -343q55 -59 128 -59zM94 -40l-18 13l54 71q-96 70 -96 202q0 104 79 178t189 74q85 0 148 -36l60 78l18 -13l-59 -77q48 -33 74.5 -85.5t26.5 -118.5
q0 -104 -78.5 -178.5t-189.5 -74.5q-88 0 -153 39zM423 427q-55 55 -125 55q-87 0 -140 -61t-53 -162t56 -175z" />
    <glyph glyph-name="uni0200" unicode="&#x200;" horiz-adv-x="590" 
d="M214 758l81 -94l-8 -8l-77 69l-14 16zM347 758l81 -94l-7 -8l-78 69l-14 16zM7 0v8q29 0 54 51l37 75l184 424q14 32 15 45h17l213 -544q13 -32 21 -41.5t28 -9.5h6v-8h-163v8h19q28 0 28 22q0 8 -4 18l-51 131h-179l-96 -2l-21 -49l-23 -69q-4 -11 -4 -21q0 -30 40 -30
h28v-8h-149zM144 197l92 -3h169l-109 279q-8 23 -8 49h-5z" />
    <glyph glyph-name="uni0201" unicode="&#x201;" horiz-adv-x="459" 
d="M31 97q0 68 55 104t160 36h70v136q0 109 -99 109q-59 0 -92 -31.5t-36 -82.5l-4 -50h-15l9 173q12 -3 24 -3q11 0 48.5 5t64.5 5q81 0 124 -35t43 -101v-315q0 -28 23 -28q24 0 24 29v13h8v-13q0 -22 -15.5 -37t-37.5 -15q-19 0 -32.5 14t-14.5 35l-5 83h-8
q-15 -71 -57 -103t-93 -32q-67 0 -105.5 28.5t-38.5 75.5zM98 97q0 -37 25 -59t62 -22q52 0 91.5 44t39.5 128v34h-66q-74 0 -113 -32t-39 -93zM107 666l81 -94l-8 -8l-77 69l-14 16zM240 666l81 -94l-7 -8l-78 69l-14 16z" />
    <glyph glyph-name="uni0202" unicode="&#x202;" horiz-adv-x="590" 
d="M210 659q52 97 115 97q35 0 65.5 -27t49.5 -70l-12 -8q-52 75 -103 75q-48 0 -100 -75zM7 0v8q29 0 54 51l37 75l184 424q14 32 15 45h17l213 -544q13 -32 21 -41.5t28 -9.5h6v-8h-163v8h19q28 0 28 22q0 8 -4 18l-51 131h-179l-96 -2l-21 -49l-23 -69q-4 -11 -4 -21
q0 -30 40 -30h28v-8h-149zM144 197l92 -3h169l-109 279q-8 23 -8 49h-5z" />
    <glyph glyph-name="uni0203" unicode="&#x203;" horiz-adv-x="459" 
d="M31 97q0 68 55 104t160 36h70v136q0 109 -99 109q-59 0 -92 -31.5t-36 -82.5l-4 -50h-15l9 173q12 -3 24 -3q11 0 48.5 5t64.5 5q81 0 124 -35t43 -101v-315q0 -28 23 -28q24 0 24 29v13h8v-13q0 -22 -15.5 -37t-37.5 -15q-19 0 -32.5 14t-14.5 35l-5 83h-8
q-15 -71 -57 -103t-93 -32q-67 0 -105.5 28.5t-38.5 75.5zM98 97q0 -37 25 -59t62 -22q52 0 91.5 44t39.5 128v34h-66q-74 0 -113 -32t-39 -93zM103 567q52 97 115 97q35 0 65.5 -27t49.5 -70l-12 -8q-52 75 -103 75q-48 0 -100 -75z" />
    <glyph glyph-name="uni0204" unicode="&#x204;" horiz-adv-x="463" 
d="M291 172h-11v46q0 54 -23.5 71.5t-66.5 17.5h-34v-252q0 -40 23 -40h121q59 0 88.5 27.5t34.5 85.5l6 66h13l-11 -186q-8 -8 -31 -8h-385v8h29q30 0 37 20.5t7 106.5v329q0 86 -7 106.5t-37 20.5h-29v8h344q24 0 31 -7l12 -187h-15l-4 58q-4 65 -35.5 93t-92.5 28h-117
v-1q18 -18 18 -43v-218h34q43 0 66.5 17t23.5 71v29h11v-267zM131 758l81 -94l-8 -8l-77 69l-14 16zM264 758l81 -94l-7 -8l-78 69l-14 16z" />
    <glyph glyph-name="uni0205" unicode="&#x205;" horiz-adv-x="516" 
d="M177 666l81 -94l-8 -8l-77 69l-14 16zM310 666l81 -94l-7 -8l-78 69l-14 16zM34 248q0 103 74.5 176.5t179.5 73.5q88 0 141 -45.5t53 -121.5q0 -16 -7.5 -25.5t-20.5 -9.5h-346q-3 -25 -3 -52q0 -98 54.5 -162.5t143.5 -64.5q115 0 173 79l12 -9q-70 -94 -203 -94
q-112 0 -181.5 70.5t-69.5 184.5zM111 311l288 6q14 0 14 15q0 69 -35.5 109.5t-93.5 40.5q-67 0 -113 -46t-60 -125z" />
    <glyph glyph-name="uni0206" unicode="&#x206;" horiz-adv-x="463" 
d="M291 172h-11v46q0 54 -23.5 71.5t-66.5 17.5h-34v-252q0 -40 23 -40h121q59 0 88.5 27.5t34.5 85.5l6 66h13l-11 -186q-8 -8 -31 -8h-385v8h29q30 0 37 20.5t7 106.5v329q0 86 -7 106.5t-37 20.5h-29v8h344q24 0 31 -7l12 -187h-15l-4 58q-4 65 -35.5 93t-92.5 28h-117
v-1q18 -18 18 -43v-218h34q43 0 66.5 17t23.5 71v29h11v-267zM127 659q52 97 115 97q35 0 65.5 -27t49.5 -70l-12 -8q-52 75 -103 75q-48 0 -100 -75z" />
    <glyph glyph-name="uni0207" unicode="&#x207;" horiz-adv-x="516" 
d="M173 567q52 97 115 97q35 0 65.5 -27t49.5 -70l-12 -8q-52 75 -103 75q-48 0 -100 -75zM34 248q0 103 74.5 176.5t179.5 73.5q88 0 141 -45.5t53 -121.5q0 -16 -7.5 -25.5t-20.5 -9.5h-346q-3 -25 -3 -52q0 -98 54.5 -162.5t143.5 -64.5q115 0 173 79l12 -9
q-70 -94 -203 -94q-112 0 -181.5 70.5t-69.5 184.5zM111 311l288 6q14 0 14 15q0 69 -35.5 109.5t-93.5 40.5q-67 0 -113 -46t-60 -125z" />
    <glyph glyph-name="uni0208" unicode="&#x208;" horiz-adv-x="244" 
d="M10 758l81 -94l-8 -8l-77 69l-14 16zM143 758l81 -94l-7 -8l-78 69l-14 16zM15 0v8h29q30 0 37 20.5t7 106.5v331q0 84 -7 104.5t-37 20.5h-29v8h214v-10h-29q-30 0 -37 -20.5t-7 -104.5v-329q0 -86 7 -106.5t37 -20.5h29v-8h-214z" />
    <glyph glyph-name="uni0209" unicode="&#x209;" horiz-adv-x="241" 
d="M10 666l81 -94l-8 -8l-77 69l-14 16zM143 666l81 -94l-7 -8l-78 69l-14 16zM88 134v319q0 14 -7.5 22t-19.5 8h-31v8h113q10 0 10 -10v-347q0 -85 7.5 -105.5t37.5 -20.5h30v-8h-213v8h29q30 0 37 20t7 106z" />
    <glyph glyph-name="uni020A" unicode="&#x20a;" horiz-adv-x="244" 
d="M6 659q52 97 115 97q35 0 65.5 -27t49.5 -70l-12 -8q-52 75 -103 75q-48 0 -100 -75zM15 0v8h29q30 0 37 20.5t7 106.5v331q0 84 -7 104.5t-37 20.5h-29v8h214v-10h-29q-30 0 -37 -20.5t-7 -104.5v-329q0 -86 7 -106.5t37 -20.5h29v-8h-214z" />
    <glyph glyph-name="uni020B" unicode="&#x20b;" horiz-adv-x="241" 
d="M6 567q52 97 115 97q35 0 65.5 -27t49.5 -70l-12 -8q-52 75 -103 75q-48 0 -100 -75zM88 134v319q0 14 -7.5 22t-19.5 8h-31v8h113q10 0 10 -10v-347q0 -85 7.5 -105.5t37.5 -20.5h30v-8h-213v8h29q30 0 37 20t7 106z" />
    <glyph glyph-name="uni020C" unicode="&#x20c;" horiz-adv-x="644" 
d="M224 759l81 -94l-8 -8l-77 69l-14 16zM357 759l81 -94l-7 -8l-78 69l-14 16zM322 -7q-133 0 -214.5 84.5t-81.5 222.5q0 127 86.5 216.5t209.5 89.5q133 0 214.5 -84t81.5 -222q0 -127 -87 -217t-209 -90zM325 8q99 0 159.5 76t60.5 200q0 127 -66 217t-160 90
q-99 0 -160 -76t-61 -200q0 -127 66.5 -217t160.5 -90z" />
    <glyph glyph-name="uni020D" unicode="&#x20d;" horiz-adv-x="604" 
d="M196 666l81 -94l-8 -8l-77 69l-14 16zM329 666l81 -94l-7 -8l-78 69l-14 16zM302 -7q-121 0 -194.5 69.5t-73.5 183.5q0 104 79 178t189 74q120 0 194 -69.5t74 -182.5q0 -104 -78.5 -178.5t-189.5 -74.5zM304 8q87 0 141 62t54 162q0 103 -59 176.5t-142 73.5
q-87 0 -140 -61t-53 -162q0 -104 58 -177.5t141 -73.5z" />
    <glyph glyph-name="uni020E" unicode="&#x20e;" horiz-adv-x="644" 
d="M220 660q52 97 115 97q35 0 65.5 -27t49.5 -70l-12 -8q-52 75 -103 75q-48 0 -100 -75zM322 -7q-133 0 -214.5 84.5t-81.5 222.5q0 127 86.5 216.5t209.5 89.5q133 0 214.5 -84t81.5 -222q0 -127 -87 -217t-209 -90zM325 8q99 0 159.5 76t60.5 200q0 127 -66 217t-160 90
q-99 0 -160 -76t-61 -200q0 -127 66.5 -217t160.5 -90z" />
    <glyph glyph-name="uni020F" unicode="&#x20f;" horiz-adv-x="604" 
d="M192 567q52 97 115 97q35 0 65.5 -27t49.5 -70l-12 -8q-52 75 -103 75q-48 0 -100 -75zM302 -7q-121 0 -194.5 69.5t-73.5 183.5q0 104 79 178t189 74q120 0 194 -69.5t74 -182.5q0 -104 -78.5 -178.5t-189.5 -74.5zM304 8q87 0 141 62t54 162q0 103 -59 176.5t-142 73.5
q-87 0 -140 -61t-53 -162q0 -104 58 -177.5t141 -73.5z" />
    <glyph glyph-name="uni0210" unicode="&#x210;" horiz-adv-x="521" 
d="M15 0v8h29q30 0 37 20.5t7 106.5v329q0 86 -7 106.5t-37 20.5h-29v8h216q102 0 164 -48.5t62 -128.5q0 -68 -55 -113.5t-132 -55.5l-21 -3v-5q28 -3 51 -15.5t42 -36t29 -40.5t27 -48q46 -86 80 -86q14 0 25 10l19 16l4 -6l-18 -16q-38 -32 -69 -32q-48 0 -98 84
q-67 112 -92.5 141.5t-60.5 29.5h-8v14h38q69 0 118 48t49 115t-47 114t-113 47h-83v-1q14 -14 14 -43v-405q0 -86 7.5 -106.5t37.5 -20.5h49v-8h-235zM111 758l81 -94l-8 -8l-77 69l-14 16zM244 758l81 -94l-7 -8l-78 69l-14 16z" />
    <glyph glyph-name="uni0211" unicode="&#x211;" horiz-adv-x="371" 
d="M15 0v8h29q30 0 37 20.5t7 106.5v318q0 14 -7.5 22t-19.5 8h-31v8h101q15 0 15 -15v-62q0 -55 -7 -76v-2h7q16 77 56.5 119.5t94.5 42.5q71 0 71 -47q0 -18 -12 -31t-29 -13q-18 0 -30.5 12.5t-12.5 30.5q0 16 10 26v1q-63 0 -102 -64.5t-39 -169.5v-109
q0 -86 7.5 -106.5t37.5 -20.5h53v-7h-236zM101 666l81 -94l-8 -8l-77 69l-14 16zM234 666l81 -94l-7 -8l-78 69l-14 16z" />
    <glyph glyph-name="uni0212" unicode="&#x212;" horiz-adv-x="521" 
d="M15 0v8h29q30 0 37 20.5t7 106.5v329q0 86 -7 106.5t-37 20.5h-29v8h216q102 0 164 -48.5t62 -128.5q0 -68 -55 -113.5t-132 -55.5l-21 -3v-5q28 -3 51 -15.5t42 -36t29 -40.5t27 -48q46 -86 80 -86q14 0 25 10l19 16l4 -6l-18 -16q-38 -32 -69 -32q-48 0 -98 84
q-67 112 -92.5 141.5t-60.5 29.5h-8v14h38q69 0 118 48t49 115t-47 114t-113 47h-83v-1q14 -14 14 -43v-405q0 -86 7.5 -106.5t37.5 -20.5h49v-8h-235zM107 659q52 97 115 97q35 0 65.5 -27t49.5 -70l-12 -8q-52 75 -103 75q-48 0 -100 -75z" />
    <glyph glyph-name="uni0213" unicode="&#x213;" horiz-adv-x="371" 
d="M15 0v8h29q30 0 37 20.5t7 106.5v318q0 14 -7.5 22t-19.5 8h-31v8h101q15 0 15 -15v-62q0 -55 -7 -76v-2h7q16 77 56.5 119.5t94.5 42.5q71 0 71 -47q0 -18 -12 -31t-29 -13q-18 0 -30.5 12.5t-12.5 30.5q0 16 10 26v1q-63 0 -102 -64.5t-39 -169.5v-109
q0 -86 7.5 -106.5t37.5 -20.5h53v-7h-236zM97 567q52 97 115 97q35 0 65.5 -27t49.5 -70l-12 -8q-52 75 -103 75q-48 0 -100 -75z" />
    <glyph glyph-name="uni0214" unicode="&#x214;" horiz-adv-x="487" 
d="M152 758l81 -94l-8 -8l-77 69l-14 16zM285 758l81 -94l-7 -8l-78 69l-14 16zM82 137v327q0 86 -7.5 106.5t-37.5 20.5h-22v8h216v-8h-37q-30 0 -37 -20.5t-7 -106.5v-349q0 -99 101 -99q67 0 101.5 31t34.5 90v312q0 78 -10.5 110t-36.5 32h-30v8h163v-8h-21
q-26 0 -37 -32t-11 -110v-312q0 -70 -39.5 -107t-113.5 -37q-75 0 -122 40t-47 104z" />
    <glyph glyph-name="uni0215" unicode="&#x215;" horiz-adv-x="514" 
d="M75 119v334q0 14 -7.5 22t-19.5 8h-31v8h108q15 0 15 -15v-349q0 -57 22.5 -88t59.5 -31q67 0 108 58.5t41 154.5v218q0 30 -7.5 37t-37.5 7h-15v8l131 3v-6q-4 -30 -4 -45v-396q0 -28 23 -28q24 0 24 29v13h8v-13q0 -23 -17 -37.5t-39 -14.5q-20 0 -34.5 13t-14.5 36
v118h-7q-13 -86 -58 -128t-108 -42t-101.5 33t-38.5 93zM139 666l81 -94l-8 -8l-77 69l-14 16zM272 666l81 -94l-7 -8l-78 69l-14 16z" />
    <glyph glyph-name="uni0216" unicode="&#x216;" horiz-adv-x="487" 
d="M148 659q52 97 115 97q35 0 65.5 -27t49.5 -70l-12 -8q-52 75 -103 75q-48 0 -100 -75zM82 137v327q0 86 -7.5 106.5t-37.5 20.5h-22v8h216v-8h-37q-30 0 -37 -20.5t-7 -106.5v-349q0 -99 101 -99q67 0 101.5 31t34.5 90v312q0 78 -10.5 110t-36.5 32h-30v8h163v-8h-21
q-26 0 -37 -32t-11 -110v-312q0 -70 -39.5 -107t-113.5 -37q-75 0 -122 40t-47 104z" />
    <glyph glyph-name="uni0217" unicode="&#x217;" horiz-adv-x="514" 
d="M75 119v334q0 14 -7.5 22t-19.5 8h-31v8h108q15 0 15 -15v-349q0 -57 22.5 -88t59.5 -31q67 0 108 58.5t41 154.5v218q0 30 -7.5 37t-37.5 7h-15v8l131 3v-6q-4 -30 -4 -45v-396q0 -28 23 -28q24 0 24 29v13h8v-13q0 -23 -17 -37.5t-39 -14.5q-20 0 -34.5 13t-14.5 36
v118h-7q-13 -86 -58 -128t-108 -42t-101.5 33t-38.5 93zM135 567q52 97 115 97q35 0 65.5 -27t49.5 -70l-12 -8q-52 75 -103 75q-48 0 -100 -75z" />
    <glyph glyph-name="Scommaaccent" unicode="&#x218;" horiz-adv-x="398" 
d="M170 -182q16 0 30.5 14t17.5 32t3 19l-3 1q-4 -6 -16 -6q-38 0 -38 37q0 38 38 38q16 0 26 -10.5t10 -27.5q0 -47 -18.5 -75.5t-49.5 -28.5v7zM25 204l15 1l3 -47q5 -71 45.5 -110t101.5 -39q56 0 90.5 33t34.5 88q0 34 -20 63.5t-43 47t-64 41.5q-35 21 -55 35t-45.5 38
t-37.5 52.5t-12 63.5q0 61 45.5 98t119.5 37q23 0 57 -4.5t49 -4.5q18 0 29 2l9 -173l-15 -1l-2 35q-2 54 -35.5 92.5t-91.5 38.5q-51 0 -79 -26.5t-28 -75.5q0 -25 9.5 -45.5t31.5 -39.5t38.5 -30.5t48.5 -30.5q35 -21 56.5 -36t47 -40t38 -56t12.5 -68q0 -67 -51.5 -108
t-134.5 -41q-25 0 -70 7t-59 7q-15 0 -29 -4z" />
    <glyph glyph-name="scommaaccent" unicode="&#x219;" horiz-adv-x="423" 
d="M171 -182q16 0 30.5 14t17.5 32t3 19l-3 1q-4 -6 -16 -6q-38 0 -38 37q0 38 38 38q16 0 26 -10.5t10 -27.5q0 -47 -18.5 -75.5t-49.5 -28.5v7zM203 -7q-32 0 -73 8.5t-54 8.5q-12 0 -29 -5l-10 203h15l3 -58q3 -67 45 -104.5t103 -37.5q55 0 89.5 31.5t34.5 82.5
q0 25 -19.5 46t-41.5 32.5t-62 27.5q-36 15 -56.5 25t-47 27.5t-39 40t-12.5 50.5q0 59 46.5 93t121.5 34q34 0 67 -5.5t39 -5.5q13 0 28 4l8 -173h-15l-2 34q-3 52 -35.5 91t-89.5 39q-110 0 -110 -93q0 -14 7.5 -26.5t17 -21.5t28.5 -19t32 -15.5t37 -15.5
q36 -15 58.5 -26t49.5 -30t40 -43.5t13 -55.5q0 -64 -51.5 -103.5t-135.5 -39.5z" />
    <glyph glyph-name="uni021A" unicode="&#x21a;" horiz-adv-x="448" 
d="M193 -182q16 0 30.5 14t17.5 32t3 19l-3 1q-4 -6 -16 -6q-38 0 -38 37q0 38 38 38q16 0 26 -10.5t10 -27.5q0 -47 -18.5 -75.5t-49.5 -28.5v7zM82 0v8h64q30 0 37 20.5t7 106.5v449h-27q-61 0 -95 -20t-38 -76l-3 -34l-15 1l10 144h405l9 -144l-15 -1l-3 34q-4 56 -38 76
t-95 20h-27v-449q0 -86 7 -106.5t37 -20.5h61v-8h-281z" />
    <glyph glyph-name="uni021B" unicode="&#x21b;" horiz-adv-x="382" 
d="M190 -182q16 0 30.5 14t17.5 32t3 19l-3 1q-4 -6 -16 -6q-38 0 -38 37q0 38 38 38q16 0 26 -10.5t10 -27.5q0 -47 -18.5 -75.5t-49.5 -28.5v7zM108 122v341h-100v21h48q34 0 59 27t33.5 53t8.5 42v93h15v-172q0 -31 -10 -35v-1h197l-5 -28h-182v-355q0 -41 19 -66t50 -25
q41 0 64 26.5t23 71.5v25h15v-25q0 -55 -29.5 -88.5t-77.5 -33.5q-58 0 -93 35.5t-35 93.5z" />
    <glyph glyph-name="uni021E" unicode="&#x21e;" horiz-adv-x="542" 
d="M280 657h-24l-88 81l16 18l41 -42q41 -42 41 -48h4q0 6 41 48l41 42l16 -18zM15 0v8h29q30 0 37 20.5t7 105.5v330q0 86 -7 106.5t-37 20.5h-29v8h208v-8h-22q-30 0 -37.5 -20.5t-7.5 -106.5v-141h229v138q0 88 -7.5 109t-37.5 21h-22v8h209v-8h-30q-30 0 -37 -21
t-7 -109v-326q0 -86 7 -106.5t37 -20.5h30v-8h-209v8h23q30 0 37 20.5t7 106.5v173h-229v-174q0 -85 7.5 -105.5t37.5 -20.5h22v-8h-208z" />
    <glyph glyph-name="uni021F" unicode="&#x21f;" horiz-adv-x="526" 
d="M280 657h-24l-88 81l16 18l41 -42q41 -42 41 -48h4q0 6 41 48l41 42l16 -18zM11 0v8h29q30 0 37 20.5t7 106.5v433q0 73 -4 90.5t-21 17.5h-39v7h48q30 0 52 11t22 34v3h7v-188q0 -96 -15 -216h6q4 28 13 54q18 53 59.5 85t93.5 32q67 0 103.5 -34t36.5 -92v-237
q0 -86 7 -106.5t37 -20.5h30v-8h-212v8h29q30 0 37 20.5t7 106.5v214q0 126 -82 126q-65 0 -107.5 -54t-42.5 -141v-145q0 -86 7.5 -106.5t37.5 -20.5h29v-8h-212z" />
    <glyph glyph-name="uni0226" unicode="&#x226;" horiz-adv-x="590" 
d="M297 750q17 0 27 -9.5t10 -26.5t-10 -27.5t-27 -10.5t-27.5 10.5t-10.5 27.5q0 16 10.5 26t27.5 10zM7 0v8q29 0 54 51l37 75l184 424q14 32 15 45h17l213 -544q13 -32 21 -41.5t28 -9.5h6v-8h-163v8h19q28 0 28 22q0 8 -4 18l-51 131h-179l-96 -2l-21 -49l-23 -69
q-4 -11 -4 -21q0 -30 40 -30h28v-8h-149zM144 197l92 -3h169l-109 279q-8 23 -8 49h-5z" />
    <glyph glyph-name="uni0227" unicode="&#x227;" horiz-adv-x="459" 
d="M31 97q0 68 55 104t160 36h70v136q0 109 -99 109q-59 0 -92 -31.5t-36 -82.5l-4 -50h-15l9 173q12 -3 24 -3q11 0 48.5 5t64.5 5q81 0 124 -35t43 -101v-315q0 -28 23 -28q24 0 24 29v13h8v-13q0 -22 -15.5 -37t-37.5 -15q-19 0 -32.5 14t-14.5 35l-5 83h-8
q-15 -71 -57 -103t-93 -32q-67 0 -105.5 28.5t-38.5 75.5zM98 97q0 -37 25 -59t62 -22q52 0 91.5 44t39.5 128v34h-66q-74 0 -113 -32t-39 -93zM218 658q17 0 27 -9.5t10 -26.5t-10 -27.5t-27 -10.5t-27.5 10.5t-10.5 27.5q0 16 10.5 26t27.5 10z" />
    <glyph glyph-name="uni0228" unicode="&#x228;" horiz-adv-x="463" 
d="M15 0v8h29q30 0 37 20.5t7 106.5v329q0 86 -7 106.5t-37 20.5h-29v8h344q24 0 31 -7l12 -187h-15l-4 58q-4 65 -35.5 93t-92.5 28h-117v-1q18 -18 18 -43v-218h34q43 0 66.5 17t23.5 71v29h11v-267h-11v46q0 54 -23.5 71.5t-66.5 17.5h-34v-252q0 -40 23 -40h121
q59 0 88.5 27.5t34.5 85.5l6 66h13l-11 -186q-8 -8 -31 -8h-152l-10 -48q15 6 28 6q23 0 40 -8.5t25.5 -22.5t8.5 -31q0 -34 -39 -57.5t-95 -23.5l3 15q24 0 44.5 9.5t32.5 26.5t12 37q0 17 -9 29t-24 12q-23 0 -34 -10l-11 2l13 64h-218z" />
    <glyph glyph-name="uni0229" unicode="&#x229;" horiz-adv-x="516" 
d="M111 311l288 6q14 0 14 15q0 69 -35.5 109.5t-93.5 40.5q-67 0 -113 -46t-60 -125zM34 248q0 103 74.5 176.5t179.5 73.5q88 0 141 -45.5t53 -121.5q0 -16 -7.5 -25.5t-20.5 -9.5h-346q-3 -25 -3 -52q0 -98 54.5 -162.5t143.5 -64.5q33 0 64 8t60 26t49 45l12 -9
q-33 -45 -85 -69.5t-117 -24.5l-10 -47q16 6 28 6q34 0 54 -18t20 -44q0 -35 -39 -58t-95 -23l3 15q37 0 63 21t26 52q0 17 -9 29t-24 12q-23 0 -34 -10l-11 2l13 63q-107 5 -172 75t-65 180z" />
    <glyph glyph-name="uni022E" unicode="&#x22e;" horiz-adv-x="644" 
d="M335 751q17 0 27 -9.5t10 -26.5t-10 -27.5t-27 -10.5t-27.5 10.5t-10.5 27.5q0 16 10.5 26t27.5 10zM322 -7q-133 0 -214.5 84.5t-81.5 222.5q0 127 86.5 216.5t209.5 89.5q133 0 214.5 -84t81.5 -222q0 -127 -87 -217t-209 -90zM325 8q99 0 159.5 76t60.5 200
q0 127 -66 217t-160 90q-99 0 -160 -76t-61 -200q0 -127 66.5 -217t160.5 -90z" />
    <glyph glyph-name="uni022F" unicode="&#x22f;" horiz-adv-x="604" 
d="M298 658q17 0 27 -9.5t10 -26.5t-10 -27.5t-27 -10.5t-27.5 10.5t-10.5 27.5q0 16 10.5 26t27.5 10zM302 -7q-121 0 -194.5 69.5t-73.5 183.5q0 104 79 178t189 74q120 0 194 -69.5t74 -182.5q0 -104 -78.5 -178.5t-189.5 -74.5zM304 8q87 0 141 62t54 162
q0 103 -59 176.5t-142 73.5q-87 0 -140 -61t-53 -162q0 -104 58 -177.5t141 -73.5z" />
    <glyph glyph-name="uni0232" unicode="&#x232;" horiz-adv-x="479" 
d="M363 690h-227l2 21h227zM96 0v8h71q30 0 37 20.5t7 106.5v149l-130 250q-17 32 -27.5 44.5t-27.5 12.5h-18v8h158v-8h-52v-2q13 -5 34 -45l108 -205q9 -19 11 -27h5q2 8 11 27l69 133l27 60q11 24 11 37q0 22 -36 22h-44v8h161v-8h-4q-16 0 -29.5 -13t-32.5 -45l-40 -68
l-86 -168v-162q0 -86 7 -106.5t37 -20.5h60v-8h-287z" />
    <glyph glyph-name="uni0233" unicode="&#x233;" horiz-adv-x="492" 
d="M371 597h-227l2 21h227zM241 -5q5 12 5 24t-5 23l-169 390q-13 31 -21.5 41t-28.5 10h-13v8h161v-8h-59v-1q11 -4 27 -40l134 -306q6 -14 6 -35v-2h3l104 265l20 68q4 14 4 24q0 27 -41 27h-28v8h145v-7q-17 0 -27 -11.5t-23 -41.5l-32 -72l-177 -449
q-17 -44 -46.5 -71.5t-64.5 -27.5q-26 0 -44.5 23t-18.5 55q41 -19 70 -19q69 0 94 62z" />
    <glyph glyph-name="uni0237" unicode="&#x237;" horiz-adv-x="223" 
d="M88 453q0 14 -7.5 22t-19.5 8h-31v8h113q10 0 10 -10v-529q0 -63 -37 -102t-94 -39q-48 0 -77.5 28.5t-29.5 75.5h7q0 -40 27.5 -64.5t72.5 -24.5q66 0 66 88v539z" />
    <glyph glyph-name="circumflex" unicode="&#x2c6;" horiz-adv-x="238" 
d="M131 580l88 -81l-16 -18l-41 42q-41 42 -41 48h-4q0 -6 -41 -48l-41 -42l-16 18l88 81h24z" />
    <glyph glyph-name="caron" unicode="&#x2c7;" horiz-adv-x="238" 
d="M131 478h-24l-88 81l16 18l41 -42q41 -42 41 -48h4q0 6 41 48l41 42l16 -18z" />
    <glyph glyph-name="uni02C9" unicode="&#x2c9;" horiz-adv-x="273" 
d="M250 511h-227l2 21h227z" />
    <glyph glyph-name="uni02CA" unicode="&#x2ca;" horiz-adv-x="158" 
d="M28 453l-9 9l95 115q4 4 8 4q5 0 9 -3l19 -16l-20 -25z" />
    <glyph glyph-name="uni02CB" unicode="&#x2cb;" horiz-adv-x="158" 
d="M131 453l-102 84l-20 25l19 16q4 3 9 3q4 0 8 -4l95 -115z" />
    <glyph glyph-name="breve" unicode="&#x2d8;" horiz-adv-x="265" 
d="M18 571l15 7q51 -74 100 -74q52 0 103 74l12 -7q-19 -43 -49.5 -70t-65.5 -27q-63 0 -115 97z" />
    <glyph glyph-name="dotaccent" unicode="&#x2d9;" horiz-adv-x="103" 
d="M52 572q17 0 27 -9.5t10 -26.5t-10 -27.5t-27 -10.5t-27.5 10.5t-10.5 27.5q0 16 10.5 26t27.5 10z" />
    <glyph glyph-name="ring" unicode="&#x2da;" horiz-adv-x="176" 
d="M88 572q-19 0 -35.5 -15.5t-16.5 -35.5q0 -19 17 -35.5t35 -16.5q19 0 35.5 16t16.5 36t-16.5 35.5t-35.5 15.5zM88 595q28 0 51 -22.5t23 -51.5t-23 -51.5t-51 -22.5t-50.5 23t-22.5 51q0 29 22.5 51.5t50.5 22.5z" />
    <glyph glyph-name="ogonek" unicode="&#x2db;" horiz-adv-x="311" 
d="M169 -189q-42 0 -68 20.5t-26 54.5q0 50 39.5 84.5t93.5 44.5v-15q-41 -7 -68.5 -37t-27.5 -74q0 -28 17.5 -44.5t46.5 -16.5q31 0 76 19l5 -14q-47 -22 -88 -22z" />
    <glyph glyph-name="tilde" unicode="&#x2dc;" horiz-adv-x="302" 
d="M263 540q-8 -33 -21.5 -45.5t-32.5 -12.5q-23 0 -69 30.5t-61 30.5q-19 0 -26 -28l-7 -26l-13 3l7 26q9 31 20.5 42.5t29.5 11.5q23 0 68.5 -30.5t61.5 -30.5q22 0 30 32l6 25l14 -3z" />
    <glyph glyph-name="hungarumlaut" unicode="&#x2dd;" horiz-adv-x="302" 
d="M249 580l18 -17l-14 -16l-77 -69l-8 8zM116 580l18 -17l-14 -16l-78 -69l-7 8z" />
    <glyph glyph-name="uni02F5" unicode="&#x2f5;" horiz-adv-x="280" 
d="M42 580l81 -94l-8 -8l-77 69l-14 16zM175 580l81 -94l-7 -8l-78 69l-14 16z" />
    <glyph glyph-name="gravecomb" unicode="&#x300;" horiz-adv-x="0" 
d="M36 453l-102 84l-20 25l19 16q4 3 9 3q4 0 8 -4l95 -115z" />
    <glyph glyph-name="acutecomb" unicode="&#x301;" horiz-adv-x="0" 
d="M-36 453l-9 9l95 115q4 4 8 4q5 0 9 -3l19 -16l-20 -25z" />
    <glyph glyph-name="uni0302" unicode="&#x302;" horiz-adv-x="0" 
d="M12 580l88 -81l-16 -18l-41 42q-41 42 -41 48h-4q0 -6 -41 -48l-41 -42l-16 18l88 81h24z" />
    <glyph glyph-name="tildecomb" unicode="&#x303;" horiz-adv-x="0" 
d="M111 540q-8 -33 -21.5 -45.5t-32.5 -12.5q-23 0 -69 30.5t-61 30.5q-19 0 -26 -28l-7 -26l-13 3l7 26q9 31 20.5 42.5t29.5 11.5q23 0 68.5 -30.5t61.5 -30.5q22 0 30 32l6 25l14 -3z" />
    <glyph glyph-name="uni0304" unicode="&#x304;" horiz-adv-x="0" 
d="M113 511h-227l2 21h227z" />
    <glyph glyph-name="uni0305" unicode="&#x305;" horiz-adv-x="0" 
d="M80 511h-162l2 21h162z" />
    <glyph glyph-name="uni0306" unicode="&#x306;" horiz-adv-x="0" 
d="M-115 571l15 7q51 -74 100 -74q52 0 103 74l12 -7q-19 -43 -49.5 -70t-65.5 -27q-63 0 -115 97z" />
    <glyph glyph-name="uni0307" unicode="&#x307;" horiz-adv-x="0" 
d="M0 572q17 0 27 -9.5t10 -26.5t-10 -27.5t-27 -10.5t-27.5 10.5t-10.5 27.5q0 16 10.5 26t27.5 10z" />
    <glyph glyph-name="uni0308" unicode="&#x308;" horiz-adv-x="0" 
d="M-82 558q17 0 27.5 -10t10.5 -27t-10.5 -27t-27.5 -10t-26.5 10t-9.5 27t9.5 27t26.5 10zM82 558q17 0 26.5 -10t9.5 -27t-9.5 -27t-26.5 -10t-27.5 10t-10.5 27t10.5 27t27.5 10z" />
    <glyph glyph-name="uni030A" unicode="&#x30a;" horiz-adv-x="0" 
d="M0 572q-19 0 -35.5 -15.5t-16.5 -35.5q0 -19 17 -35.5t35 -16.5q19 0 35.5 16t16.5 36t-16.5 35.5t-35.5 15.5zM0 595q28 0 51 -22.5t23 -51.5t-23 -51.5t-51 -22.5t-50.5 23t-22.5 51q0 29 22.5 51.5t50.5 22.5z" />
    <glyph glyph-name="uni030B" unicode="&#x30b;" horiz-adv-x="0" 
d="M111 580l18 -17l-14 -16l-77 -69l-8 8zM-22 580l18 -17l-14 -16l-78 -69l-7 8z" />
    <glyph glyph-name="uni030C" unicode="&#x30c;" horiz-adv-x="0" 
d="M12 478h-24l-88 81l16 18l41 -42q41 -42 41 -48h4q0 6 41 48l41 42l16 -18z" />
    <glyph glyph-name="uni030D" unicode="&#x30d;" horiz-adv-x="0" 
d="M11 580v-106h-23v106h23z" />
    <glyph glyph-name="uni030E" unicode="&#x30e;" horiz-adv-x="0" 
d="M-22 580v-106h-22v106h22zM44 580v-106h-22v106h22z" />
    <glyph glyph-name="uni030F" unicode="&#x30f;" horiz-adv-x="0" 
d="M-111 580l81 -94l-8 -8l-77 69l-14 16zM22 580l81 -94l-7 -8l-78 69l-14 16z" />
    <glyph glyph-name="uni0311" unicode="&#x311;" horiz-adv-x="0" 
d="M-115 481q52 97 115 97q35 0 65.5 -27t49.5 -70l-12 -8q-52 75 -103 75q-48 0 -100 -75z" />
    <glyph glyph-name="Wgrave" unicode="&#x1e80;" horiz-adv-x="844" 
d="M461 631l-102 84l-20 25l19 16q4 3 9 3q4 0 8 -4l95 -115zM386 540q-9 31 -18 41t-31 10h-7v8h191v-8h-54q-18 0 -18 -25q0 -7 2 -14l131 -440q6 -20 6 -30h9q0 12 8 33l126 355l17 71q3 11 3 19q0 31 -45 31h-12v8h144v-8h-4q-29 0 -50 -51l-32 -75l-170 -468h-34
l-124 416l-123 -416h-36l-197 543q-9 24 -13 32t-12 13.5t-23 5.5h-12v8h120v-11q0 -22 5 -36l164 -440q4 -8 4 -30h7q0 2 9 33l97 330z" />
    <glyph glyph-name="wgrave" unicode="&#x1e81;" horiz-adv-x="755" 
d="M420 539l-102 84l-20 25l19 16q4 3 9 3q4 0 8 -4l95 -115zM233 -4l-165 436q-12 32 -20 41.5t-28 9.5h-12v8h120v-12q0 -23 5 -36l127 -321q5 -13 5 -34h9q0 6 7 30l89 294l-6 20q-9 31 -18 41t-31 10h-19v8h191v-8h-42q-19 0 -19 -23q0 -8 3 -17l98 -325q5 -18 5 -30h9
q0 5 10 32l94 246l16 67q3 12 3 20q0 30 -44 30h-15v8h143v-8h-5q-18 0 -28 -11.5t-22 -39.5l-31 -71l-139 -364l-28 -1l-115 384l-116 -384h-31z" />
    <glyph glyph-name="Wacute" unicode="&#x1e82;" horiz-adv-x="844" 
d="M389 631l-9 9l95 115q4 4 8 4q5 0 9 -3l19 -16l-20 -25zM386 540q-9 31 -18 41t-31 10h-7v8h191v-8h-54q-18 0 -18 -25q0 -7 2 -14l131 -440q6 -20 6 -30h9q0 12 8 33l126 355l17 71q3 11 3 19q0 31 -45 31h-12v8h144v-8h-4q-29 0 -50 -51l-32 -75l-170 -468h-34
l-124 416l-123 -416h-36l-197 543q-9 24 -13 32t-12 13.5t-23 5.5h-12v8h120v-11q0 -22 5 -36l164 -440q4 -8 4 -30h7q0 2 9 33l97 330z" />
    <glyph glyph-name="wacute" unicode="&#x1e83;" horiz-adv-x="755" 
d="M348 539l-9 9l95 115q4 4 8 4q5 0 9 -3l19 -16l-20 -25zM233 -4l-165 436q-12 32 -20 41.5t-28 9.5h-12v8h120v-12q0 -23 5 -36l127 -321q5 -13 5 -34h9q0 6 7 30l89 294l-6 20q-9 31 -18 41t-31 10h-19v8h191v-8h-42q-19 0 -19 -23q0 -8 3 -17l98 -325q5 -18 5 -30h9
q0 5 10 32l94 246l16 67q3 12 3 20q0 30 -44 30h-15v8h143v-8h-5q-18 0 -28 -11.5t-22 -39.5l-31 -71l-139 -364l-28 -1l-115 384l-116 -384h-31z" />
    <glyph glyph-name="Wdieresis" unicode="&#x1e84;" horiz-adv-x="844" 
d="M343 736q17 0 27.5 -10t10.5 -27t-10.5 -27t-27.5 -10t-26.5 10t-9.5 27t9.5 27t26.5 10zM507 736q17 0 26.5 -10t9.5 -27t-9.5 -27t-26.5 -10t-27.5 10t-10.5 27t10.5 27t27.5 10zM386 540q-9 31 -18 41t-31 10h-7v8h191v-8h-54q-18 0 -18 -25q0 -7 2 -14l131 -440
q6 -20 6 -30h9q0 12 8 33l126 355l17 71q3 11 3 19q0 31 -45 31h-12v8h144v-8h-4q-29 0 -50 -51l-32 -75l-170 -468h-34l-124 416l-123 -416h-36l-197 543q-9 24 -13 32t-12 13.5t-23 5.5h-12v8h120v-11q0 -22 5 -36l164 -440q4 -8 4 -30h7q0 2 9 33l97 330z" />
    <glyph glyph-name="wdieresis" unicode="&#x1e85;" horiz-adv-x="755" 
d="M302 644q17 0 27.5 -10t10.5 -27t-10.5 -27t-27.5 -10t-26.5 10t-9.5 27t9.5 27t26.5 10zM466 644q17 0 26.5 -10t9.5 -27t-9.5 -27t-26.5 -10t-27.5 10t-10.5 27t10.5 27t27.5 10zM233 -4l-165 436q-12 32 -20 41.5t-28 9.5h-12v8h120v-12q0 -23 5 -36l127 -321
q5 -13 5 -34h9q0 6 7 30l89 294l-6 20q-9 31 -18 41t-31 10h-19v8h191v-8h-42q-19 0 -19 -23q0 -8 3 -17l98 -325q5 -18 5 -30h9q0 5 10 32l94 246l16 67q3 12 3 20q0 30 -44 30h-15v8h143v-8h-5q-18 0 -28 -11.5t-22 -39.5l-31 -71l-139 -364l-28 -1l-115 384l-116 -384
h-31z" />
    <glyph glyph-name="uni1E86" unicode="&#x1e86;" horiz-adv-x="844" 
d="M425 750q17 0 27 -9.5t10 -26.5t-10 -27.5t-27 -10.5t-27.5 10.5t-10.5 27.5q0 16 10.5 26t27.5 10zM386 540q-9 31 -18 41t-31 10h-7v8h191v-8h-54q-18 0 -18 -25q0 -7 2 -14l131 -440q6 -20 6 -30h9q0 12 8 33l126 355l17 71q3 11 3 19q0 31 -45 31h-12v8h144v-8h-4
q-29 0 -50 -51l-32 -75l-170 -468h-34l-124 416l-123 -416h-36l-197 543q-9 24 -13 32t-12 13.5t-23 5.5h-12v8h120v-11q0 -22 5 -36l164 -440q4 -8 4 -30h7q0 2 9 33l97 330z" />
    <glyph glyph-name="uni1E87" unicode="&#x1e87;" horiz-adv-x="755" 
d="M384 658q17 0 27 -9.5t10 -26.5t-10 -27.5t-27 -10.5t-27.5 10.5t-10.5 27.5q0 16 10.5 26t27.5 10zM233 -4l-165 436q-12 32 -20 41.5t-28 9.5h-12v8h120v-12q0 -23 5 -36l127 -321q5 -13 5 -34h9q0 6 7 30l89 294l-6 20q-9 31 -18 41t-31 10h-19v8h191v-8h-42
q-19 0 -19 -23q0 -8 3 -17l98 -325q5 -18 5 -30h9q0 5 10 32l94 246l16 67q3 12 3 20q0 30 -44 30h-15v8h143v-8h-5q-18 0 -28 -11.5t-22 -39.5l-31 -71l-139 -364l-28 -1l-115 384l-116 -384h-31z" />
    <glyph glyph-name="uni1E8E" unicode="&#x1e8e;" horiz-adv-x="479" 
d="M250 751q17 0 27 -9.5t10 -26.5t-10 -27.5t-27 -10.5t-27.5 10.5t-10.5 27.5q0 16 10.5 26t27.5 10zM96 0v8h71q30 0 37 20.5t7 106.5v149l-130 250q-17 32 -27.5 44.5t-27.5 12.5h-18v8h158v-8h-52v-2q13 -5 34 -45l108 -205q9 -19 11 -27h5q2 8 11 27l69 133l27 60
q11 24 11 37q0 22 -36 22h-44v8h161v-8h-4q-16 0 -29.5 -13t-32.5 -45l-40 -68l-86 -168v-162q0 -86 7 -106.5t37 -20.5h60v-8h-287z" />
    <glyph glyph-name="uni1E8F" unicode="&#x1e8f;" horiz-adv-x="492" 
d="M258 658q17 0 27 -9.5t10 -26.5t-10 -27.5t-27 -10.5t-27.5 10.5t-10.5 27.5q0 16 10.5 26t27.5 10zM241 -5q5 12 5 24t-5 23l-169 390q-13 31 -21.5 41t-28.5 10h-13v8h161v-8h-59v-1q11 -4 27 -40l134 -306q6 -14 6 -35v-2h3l104 265l20 68q4 14 4 24q0 27 -41 27h-28
v8h145v-7q-17 0 -27 -11.5t-23 -41.5l-32 -72l-177 -449q-17 -44 -46.5 -71.5t-64.5 -27.5q-26 0 -44.5 23t-18.5 55q41 -19 70 -19q69 0 94 62z" />
    <glyph glyph-name="uni1E9E" unicode="&#x1e9e;" horiz-adv-x="544" 
d="M348 8q52 0 84 28.5t32 74.5q0 41 -29.5 76.5t-87.5 82.5q-84 68 -115 117l139 150q-19 27 -53 41t-70 14q-49 0 -79 -24.5t-30 -65.5v-455q0 -19 3 -45v-5l-127 3v8h14q30 0 37.5 7t7.5 37v325h-49v22h49v73q0 55 51 94.5t123 39.5q85 0 142 -37q22 -16 40 -16v-5
q-21 0 -41 -22l-104 -113q33 -44 105 -101q65 -53 99.5 -95t34.5 -91q0 -60 -48.5 -96.5t-127.5 -36.5q-19 0 -49.5 4.5t-43.5 4.5q-14 0 -28 -4v184h16v-67q0 -44 30 -75.5t75 -31.5z" />
    <glyph glyph-name="uni1EBC" unicode="&#x1ebc;" horiz-adv-x="463" 
d="M291 172h-11v46q0 54 -23.5 71.5t-66.5 17.5h-34v-252q0 -40 23 -40h121q59 0 88.5 27.5t34.5 85.5l6 66h13l-11 -186q-8 -8 -31 -8h-385v8h29q30 0 37 20.5t7 106.5v329q0 86 -7 106.5t-37 20.5h-29v8h344q24 0 31 -7l12 -187h-15l-4 58q-4 65 -35.5 93t-92.5 28h-117
v-1q18 -18 18 -43v-218h34q43 0 66.5 17t23.5 71v29h11v-267zM341 718q-8 -33 -21.5 -45.5t-32.5 -12.5q-23 0 -69 30.5t-61 30.5q-19 0 -26 -28l-7 -26l-13 3l7 26q9 31 20.5 42.5t29.5 11.5q23 0 68.5 -30.5t61.5 -30.5q22 0 30 32l6 25l14 -3z" />
    <glyph glyph-name="uni1EBD" unicode="&#x1ebd;" horiz-adv-x="516" 
d="M399 626q-8 -33 -21.5 -45.5t-32.5 -12.5q-23 0 -69 30.5t-61 30.5q-19 0 -26 -28l-7 -26l-13 3l7 26q9 31 20.5 42.5t29.5 11.5q23 0 68.5 -30.5t61.5 -30.5q22 0 30 32l6 25l14 -3zM34 248q0 103 74.5 176.5t179.5 73.5q88 0 141 -45.5t53 -121.5q0 -16 -7.5 -25.5
t-20.5 -9.5h-346q-3 -25 -3 -52q0 -98 54.5 -162.5t143.5 -64.5q115 0 173 79l12 -9q-70 -94 -203 -94q-112 0 -181.5 70.5t-69.5 184.5zM111 311l288 6q14 0 14 15q0 69 -35.5 109.5t-93.5 40.5q-67 0 -113 -46t-60 -125z" />
    <glyph glyph-name="Ygrave" unicode="&#x1ef2;" horiz-adv-x="479" 
d="M286 632l-102 84l-20 25l19 16q4 3 9 3q4 0 8 -4l95 -115zM96 0v8h71q30 0 37 20.5t7 106.5v149l-130 250q-17 32 -27.5 44.5t-27.5 12.5h-18v8h158v-8h-52v-2q13 -5 34 -45l108 -205q9 -19 11 -27h5q2 8 11 27l69 133l27 60q11 24 11 37q0 22 -36 22h-44v8h161v-8h-4
q-16 0 -29.5 -13t-32.5 -45l-40 -68l-86 -168v-162q0 -86 7 -106.5t37 -20.5h60v-8h-287z" />
    <glyph glyph-name="ygrave" unicode="&#x1ef3;" horiz-adv-x="492" 
d="M294 539l-102 84l-20 25l19 16q4 3 9 3q4 0 8 -4l95 -115zM241 -5q5 12 5 24t-5 23l-169 390q-13 31 -21.5 41t-28.5 10h-13v8h161v-8h-59v-1q11 -4 27 -40l134 -306q6 -14 6 -35v-2h3l104 265l20 68q4 14 4 24q0 27 -41 27h-28v8h145v-7q-17 0 -27 -11.5t-23 -41.5
l-32 -72l-177 -449q-17 -44 -46.5 -71.5t-64.5 -27.5q-26 0 -44.5 23t-18.5 55q41 -19 70 -19q69 0 94 62z" />
    <glyph glyph-name="uni1EF8" unicode="&#x1ef8;" horiz-adv-x="479" 
d="M361 719q-8 -33 -21.5 -45.5t-32.5 -12.5q-23 0 -69 30.5t-61 30.5q-19 0 -26 -28l-7 -26l-13 3l7 26q9 31 20.5 42.5t29.5 11.5q23 0 68.5 -30.5t61.5 -30.5q22 0 30 32l6 25l14 -3zM96 0v8h71q30 0 37 20.5t7 106.5v149l-130 250q-17 32 -27.5 44.5t-27.5 12.5h-18v8
h158v-8h-52v-2q13 -5 34 -45l108 -205q9 -19 11 -27h5q2 8 11 27l69 133l27 60q11 24 11 37q0 22 -36 22h-44v8h161v-8h-4q-16 0 -29.5 -13t-32.5 -45l-40 -68l-86 -168v-162q0 -86 7 -106.5t37 -20.5h60v-8h-287z" />
    <glyph glyph-name="uni1EF9" unicode="&#x1ef9;" horiz-adv-x="492" 
d="M369 626q-8 -33 -21.5 -45.5t-32.5 -12.5q-23 0 -69 30.5t-61 30.5q-19 0 -26 -28l-7 -26l-13 3l7 26q9 31 20.5 42.5t29.5 11.5q23 0 68.5 -30.5t61.5 -30.5q22 0 30 32l6 25l14 -3zM241 -5q5 12 5 24t-5 23l-169 390q-13 31 -21.5 41t-28.5 10h-13v8h161v-8h-59v-1
q11 -4 27 -40l134 -306q6 -14 6 -35v-2h3l104 265l20 68q4 14 4 24q0 27 -41 27h-28v8h145v-7q-17 0 -27 -11.5t-23 -41.5l-32 -72l-177 -449q-17 -44 -46.5 -71.5t-64.5 -27.5q-26 0 -44.5 23t-18.5 55q41 -19 70 -19q69 0 94 62z" />
    <glyph glyph-name="uni2000" unicode="&#x2000;" horiz-adv-x="377" 
 />
    <glyph glyph-name="uni2001" unicode="&#x2001;" horiz-adv-x="756" 
 />
    <glyph glyph-name="uni2002" unicode="&#x2002;" horiz-adv-x="377" 
 />
    <glyph glyph-name="uni2003" unicode="&#x2003;" horiz-adv-x="756" 
 />
    <glyph glyph-name="uni2004" unicode="&#x2004;" horiz-adv-x="245" 
 />
    <glyph glyph-name="uni2005" unicode="&#x2005;" horiz-adv-x="183" 
 />
    <glyph glyph-name="uni2006" unicode="&#x2006;" horiz-adv-x="121" 
 />
    <glyph glyph-name="uni2007" unicode="&#x2007;" horiz-adv-x="455" 
 />
    <glyph glyph-name="uni2008" unicode="&#x2008;" horiz-adv-x="176" 
 />
    <glyph glyph-name="uni2009" unicode="&#x2009;" horiz-adv-x="146" 
 />
    <glyph glyph-name="uni200A" unicode="&#x200a;" horiz-adv-x="4" 
 />
    <glyph glyph-name="uni200B" unicode="&#x200b;" horiz-adv-x="4" 
 />
    <glyph glyph-name="uni2010" unicode="&#x2010;" horiz-adv-x="191" 
d="M173 229h-158l3 23h160z" />
    <glyph glyph-name="uni2011" unicode="&#x2011;" horiz-adv-x="176" 
d="M162 229h-147v23h147v-23z" />
    <glyph glyph-name="figuredash" unicode="&#x2012;" horiz-adv-x="443" 
d="M429 229h-414v23h414v-23z" />
    <glyph glyph-name="endash" unicode="&#x2013;" horiz-adv-x="378" 
d="M364 229h-349v23h349v-23z" />
    <glyph glyph-name="emdash" unicode="&#x2014;" horiz-adv-x="756" 
d="M742 229h-727v23h727v-23z" />
    <glyph glyph-name="quoteleft" unicode="&#x2018;" horiz-adv-x="138" 
d="M36 551q0 43 17 65t50 38l6 -12q-38 -17 -51 -47q-3 -11 -6 -15l4 -2q6 10 16 10q38 0 38 -37q0 -38 -38 -38q-16 0 -26 10.5t-10 27.5z" />
    <glyph glyph-name="quoteright" unicode="&#x2019;" horiz-adv-x="138" 
d="M110 617q0 -43 -17 -65t-50 -38l-6 12q38 17 51 47q3 11 6 15l-4 2q-6 -10 -16 -10q-38 0 -38 37q0 38 38 38q16 0 26 -10.5t10 -27.5z" />
    <glyph glyph-name="quotesinglbase" unicode="&#x201a;" horiz-adv-x="138" 
d="M110 29q0 -43 -17 -65t-50 -38l-6 12q38 17 51 47q3 11 6 15l-4 2q-6 -10 -16 -10q-38 0 -38 37q0 38 38 38q16 0 26 -10.5t10 -27.5z" />
    <glyph glyph-name="quotereversed" unicode="&#x201b;" horiz-adv-x="138" 
d="M36 618q0 16 10.5 26.5t27.5 10.5q36 0 36 -37q0 -38 -36 -38q-12 0 -18 10l-3 -2q3 -4 6 -15q13 -30 51 -47l-6 -12q-33 16 -50.5 39t-17.5 65z" />
    <glyph glyph-name="quotedblleft" unicode="&#x201c;" horiz-adv-x="260" 
d="M158 551q0 43 17 65t50 38l6 -12q-38 -17 -51 -47q-3 -11 -6 -15l4 -2q6 10 16 10q38 0 38 -37q0 -38 -38 -38q-16 0 -26 10.5t-10 27.5zM36 551q0 43 17 65t50 38l6 -12q-38 -17 -51 -47q-3 -11 -6 -15l4 -2q6 10 16 10q38 0 38 -37q0 -38 -38 -38q-16 0 -26 10.5
t-10 27.5z" />
    <glyph glyph-name="quotedblright" unicode="&#x201d;" horiz-adv-x="260" 
d="M232 617q0 -43 -17 -65t-50 -38l-6 12q38 17 51 47q3 11 6 15l-4 2q-6 -10 -16 -10q-38 0 -38 37q0 38 38 38q16 0 26 -10.5t10 -27.5zM110 617q0 -43 -17 -65t-50 -38l-6 12q38 17 51 47q3 11 6 15l-4 2q-6 -10 -16 -10q-38 0 -38 37q0 38 38 38q16 0 26 -10.5t10 -27.5
z" />
    <glyph glyph-name="quotedblbase" unicode="&#x201e;" horiz-adv-x="260" 
d="M232 29q0 -43 -17 -65t-50 -38l-6 12q38 17 51 47q3 11 6 15l-4 2q-6 -10 -16 -10q-38 0 -38 37q0 38 38 38q16 0 26 -10.5t10 -27.5zM110 29q0 -43 -17 -65t-50 -38l-6 12q38 17 51 47q3 11 6 15l-4 2q-6 -10 -16 -10q-38 0 -38 37q0 38 38 38q16 0 26 -10.5t10 -27.5z
" />
    <glyph glyph-name="uni201F" unicode="&#x201f;" horiz-adv-x="260" 
d="M158 606q0 16 10.5 26.5t27.5 10.5q36 0 36 -37t-36 -37q-12 0 -18 10l-3 -3q3 -5 6 -14q13 -30 51 -47l-6 -13q-33 16 -50.5 39t-17.5 65zM36 606q0 16 10.5 26.5t27.5 10.5q36 0 36 -37t-36 -37q-12 0 -18 10l-3 -3q3 -5 6 -14q13 -30 51 -47l-6 -13q-33 16 -50.5 39
t-17.5 65z" />
    <glyph glyph-name="dagger" unicode="&#x2020;" horiz-adv-x="369" 
d="M173 421q-14 0 -58 -5t-86 -5v29q42 0 86 -5t58 -5v-9zM196 421v9q14 0 58 5t86 5v-29q-42 0 -86 5t-58 5zM189 437h-8q0 14 -5.5 53.5t-5.5 81.5h30q0 -42 -5.5 -81.5t-5.5 -53.5zM170 -142v316q0 42 5.5 134t5.5 106h8q0 -14 5.5 -106t5.5 -134v-316h-30z" />
    <glyph glyph-name="daggerdbl" unicode="&#x2021;" horiz-adv-x="369" 
d="M173 421q-14 0 -58 -5t-86 -5v29q42 0 86 -5t58 -5v-9zM196 421v9q14 0 58 5t86 5v-29q-42 0 -86 5t-58 5zM189 437h-8q0 14 -5.5 53.5t-5.5 81.5h30q0 -42 -5.5 -81.5t-5.5 -53.5zM173 9v-8q-14 0 -58 -5t-86 -5v29q42 0 86 -5.5t58 -5.5zM196 9q14 0 58 5.5t86 5.5v-29
q-42 0 -86 5t-58 5v8zM189 -6q0 -14 5.5 -54t5.5 -82h-30q0 42 5.5 82t5.5 54h8zM189 17h-8q0 14 -5.5 53.5t-5.5 81.5v126q0 42 5.5 82t5.5 54h8q0 -14 5.5 -54t5.5 -82v-126q0 -42 -5.5 -81.5t-5.5 -53.5z" />
    <glyph glyph-name="bullet" unicode="&#x2022;" horiz-adv-x="206" 
d="M162 300q0 -24 -17.5 -41.5t-41.5 -17.5t-41.5 17.5t-17.5 41.5t17.5 41t41.5 17t41.5 -17t17.5 -41z" />
    <glyph glyph-name="uni2023" unicode="&#x2023;" horiz-adv-x="206" 
d="M178 300l-134 -59v117z" />
    <glyph glyph-name="onedotenleader" unicode="&#x2024;" horiz-adv-x="176" 
d="M82 67q16 0 26 -10.5t10 -27.5t-9.5 -27t-26.5 -10t-27.5 10t-10.5 27t10.5 27.5t27.5 10.5z" />
    <glyph glyph-name="twodotenleader" unicode="&#x2025;" horiz-adv-x="324" 
d="M230 67q16 0 26 -10.5t10 -27.5t-9.5 -27t-26.5 -10t-27.5 10t-10.5 27t10.5 27.5t27.5 10.5zM82 67q16 0 26 -10.5t10 -27.5t-9.5 -27t-26.5 -10t-27.5 10t-10.5 27t10.5 27.5t27.5 10.5z" />
    <glyph glyph-name="ellipsis" unicode="&#x2026;" horiz-adv-x="472" 
d="M230 67q16 0 26 -10.5t10 -27.5t-9.5 -27t-26.5 -10t-27.5 10t-10.5 27t10.5 27.5t27.5 10.5zM82 67q16 0 26 -10.5t10 -27.5t-9.5 -27t-26.5 -10t-27.5 10t-10.5 27t10.5 27.5t27.5 10.5zM378 67q16 0 26 -10.5t10 -27.5t-9.5 -27t-26.5 -10t-27.5 10t-10.5 27
t10.5 27.5t27.5 10.5z" />
    <glyph glyph-name="minute" unicode="&#x2032;" horiz-adv-x="147" 
d="M110 628l12 -10q4 -3 4 -8q0 -3 -4 -7l-91 -89l-9 8l72 105q3 4 8 4t8 -3z" />
    <glyph glyph-name="second" unicode="&#x2033;" horiz-adv-x="235" 
d="M198 628l12 -10q4 -3 4 -8q0 -3 -4 -7l-91 -89l-9 8l72 105q3 4 8 4t8 -3zM110 628l12 -10q4 -3 4 -8q0 -3 -4 -7l-91 -89l-9 8l72 105q3 4 8 4t8 -3z" />
    <glyph glyph-name="uni2034" unicode="&#x2034;" horiz-adv-x="325" 
d="M288 628l12 -10q4 -3 4 -8q0 -3 -4 -7l-91 -89l-9 8l72 105q3 4 8 4t8 -3zM110 628l12 -10q4 -3 4 -8q0 -3 -4 -7l-91 -89l-9 8l72 105q3 4 8 4t8 -3zM198 628l12 -10q4 -3 4 -8q0 -3 -4 -7l-91 -89l-9 8l72 105q3 4 8 4t8 -3z" />
    <glyph glyph-name="guilsinglleft" unicode="&#x2039;" horiz-adv-x="239" 
d="M30 244v2l150 154l29 -30l-94 -84q-42 -37 -59 -40v-2q18 -3 59 -40l94 -84l-29 -30z" />
    <glyph glyph-name="guilsinglright" unicode="&#x203a;" horiz-adv-x="239" 
d="M209 244l-150 -154l-29 30l94 84q41 37 59 40v2q-17 3 -59 40l-94 84l29 30l150 -154v-2z" />
    <glyph glyph-name="Euro" unicode="&#x20ac;" horiz-adv-x="593" 
d="M83 242h-73l5 22h66q-2 19 -2 38q0 16 2 32h-58l4 23h57q18 107 99 178t187 71q26 0 71.5 -7.5t63.5 -7.5q21 0 37 4l6 -213h-15l-2 72q-2 60 -53 99t-115 39q-86 0 -142 -64t-66 -171h254l-4 -23h-252v-19q0 -26 3 -51h233l-4 -22h-226q17 -107 78.5 -166t138.5 -59
q62 0 110.5 27t71.5 78l14 -5q-24 -60 -78 -92t-123 -32q-116 0 -193.5 67.5t-94.5 181.5z" />
    <glyph glyph-name="afii61352" unicode="&#x2116;" horiz-adv-x="769" 
d="M15 0v8h17q26 0 37.5 26t11.5 101v413q0 30 -7.5 36.5t-37.5 6.5h-21v8h129l233 -420q15 -27 15 -31h5q-1 9 -1 35v266q0 78 -11 110t-38 32h-42v8h175v-8h-17q-28 0 -39 -27.5t-11 -114.5v-461h-9q0 6 -24 48l-262 469q-17 28 -17 33h-4q1 -9 1 -36v-367q0 -70 11 -98.5
t38 -28.5h17v-8h-149zM615 251q32 0 52 26t20 69q0 45 -21.5 77t-52.5 32q-32 0 -51.5 -26t-19.5 -69q0 -45 21.5 -77t51.5 -32zM614 238q-54 0 -87 31.5t-33 83.5q0 47 35 81t85 34q54 0 87.5 -32t33.5 -83q0 -47 -35.5 -81t-85.5 -34zM702 121h-185l2 15h187z" />
    <glyph glyph-name="trademark" unicode="&#x2122;" horiz-adv-x="606" 
d="M42 334v6h29q15 0 18.5 8.5t3.5 45.5v217h-23q-30 0 -41.5 -8t-12.5 -35l-1 -16h-9l4 70h207l4 -70h-10v16q-1 27 -13 35t-42 8h-24v-217q0 -37 3.5 -45.5t18.5 -8.5h30v-6h-142zM231 334v6h7q16 0 20 10.5t4 53.5v190q0 13 -3 17.5t-16 4.5h-8v6h60l113 -230q5 -9 5 -17
h1q0 5 4 17l111 230h70v-6h-13q-10 0 -14.5 -3.5t-5.5 -8t-1 -16.5v-184q0 -43 4 -53.5t21 -10.5h9v-6h-112v6h14q16 0 20 10t4 51v168q0 12 1 18h-3q0 -1 -7 -16l-113 -237l-3 -6h-3l-3 6l-114 234q-6 12 -6 17h-2q1 -5 1 -13v-171q0 -41 4 -51t21 -10h14v-6h-81z" />
    <glyph glyph-name="uni2126" unicode="&#x2126;" horiz-adv-x="546" 
d="M237 0h-183q-15 0 -23 8l-7 121h15l1 -11q5 -54 27.5 -67.5t86.5 -13.5h66v1l-7 61q-88 25 -143 88.5t-55 161.5q0 116 71 186.5t187 70.5q117 0 188 -70.5t71 -186.5q0 -98 -55 -161.5t-143 -88.5l-6 -61v-1h65q65 0 87 13t27 68l1 11h15l-7 -121q-8 -8 -21 -8h-184v29
l11 89q146 37 146 212q0 127 -50 194t-145 67t-144.5 -67t-49.5 -194q0 -175 147 -212l11 -89v-29z" />
    <glyph glyph-name="arrowleft" unicode="&#x2190;" horiz-adv-x="525" 
d="M15 248l151 152l14 -14l-78 -87q-34 -38 -50 -41v-2q2 0 15 1t21 1h415v-22h-415q-8 0 -20.5 0.5t-15.5 0.5v-3q17 -3 50 -40l78 -87l-14 -14l-151 152v3z" />
    <glyph glyph-name="arrowup" unicode="&#x2191;" horiz-adv-x="333" 
d="M168 582l152 -151l-14 -14l-87 78q-38 34 -41 50h-2q0 -3 1 -16t1 -21v-508h-22v508q0 8 0.5 21t0.5 16h-3q-3 -17 -40 -50l-87 -78l-14 14l152 151h3z" />
    <glyph glyph-name="arrowright" unicode="&#x2192;" horiz-adv-x="525" 
d="M511 248v-3l-152 -152l-13 14l77 87q33 37 50 40v3q-3 0 -15.5 -0.5t-20.5 -0.5h-415v22h415q9 0 21 -1t15 -1v2q-16 3 -50 41l-77 87l13 14z" />
    <glyph glyph-name="arrowdown" unicode="&#x2193;" horiz-adv-x="332" 
d="M168 0h-3l-152 151l14 14l87 -78q37 -33 40 -50h3q0 3 -0.5 16t-0.5 21v508h22v-508q0 -8 -1 -21.5t-1 -15.5h2q3 16 41 50l87 78l14 -14z" />
    <glyph glyph-name="arrowboth" unicode="&#x2194;" horiz-adv-x="594" 
d="M506 236h-418q-8 0 -20.5 0.5t-15.5 0.5v-3q17 -3 50 -40l78 -87l-14 -14l-151 152v3l151 152l14 -14l-78 -87q-34 -38 -50 -41v-2q2 0 15 1t21 1h418q8 0 21 -1t15 -1v2q-16 3 -50 41l-78 87l14 14l151 -152v-3l-151 -152l-14 14l78 87q33 37 50 40v3q-3 0 -15.5 -0.5
t-20.5 -0.5z" />
    <glyph glyph-name="arrowupdn" unicode="&#x2195;" horiz-adv-x="332" 
d="M168 0h-3l-152 151l14 14l87 -78q37 -33 40 -50h3q0 3 -0.5 16t-0.5 21v434q0 8 0.5 21t0.5 16h-3q-3 -17 -40 -50l-87 -78l-14 14l152 151h3l152 -151l-14 -14l-87 78q-38 34 -41 50h-2q0 -3 1 -16t1 -21v-434q0 -8 -1 -21.5t-1 -15.5h2q3 16 41 50l87 78l14 -14z" />
    <glyph glyph-name="arrowdblleft" unicode="&#x21d0;" horiz-adv-x="525" 
d="M37 246q18 -12 32 -24q3 0 16 1t21 1h397v-22h-381q-9 0 -21 0.5t-14 0.5v-2q13 -3 45 -40l48 -54l-14 -14l-151 153v2l151 152l14 -14l-48 -54q-32 -37 -45 -40v-3q2 0 14 1t21 1h381v-23h-397q-8 0 -21 1t-16 1q-6 -6 -32 -22v-2z" />
    <glyph glyph-name="arrowdblup" unicode="&#x21d1;" horiz-adv-x="332" 
d="M166 560q-12 -18 -24 -32q0 -3 1 -16t1 -21v-491h-22v474q0 8 0.5 21t0.5 15h-2q-3 -14 -40 -46l-54 -47l-14 13l153 152h2l152 -152l-14 -13l-54 47q-37 32 -40 46h-3q0 -2 1 -15t1 -21v-474h-23v491q0 8 1 21t1 16q-6 6 -22 32h-2z" />
    <glyph glyph-name="arrowdblright" unicode="&#x21d2;" horiz-adv-x="525" 
d="M488 246v2q-22 14 -31 22q-3 0 -16.5 -1t-21.5 -1h-397v23h381q9 0 21 -1t15 -1v3q-14 3 -46 40l-48 54l14 14l152 -152v-2l-152 -153l-14 14l48 54q32 37 46 40v2q-3 0 -15 -0.5t-21 -0.5h-381v22h397q8 0 21.5 -1t16.5 -1q16 15 31 24z" />
    <glyph glyph-name="arrowdbldown" unicode="&#x21d3;" horiz-adv-x="332" 
d="M166 22h2q16 26 22 32q0 3 -1 16t-1 21v491h23v-474q0 -8 -1 -21t-1 -15h3q3 14 40 46l54 47l14 -13l-152 -152h-2l-153 152l14 13l54 -47q37 -32 40 -46h2q0 2 -0.5 15t-0.5 21v474h22v-491q0 -8 -1 -21t-1 -16q12 -14 24 -32z" />
    <glyph glyph-name="arrowdblboth" unicode="&#x21d4;" horiz-adv-x="593" 
d="M37 246q18 -12 32 -24q3 0 16 1t21 1h382q8 0 21 -1t16 -1q11 10 33 24v2q-29 19 -33 22q-3 0 -16 -1t-21 -1h-382q-8 0 -21 1t-16 1q-6 -6 -32 -22v-2zM122 202q-9 0 -21 0.5t-14 0.5v-2q13 -3 45 -40l48 -54l-14 -14l-151 153v2l151 152l14 -14l-48 -54
q-32 -37 -45 -40v-3q2 0 14 1t21 1h350q8 0 20.5 -1t15.5 -1v3q-14 3 -46 40l-48 54l14 14l151 -152v-2l-151 -153l-14 14l48 54q32 37 46 40v2q-3 0 -15.5 -0.5t-20.5 -0.5h-350z" />
    <glyph glyph-name="uni21D5" unicode="&#x21d5;" horiz-adv-x="332" 
d="M166 560q-12 -18 -24 -32q0 -3 1 -16t1 -21v-400q0 -8 -1 -21t-1 -16q12 -14 24 -32h2q16 26 22 32q0 3 -1 16t-1 21v400q0 8 1 21t1 16q-6 6 -22 32h-2zM122 474q0 8 0.5 21t0.5 15h-2q-3 -14 -40 -46l-54 -47l-14 13l153 152h2l152 -152l-14 -13l-54 47q-37 32 -40 46
h-3q0 -2 1 -15t1 -21v-366q0 -8 -1 -21t-1 -15h3q3 14 40 46l54 47l14 -13l-152 -152h-2l-153 152l14 13l54 -47q37 -32 40 -46h2q0 2 -0.5 15t-0.5 21v366z" />
    <glyph glyph-name="asteriskmath" unicode="&#x2217;" horiz-adv-x="304" 
d="M171 291l90 51l14 -24l-91 -52v-5l91 -52l-14 -24l-90 51l-5 -3v-103h-26l-2 103l-5 3l-90 -51l-13 24l90 52v5l-90 52l13 24l90 -51l5 3l2 103h26v-103z" />
    <glyph glyph-name="uniE000" unicode="&#xe000;" horiz-adv-x="450" 
d="M151 468v-446h61v-22h-11l-15 -7l-15 7h-20v-178h61v-14h-16l-14 -6l-15 6h-16v-37h-59v836h-77v15l77 3v51h217v7h-217v92h329v-139h-270v-37h20l15 7l15 -7h9v-22h-59v-86h20l15 7l15 -7h9v-23h-59z" />
    <glyph glyph-name="uniE001" unicode="&#xe001;" 
d="M345 340h143v-148h-143v148z" />
    <glyph glyph-name="uniE002" unicode="&#xe002;" 
d="M345 340h143v-148h-143v148z" />
    <glyph glyph-name="uniE003" unicode="&#xe003;" 
d="M345 340h143v-148h-143v148z" />
    <glyph glyph-name="uniE004" unicode="&#xe004;" 
d="M345 340h143v-148h-143v148z" />
    <glyph glyph-name="uniE005" unicode="&#xe005;" 
d="M345 340h143v-148h-143v148z" />
    <glyph glyph-name="uniE006" unicode="&#xe006;" 
d="M345 340h143v-148h-143v148z" />
    <glyph glyph-name="uniE007" unicode="&#xe007;" 
d="M345 340h143v-148h-143v148z" />
    <glyph glyph-name="uniE008" unicode="&#xe008;" 
d="M345 340h143v-148h-143v148z" />
    <glyph glyph-name="uniE009" unicode="&#xe009;" 
d="M345 340h143v-148h-143v148z" />
    <glyph glyph-name="uniE00A" unicode="&#xe00a;" 
d="M345 340h143v-148h-143v148z" />
    <glyph glyph-name="uniE00B" unicode="&#xe00b;" 
d="M345 340h143v-148h-143v148z" />
    <glyph glyph-name="uniE00C" unicode="&#xe00c;" 
d="M345 340h143v-148h-143v148z" />
    <glyph glyph-name="uniE00D" unicode="&#xe00d;" 
d="M345 340h143v-148h-143v148z" />
    <glyph glyph-name="uniE00E" unicode="&#xe00e;" 
d="M345 340h143v-148h-143v148z" />
    <glyph glyph-name="uniE00F" unicode="&#xe00f;" 
d="M345 340h143v-148h-143v148z" />
    <glyph glyph-name="uniE010" unicode="&#xe010;" 
d="M345 340h143v-148h-143v148z" />
    <glyph glyph-name="uniE011" unicode="&#xe011;" 
d="M345 340h143v-148h-143v148z" />
    <glyph glyph-name="uniE012" unicode="&#xe012;" 
d="M345 340h143v-148h-143v148z" />
    <glyph glyph-name="uniE013" unicode="&#xe013;" 
d="M345 340h143v-148h-143v148z" />
    <glyph glyph-name="uniE014" unicode="&#xe014;" 
d="M345 340h143v-148h-143v148z" />
    <glyph glyph-name="uniE015" unicode="&#xe015;" 
d="M345 340h143v-148h-143v148z" />
    <glyph glyph-name="uniE016" unicode="&#xe016;" 
d="M345 340h143v-148h-143v148z" />
    <glyph glyph-name="uniE017" unicode="&#xe017;" 
d="M345 340h143v-148h-143v148z" />
    <glyph glyph-name="uniE018" unicode="&#xe018;" 
d="M345 340h143v-148h-143v148z" />
    <glyph glyph-name="uniE019" unicode="&#xe019;" 
d="M345 340h143v-148h-143v148z" />
    <glyph glyph-name="uniE01A" unicode="&#xe01a;" 
d="M345 340h143v-148h-143v148z" />
    <glyph glyph-name="uniE01B" unicode="&#xe01b;" 
d="M345 340h143v-148h-143v148z" />
    <glyph glyph-name="uniE01C" unicode="&#xe01c;" 
d="M345 340h143v-148h-143v148z" />
    <glyph glyph-name="uniE01D" unicode="&#xe01d;" 
d="M345 340h143v-148h-143v148z" />
    <glyph glyph-name="uniE01E" unicode="&#xe01e;" 
d="M345 340h143v-148h-143v148z" />
    <glyph glyph-name="uniE01F" unicode="&#xe01f;" 
d="M345 340h143v-148h-143v148z" />
    <glyph glyph-name="uniE020" unicode="&#xe020;" 
d="M345 340h143v-148h-143v148z" />
    <glyph glyph-name="uniE021" unicode="&#xe021;" 
d="M345 340h143v-148h-143v148z" />
    <glyph glyph-name="uniE022" unicode="&#xe022;" 
d="M345 340h143v-148h-143v148z" />
    <glyph glyph-name="uniE023" unicode="&#xe023;" 
d="M345 340h143v-148h-143v148z" />
    <glyph glyph-name="uniE024" unicode="&#xe024;" 
d="M345 340h143v-148h-143v148z" />
    <glyph glyph-name="uniE025" unicode="&#xe025;" 
d="M345 340h143v-148h-143v148z" />
    <glyph glyph-name="uniE026" unicode="&#xe026;" 
d="M345 340h143v-148h-143v148z" />
    <glyph glyph-name="uniE027" unicode="&#xe027;" 
d="M345 340h143v-148h-143v148z" />
    <glyph glyph-name="uniE028" unicode="&#xe028;" 
d="M345 340h143v-148h-143v148z" />
    <glyph glyph-name="uniE029" unicode="&#xe029;" 
d="M345 340h143v-148h-143v148z" />
    <glyph glyph-name="uniE02A" unicode="&#xe02a;" 
d="M345 340h143v-148h-143v148z" />
    <glyph glyph-name="uniE02B" unicode="&#xe02b;" 
d="M345 340h143v-148h-143v148z" />
    <glyph glyph-name="uniE02C" unicode="&#xe02c;" 
d="M345 340h143v-148h-143v148z" />
    <glyph glyph-name="uniE02D" unicode="&#xe02d;" 
d="M345 340h143v-148h-143v148z" />
    <glyph glyph-name="uniE02E" unicode="&#xe02e;" 
d="M345 340h143v-148h-143v148z" />
    <glyph glyph-name="uniE02F" unicode="&#xe02f;" 
d="M345 340h143v-148h-143v148z" />
    <glyph glyph-name="uniE030" unicode="&#xe030;" 
d="M345 340h143v-148h-143v148z" />
    <glyph glyph-name="uniE031" unicode="&#xe031;" 
d="M345 340h143v-148h-143v148z" />
    <glyph glyph-name="uniE032" unicode="&#xe032;" 
d="M345 340h143v-148h-143v148z" />
    <glyph glyph-name="uniE033" unicode="&#xe033;" 
d="M345 340h143v-148h-143v148z" />
    <glyph glyph-name="uniE034" unicode="&#xe034;" 
d="M345 340h143v-148h-143v148z" />
    <glyph glyph-name="uniE035" unicode="&#xe035;" 
d="M345 340h143v-148h-143v148z" />
    <glyph glyph-name="uniE036" unicode="&#xe036;" 
d="M345 340h143v-148h-143v148z" />
    <glyph glyph-name="uniE037" unicode="&#xe037;" 
d="M345 340h143v-148h-143v148z" />
    <glyph glyph-name="uniE038" unicode="&#xe038;" 
d="M345 340h143v-148h-143v148z" />
    <glyph glyph-name="uniE039" unicode="&#xe039;" 
d="M345 340h143v-148h-143v148z" />
    <glyph glyph-name="uniE03A" unicode="&#xe03a;" 
d="M345 340h143v-148h-143v148z" />
    <glyph glyph-name="uniE03B" unicode="&#xe03b;" 
d="M345 340h143v-148h-143v148z" />
    <glyph glyph-name="uniE03C" unicode="&#xe03c;" 
d="M345 340h143v-148h-143v148z" />
    <glyph glyph-name="uniE03D" unicode="&#xe03d;" 
d="M345 340h143v-148h-143v148z" />
    <glyph glyph-name="uniE03E" unicode="&#xe03e;" 
d="M345 340h143v-148h-143v148z" />
    <glyph glyph-name="uniE03F" unicode="&#xe03f;" 
d="M345 340h143v-148h-143v148z" />
    <glyph glyph-name="uniE040" unicode="&#xe040;" 
d="M345 340h143v-148h-143v148z" />
    <glyph glyph-name="uniE041" unicode="&#xe041;" 
d="M345 340h143v-148h-143v148z" />
    <glyph glyph-name="uniE042" unicode="&#xe042;" 
d="M345 340h143v-148h-143v148z" />
    <glyph glyph-name="uniE043" unicode="&#xe043;" 
d="M345 340h143v-148h-143v148z" />
    <glyph glyph-name="uniE044" unicode="&#xe044;" 
d="M345 340h143v-148h-143v148z" />
    <glyph glyph-name="uniE045" unicode="&#xe045;" 
d="M345 340h143v-148h-143v148z" />
    <glyph glyph-name="uniE046" unicode="&#xe046;" 
d="M345 340h143v-148h-143v148z" />
    <glyph glyph-name="uniE047" unicode="&#xe047;" 
d="M345 340h143v-148h-143v148z" />
    <glyph glyph-name="f.bo" unicode="&#xe048;" horiz-adv-x="295" 
d="M15 0v8h35q23 0 30.5 9.5t7.5 34.5v408h-73v22h73q-18 54 -18 107q0 50 48.5 79.5t123.5 29.5q45 0 83 -11.5t48 -11.5v-133h-15v8q0 132 -116 132q-53 0 -87.5 -26t-34.5 -67q0 -50 32 -107h116v-22h-115v-429q0 -16 -6 -22v-1h70v-8h-202z" />
    <glyph glyph-name="f.bl" unicode="&#xe049;" horiz-adv-x="325" 
d="M15 0v8h35q23 0 30.5 9.5t7.5 34.5v408h-73v22h73q-3 8 -7 26.5t-7.5 42t-3.5 38.5q0 50 40 79.5t102 29.5q24 0 52.5 -8.5t37.5 -8.5q7 0 13 2v-141h-15v8q0 132 -88 132q-40 0 -66 -25.5t-26 -67.5q0 -50 32 -107h150v-22h-149v-429q0 -16 -6 -22v-1h70v-8h-202z" />
    <glyph glyph-name="t.bo" unicode="&#xe04a;" horiz-adv-x="367" 
d="M172 463v-355q0 -41 19 -66t50 -25q41 0 64 26.5t23 71.5v25h15v-25q0 -55 -29.5 -88.5t-77.5 -33.5q-58 0 -93 35.5t-35 93.5v341h-100v21h48q34 0 59 27t33.5 53t8.5 42v93h15v-172q0 -31 -10 -35v-1h207l-5 -28h-192z" />
    <glyph glyph-name="t.by" unicode="&#xe04b;" horiz-adv-x="337" 
d="M108 122v341h-100v21h48q34 0 59 27t33.5 53t8.5 42v93h15v-172q0 -31 -10 -35v-1h152l-5 -28h-137v-355q0 -41 19 -66t50 -25q41 0 64 26.5t23 71.5v25h15v-25q0 -55 -29.5 -88.5t-77.5 -33.5q-58 0 -93 35.5t-35 93.5z" />
    </font>
</defs>
</svg>
